Seventy-Bold.ufo
<glyph name="exclam" format="2">
	<unicode hex="0021"/>
	<advance height="2048" width="440"/>
	<outline>
		<contour>
			<point x="221" y="216" type="curve" smooth="yes"/>
			<point x="157" y="216"/>
			<point x="100" y="168"/>
			<point x="100" y="95" type="curve" smooth="yes"/>
			<point x="100" y="24"/>
			<point x="157" y="-24"/>
			<point x="221" y="-24" type="curve" smooth="yes"/>
			<point x="283" y="-24"/>
			<point x="340" y="24"/>
			<point x="340" y="95" type="curve" smooth="yes"/>
			<point x="340" y="168"/>
			<point x="283" y="216"/>
		</contour>
		<contour>
			<point x="303" y="372" type="curve" smooth="yes"/>
			<point x="340" y="1303" type="line" smooth="yes"/>
			<point x="342" y="1353"/>
			<point x="268" y="1381"/>
			<point x="221" y="1381" type="curve" smooth="yes"/>
			<point x="173" y="1381"/>
			<point x="98" y="1351"/>
			<point x="100" y="1302" type="curve" smooth="yes"/>
			<point x="137" y="372" type="line" smooth="yes"/>
			<point x="139" y="329"/>
			<point x="179" y="316"/>
			<point x="219" y="316" type="curve" smooth="yes"/>
			<point x="260" y="316"/>
			<point x="301" y="327"/>
		</contour>
	</outline>
</glyph>
<glyph name="numbersign" format="2">
  <advance height="1000" width="520"/>
  <unicode hex="0023"/>
  <outline>
    <contour>
      <point x="27.386729" y="325.7504" type="line"/>
      <point x="507.37187" y="328.05057" type="line"/>
      <point x="491.83924" y="211.99298" type="line"/>
      <point x="8.862259" y="207.17795" type="line"/>
    </contour>
    <contour>
      <point x="25.443919" y="512.48001" type="line"/>
      <point x="508.48963" y="519.09509" type="line"/>
      <point x="491.2671" y="396.38568" type="line"/>
      <point x="9.980019" y="398.22247" type="line"/>
    </contour>
    <contour>
      <point x="360.9446" y="700.0" type="line"/>
      <point x="489.40569" y="700.0" type="line"/>
      <point x="392.99718" y="0.0" type="line"/>
      <point x="266.07931" y="0.0" type="line"/>
    </contour>
    <contour>
      <point x="132.86529" y="700.0" type="line"/>
      <point x="261.32638" y="700.0" type="line"/>
      <point x="164.91787" y="0.0" type="line"/>
      <point x="38.0" y="0.0" type="line"/>
    </contour>
  </outline>
</glyph>
<glyph name="dollar" format="2">
  <advance height="1000" width="540"/>
  <unicode hex="0024"/>
  <outline>
    <contour>
      <point x="232.89959" y="365.06789" type="curve" smooth="yes"/>
      <point x="238.54771" y="221.49689"/>
      <point x="228.14779" y="77.30042000000003"/>
      <point x="201.95569" y="-63.97415999999998" type="curve"/>
      <point x="351.92676" y="-41.71105" type="line"/>
      <point x="321.20001" y="96.64356999999995"/>
      <point x="304.05451" y="238.01086999999995"/>
      <point x="300.8167" y="379.69944" type="curve" smooth="yes"/>
      <point x="297.83166" y="510.32665"/>
      <point x="306.66208" y="641.22157"/>
      <point x="327.16496" y="770.264239" type="curve"/>
      <point x="178.8349" y="749.455918" type="line"/>
      <point x="209.66193" y="623.56714"/>
      <point x="227.80471" y="494.57593"/>
    </contour>
    <contour>
      <point x="373.69604" y="680.88729" type="curve" smooth="yes"/>
      <point x="325.34629" y="703.543439"/>
      <point x="269.44386" y="703.5101070000001"/>
      <point x="216.48094" y="696.73302" type="curve" smooth="yes"/>
      <point x="168.08493" y="690.54031"/>
      <point x="119.0412" y="678.50101"/>
      <point x="79.255044" y="650.25946" type="curve" smooth="yes"/>
      <point x="59.361968" y="636.13869"/>
      <point x="42.09718" y="618.03367"/>
      <point x="30.326915" y="596.66567" type="curve" smooth="yes"/>
      <point x="18.556651000000002" y="575.29766"/>
      <point x="12.4440749" y="550.6007"/>
      <point x="14.471417800000001" y="526.2897800000001" type="curve" smooth="yes"/>
      <point x="16.310347" y="504.23823"/>
      <point x="24.710071" y="483.09785"/>
      <point x="36.238016" y="464.20979" type="curve" smooth="yes"/>
      <point x="53.369779" y="436.1401"/>
      <point x="77.707018" y="412.39444"/>
      <point x="106.571895" y="396.63932" type="curve" smooth="yes"/>
      <point x="155.16009" y="370.11876"/>
      <point x="212.96206999999998" y="367.32332"/>
      <point x="265.16373" y="348.90759" type="curve" smooth="yes"/>
      <point x="301.46195" y="336.10229000000004"/>
      <point x="335.52554" y="315.16424"/>
      <point x="359.75387" y="285.2556400000001" type="curve" smooth="yes"/>
      <point x="383.98220000000003" y="255.3470400000001"/>
      <point x="397.60814" y="215.9618700000001"/>
      <point x="392.41792" y="177.8226800000001" type="curve" smooth="yes"/>
      <point x="388.26955999999996" y="147.33941000000016"/>
      <point x="372.21425" y="118.8335800000001"/>
      <point x="349.05131" y="98.58716000000015" type="curve" smooth="yes"/>
      <point x="325.88838" y="78.34075000000018"/>
      <point x="295.90916" y="66.31738000000018"/>
      <point x="265.2515" y="63.75868000000014" type="curve" smooth="yes"/>
      <point x="245.18914" y="62.084270000000174"/>
      <point x="224.70166" y="64.38372000000015"/>
      <point x="205.82433000000003" y="71.38004000000012" type="curve" smooth="yes"/>
      <point x="186.94701000000003" y="78.37636000000009"/>
      <point x="169.73178000000001" y="90.14902000000006"/>
      <point x="157.09386000000003" y="105.82017000000008" type="curve" smooth="yes"/>
      <point x="144.45594000000003" y="121.49132000000009"/>
      <point x="136.53780000000003" y="141.09468000000004"/>
      <point x="135.68393000000003" y="161.2086700000001" type="curve" smooth="yes"/>
      <point x="134.83005000000003" y="181.32267000000013"/>
      <point x="141.22338000000002" y="201.82325000000014"/>
      <point x="154.08204000000003" y="217.31379000000015" type="curve" smooth="yes"/>
      <point x="162.43352000000004" y="227.37463000000014"/>
      <point x="173.39375000000004" y="235.25108000000012"/>
      <point x="185.59246000000005" y="239.95841000000019" type="curve" smooth="yes"/>
      <point x="197.79118000000005" y="244.66575000000023"/>
      <point x="211.20129000000006" y="246.19351000000017"/>
      <point x="224.14624000000003" y="244.3506900000002" type="curve"/>
      <point x="39.249851" y="292.62382" type="line"/>
      <point x="15.7971294" y="253.25102000000004"/>
      <point x="7.1489116" y="205.28988000000004"/>
      <point x="15.372513999999999" y="160.20529999999997" type="curve" smooth="yes"/>
      <point x="23.596116" y="115.12070999999992"/>
      <point x="48.620597000000004" y="73.30160000000001"/>
      <point x="84.46396999999999" y="44.744640000000004" type="curve" smooth="yes"/>
      <point x="114.12422999999998" y="21.113860000000045"/>
      <point x="150.52044999999998" y="6.684840000000008"/>
      <point x="187.92338" y="0.42664000000002034" type="curve" smooth="yes"/>
      <point x="225.32631" y="-5.831569999999942"/>
      <point x="263.75805" y="-4.157870000000003"/>
      <point x="301.15093" y="2.160150000000044" type="curve" smooth="yes"/>
      <point x="357.24191" y="11.637460000000033"/>
      <point x="412.80370000000005" y="32.34394000000009"/>
      <point x="455.05928000000006" y="70.42915000000005" type="curve" smooth="yes"/>
      <point x="476.18707000000006" y="89.47176000000002"/>
      <point x="493.70437000000004" y="112.71324000000004"/>
      <point x="504.95408000000003" y="138.83695" type="curve" smooth="yes"/>
      <point x="516.2038" y="164.96065999999996"/>
      <point x="521.05978" y="193.99193000000002"/>
      <point x="517.5880500000001" y="222.22226" type="curve" smooth="yes"/>
      <point x="511.88634" y="268.58564"/>
      <point x="483.60995" y="310.67478"/>
      <point x="445.51986" y="337.71582" type="curve" smooth="yes"/>
      <point x="408.99725" y="363.64407"/>
      <point x="364.90907" y="376.29506000000003"/>
      <point x="321.49546" y="387.31479" type="curve" smooth="yes"/>
      <point x="278.08186" y="398.33451"/>
      <point x="233.72118999999998" y="408.42332"/>
      <point x="194.60444999999999" y="430.24203" type="curve" smooth="yes"/>
      <point x="172.03733" y="442.82962"/>
      <point x="150.94903" y="459.96637"/>
      <point x="139.70621999999997" y="483.23269" type="curve" smooth="yes"/>
      <point x="132.55046999999996" y="498.04109"/>
      <point x="129.72144999999998" y="514.8238699999999"/>
      <point x="131.02128999999996" y="531.21912" type="curve" smooth="yes"/>
      <point x="132.32112999999998" y="547.61436"/>
      <point x="137.68865999999997" y="563.60357"/>
      <point x="146.02007999999998" y="577.78388" type="curve" smooth="yes"/>
      <point x="162.68291" y="606.14449"/>
      <point x="190.76556999999997" y="626.66514"/>
      <point x="221.46949999999998" y="638.46526" type="curve" smooth="yes"/>
      <point x="255.1744" y="651.4187099999999"/>
      <point x="293.82583" y="654.3101899999999"/>
      <point x="327.17343" y="640.46281" type="curve" smooth="yes"/>
      <point x="343.84722999999997" y="633.5391199999999"/>
      <point x="358.90648" y="622.50095"/>
      <point x="369.88081999999997" y="608.16508" type="curve" smooth="yes"/>
      <point x="380.85515" y="593.82921"/>
      <point x="387.62733999999995" y="576.1695199999999"/>
      <point x="388.23663999999997" y="558.12563" type="curve" smooth="yes"/>
      <point x="388.96810999999997" y="536.4637399999999"/>
      <point x="380.81208999999996" y="515.00054"/>
      <point x="367.60488" y="497.81501999999995" type="curve" smooth="yes"/>
      <point x="355.82745" y="482.48994999999996"/>
      <point x="340.03853999999995" y="470.27579"/>
      <point x="322.24624" y="462.72596999999996" type="curve"/>
      <point x="454.11545" y="431.21054999999996" type="line"/>
      <point x="478.03193" y="474.02888"/>
      <point x="483.27429" y="526.86586"/>
      <point x="468.23792" y="573.549" type="curve" smooth="yes"/>
      <point x="453.20156" y="620.23213"/>
      <point x="418.10698" y="660.07682"/>
    </contour>
  </outline>
</glyph>
<glyph name="percent" format="2">
	<unicode hex="0025"/>
	<advance height="2048" width="1724"/>
	<outline>
		<contour>
			<point x="1276" y="84" type="curve" smooth="yes"/>
			<point x="1164" y="84"/>
			<point x="1131" y="254"/>
			<point x="1131" y="337" type="curve" smooth="yes"/>
			<point x="1131" y="419"/>
			<point x="1164" y="589"/>
			<point x="1276" y="589" type="curve" smooth="yes"/>
			<point x="1388" y="589"/>
			<point x="1421" y="421"/>
			<point x="1421" y="337" type="curve" smooth="yes"/>
			<point x="1421" y="253"/>
			<point x="1388" y="84"/>
		</contour>
		<contour>
			<point x="1276" y="-24" type="curve" smooth="yes"/>
			<point x="1490" y="-24"/>
			<point x="1624" y="134"/>
			<point x="1624" y="336" type="curve" smooth="yes"/>
			<point x="1624" y="538"/>
			<point x="1492" y="698"/>
			<point x="1276" y="698" type="curve" smooth="yes"/>
			<point x="1060" y="698"/>
			<point x="928" y="543"/>
			<point x="928" y="339" type="curve" smooth="yes"/>
			<point x="928" y="135"/>
			<point x="1062" y="-24"/>
		</contour>
		<contour>
			<point x="448" y="767" type="curve" smooth="yes"/>
			<point x="336" y="767"/>
			<point x="303" y="938"/>
			<point x="303" y="1020" type="curve" smooth="yes"/>
			<point x="303" y="1103"/>
			<point x="336" y="1272"/>
			<point x="448" y="1272" type="curve" smooth="yes"/>
			<point x="559" y="1272"/>
			<point x="593" y="1104"/>
			<point x="593" y="1020" type="curve" smooth="yes"/>
			<point x="593" y="936"/>
			<point x="560" y="767"/>
		</contour>
		<contour>
			<point x="448" y="659" type="curve" smooth="yes"/>
			<point x="662" y="659"/>
			<point x="796" y="818"/>
			<point x="796" y="1019" type="curve" smooth="yes"/>
			<point x="796" y="1221"/>
			<point x="663" y="1381"/>
			<point x="448" y="1381" type="curve" smooth="yes"/>
			<point x="232" y="1381"/>
			<point x="100" y="1226"/>
			<point x="100" y="1022" type="curve" smooth="yes"/>
			<point x="100" y="818"/>
			<point x="234" y="659"/>
		</contour>
		<contour>
			<point x="495" y="-24" type="curve" smooth="yes"/>
			<point x="524" y="-24"/>
			<point x="559" y="-16"/>
			<point x="572" y="7" type="curve" smooth="yes"/>
			<point x="1304" y="1324" type="line" smooth="yes"/>
			<point x="1307" y="1329"/>
			<point x="1308" y="1334"/>
			<point x="1308" y="1338" type="curve" smooth="yes"/>
			<point x="1308" y="1372"/>
			<point x="1255" y="1381"/>
			<point x="1229" y="1381" type="curve" smooth="yes"/>
			<point x="1200" y="1381"/>
			<point x="1165" y="1373"/>
			<point x="1152" y="1350" type="curve" smooth="yes"/>
			<point x="420" y="33" type="line" smooth="yes"/>
			<point x="417" y="28"/>
			<point x="416" y="23"/>
			<point x="416" y="19" type="curve" smooth="yes"/>
			<point x="416" y="-15"/>
			<point x="469" y="-24"/>
		</contour>
	</outline>
</glyph>
<glyph name="ampersand" format="2">
	<unicode hex="0026"/>
	<advance height="1000" width="484"/>
	<outline>
		<contour>
			<point x="227.16921" y="553.57138" type="line"/>
			<point x="301.17362" y="617.88163" type="line"/>
			<point x="304.55883" y="648.61084"/>
			<point x="297.04473" y="680.43028"/>
			<point x="280.27045" y="706.398871" type="curve" smooth="yes"/>
			<point x="263.49617" y="732.367462"/>
			<point x="237.58087" y="752.300731"/>
			<point x="208.17769" y="761.850452" type="curve" smooth="yes"/>
			<point x="178.77451" y="771.400173"/>
			<point x="146.09232" y="770.498505"/>
			<point x="117.2604" y="759.342137" type="curve" smooth="yes"/>
			<point x="88.428481" y="748.185769"/>
			<point x="63.651641" y="726.853956"/>
			<point x="48.334681" y="700" type="curve" smooth="yes"/>
			<point x="29.920829" y="667.71652"/>
			<point x="25.518003" y="628.52131"/>
			<point x="32.207108" y="591.96247" type="curve" smooth="yes"/>
			<point x="38.896214" y="555.40363"/>
			<point x="56.10172" y="521.3406"/>
			<point x="78.182568" y="491.4453" type="curve" smooth="yes"/>
			<point x="87.38175" y="478.99051"/>
			<point x="97.446571" y="467.17521"/>
			<point x="108.28037" y="456.11286" type="curve"/>
			<point x="57.278684" y="419.87095"/>
			<point x="20.349165" y="364.3308"/>
			<point x="6.6592264" y="303.27973" type="curve" smooth="yes"/>
			<point x="-9.9042725" y="229.41385"/>
			<point x="8.4791158" y="148.35149"/>
			<point x="55.808248" y="89.27128" type="curve" smooth="yes"/>
			<point x="103.13738" y="30.19108"/>
			<point x="178.56478" y="-5.49411"/>
			<point x="254.2493" y="-3.95419" type="curve" smooth="yes"/>
			<point x="308.52522" y="-2.84986"/>
			<point x="362.50823" y="17.0604"/>
			<point x="403.43003" y="52.73254" type="curve" smooth="yes"/>
			<point x="444.35183" y="88.40468"/>
			<point x="471.61303" y="139.78884"/>
			<point x="476.57398" y="193.84885" type="curve" smooth="yes"/>
			<point x="479.78181" y="228.80493"/>
			<point x="473.80651" y="264.56318"/>
			<point x="459.40781" y="296.57717" type="curve" smooth="yes"/>
			<point x="445.00911" y="328.59115"/>
			<point x="422.22012" y="356.78723"/>
			<point x="393.93832" y="377.58044" type="curve"/>
			<point x="412.52753" y="386.50619"/>
			<point x="429.29782" y="399.19986"/>
			<point x="442.93562" y="414.66719" type="curve" smooth="yes"/>
			<point x="467.70722" y="442.76194"/>
			<point x="481.71912" y="480.11638"/>
			<point x="481.53584" y="517.57187" type="curve"/>
			<point x="375.46763" y="594.57279" type="line"/>
			<point x="390.65836" y="563.47783"/>
			<point x="391.82106" y="525.84919"/>
			<point x="378.57911" y="493.87568" type="curve" smooth="yes"/>
			<point x="365.02737" y="461.15416"/>
			<point x="338.15327" y="436.00889"/>
			<point x="310.9931" y="413.27845" type="curve" smooth="yes"/>
			<point x="283.83293" y="390.54801"/>
			<point x="255.09172" y="368.58657"/>
			<point x="235.56147" y="339.0414" type="curve" smooth="yes"/>
			<point x="207.26243" y="296.23087"/>
			<point x="201.84311" y="239.19485"/>
			<point x="221.57321" y="191.8208" type="curve"/>
			<point x="348.24231" y="179.52029" type="line"/>
			<point x="330.25245" y="189.10688"/>
			<point x="315.57518" y="204.77785"/>
			<point x="307.18594" y="223.35628" type="curve" smooth="yes"/>
			<point x="298.79671" y="241.93472"/>
			<point x="296.74657" y="263.30757"/>
			<point x="301.45114" y="283.142" type="curve" smooth="yes"/>
			<point x="306.787" y="305.63795"/>
			<point x="320.84489" y="325.94617"/>
			<point x="340.02145" y="338.86122" type="curve"/>
			<point x="368.66633" y="322.84288"/>
			<point x="391.00738" y="295.87583"/>
			<point x="401.41827" y="264.75141" type="curve" smooth="yes"/>
			<point x="411.82917" y="233.62699"/>
			<point x="410.20953" y="198.64526"/>
			<point x="396.96726" y="168.61597" type="curve" smooth="yes"/>
			<point x="383.82292" y="138.80876"/>
			<point x="359.65261" y="114.35814"/>
			<point x="330.86586" y="99.10804" type="curve" smooth="yes"/>
			<point x="302.0791" y="83.85793"/>
			<point x="268.90335" y="77.59598"/>
			<point x="236.37133" y="79.30217" type="curve" smooth="yes"/>
			<point x="188.67352" y="81.80375"/>
			<point x="141.57659" y="101.91132"/>
			<point x="108.89099" y="136.73935" type="curve" smooth="yes"/>
			<point x="76.205403" y="171.56738"/>
			<point x="59.010737" y="221.17841"/>
			<point x="66.007301" y="268.42656" type="curve" smooth="yes"/>
			<point x="71.340261" y="304.4403"/>
			<point x="90.514385" y="338.22681"/>
			<point x="118.69816" y="361.27252" type="curve" smooth="yes"/>
			<point x="146.88193" y="384.31824"/>
			<point x="183.80332" y="396.40072"/>
			<point x="220.15883" y="394.47541" type="curve"/>
			<point x="217.38757" y="495.27504" type="line"/>
			<point x="197.12219" y="491.40868"/>
			<point x="175.7411" y="493.59595"/>
			<point x="156.67834" y="501.48555" type="curve" smooth="yes"/>
			<point x="137.61559" y="509.37515"/>
			<point x="120.94241" y="522.93761"/>
			<point x="109.3367" y="539.99463" type="curve" smooth="yes"/>
			<point x="95.407202" y="560.46695"/>
			<point x="88.945976" y="586.46533"/>
			<point x="94.242442" y="610.65405" type="curve" smooth="yes"/>
			<point x="96.890674" y="622.74841"/>
			<point x="102.41902" y="634.24375"/>
			<point x="110.47894" y="643.64186" type="curve" smooth="yes"/>
			<point x="118.53885" y="653.03997"/>
			<point x="129.14154" y="660.29572"/>
			<point x="140.9297" y="664.08069" type="curve" smooth="yes"/>
			<point x="154.31029" y="668.37696"/>
			<point x="169.04198" y="668.11668"/>
			<point x="182.40453" y="663.76465" type="curve" smooth="yes"/>
			<point x="195.76709" y="659.41263"/>
			<point x="207.73026" y="651.04443"/>
			<point x="216.74481" y="640.26316" type="curve" smooth="yes"/>
			<point x="226.61791" y="628.45507"/>
			<point x="232.97688" y="613.74511"/>
			<point x="234.81447" y="598.46334" type="curve" smooth="yes"/>
			<point x="236.65205" y="583.18156"/>
			<point x="233.96157" y="567.38344"/>
			<point x="227.16921" y="553.57138" type="curve"/>
		</contour>
	</outline>
</glyph>
<glyph name="quotesingle" format="2">
	<unicode hex="0027"/>
	<advance height="2048" width="420"/>
	<outline>
		<contour>
			<point x="211" y="880" type="curve" smooth="yes"/>
			<point x="250" y="880"/>
			<point x="288" y="897"/>
			<point x="291" y="934" type="curve" smooth="yes"/>
			<point x="320" y="1330" type="line" smooth="yes"/>
			<point x="324" y="1379"/>
			<point x="265" y="1402"/>
			<point x="210" y="1402" type="curve" smooth="yes"/>
			<point x="155" y="1402"/>
			<point x="96" y="1378"/>
			<point x="100" y="1330" type="curve" smooth="yes"/>
			<point x="129" y="934" type="line" smooth="yes"/>
			<point x="132" y="897"/>
			<point x="172" y="880"/>
		</contour>
	</outline>
</glyph>
<glyph name="parenleft" format="2">
  <advance height="1000" width="278.26148710068355"/>
  <unicode hex="0028"/>
  <outline>
    <contour>
      <point x="270.09756710068353" y="700.0" type="curve"/>
      <point x="191.22305710068355" y="804.6678909" type="line"/>
      <point x="162.99561710068355" y="778.018627"/>
      <point x="137.60995710068357" y="748.361215"/>
      <point x="115.63486710068354" y="716.360171" type="curve" smooth="yes"/>
      <point x="53.84833110068354" y="626.38404"/>
      <point x="19.93520910068354" y="518.3669"/>
      <point x="13.979074300683543" y="409.38156" type="curve" smooth="yes"/>
      <point x="8.022939500683542" y="300.39622"/>
      <point x="29.505017100683542" y="190.60019999999997"/>
      <point x="71.24596710068353" y="89.74896000000001" type="curve" smooth="yes"/>
      <point x="105.81034210068354" y="6.23720000000003"/>
      <point x="154.21553710068355" y="-71.52710000000002"/>
      <point x="213.88828710068356" y="-139.40989000000002" type="curve"/>
      <point x="281.01231710068356" y="-26.349320000000034" type="line"/>
      <point x="241.04062710068357" y="6.028549999999996"/>
      <point x="205.62662710068355" y="44.024779999999964"/>
      <point x="176.13734710068354" y="86.17267000000004" type="curve" smooth="yes"/>
      <point x="114.27304710068354" y="174.59292000000005"/>
      <point x="79.05644110068354" y="282.37852999999996"/>
      <point x="82.23403510068354" y="390.24528" type="curve" smooth="yes"/>
      <point x="84.99812110068353" y="484.07509"/>
      <point x="118.57274710068354" y="579.41225"/>
      <point x="186.55110710068357" y="644.14721" type="curve" smooth="yes"/>
      <point x="210.92958710068356" y="667.36254"/>
      <point x="239.32667710068355" y="686.34666"/>
    </contour>
  </outline>
</glyph>
<glyph name="asterisk" format="2">
	<unicode hex="002A"/>
	<advance height="2048" width="638"/>
	<outline>
		<contour>
			<point x="183" y="800" type="curve" smooth="yes"/>
			<point x="192" y="800"/>
			<point x="202" y="804"/>
			<point x="210" y="813" type="curve" smooth="yes"/>
			<point x="319" y="944" type="line"/>
			<point x="429" y="814" type="line" smooth="yes"/>
			<point x="437" y="805"/>
			<point x="446" y="801"/>
			<point x="456" y="801" type="curve" smooth="yes"/>
			<point x="465" y="801"/>
			<point x="475" y="805"/>
			<point x="484" y="811" type="curve"/>
			<point x="496" y="820"/>
			<point x="504" y="831"/>
			<point x="504" y="844" type="curve" smooth="yes"/>
			<point x="504" y="850"/>
			<point x="502" y="857"/>
			<point x="498" y="864" type="curve" smooth="yes"/>
			<point x="407" y="1008" type="line"/>
			<point x="565" y="1072" type="line" smooth="yes"/>
			<point x="581" y="1078"/>
			<point x="588" y="1091"/>
			<point x="588" y="1106" type="curve" smooth="yes"/>
			<point x="588" y="1112"/>
			<point x="587" y="1118"/>
			<point x="585" y="1124" type="curve" smooth="yes"/>
			<point x="578" y="1142"/>
			<point x="567" y="1154"/>
			<point x="549" y="1154" type="curve" smooth="yes"/>
			<point x="543" y="1154"/>
			<point x="537" y="1152"/>
			<point x="531" y="1151" type="curve"/>
			<point x="373" y="1112" type="line"/>
			<point x="361" y="1282" type="line" smooth="yes"/>
			<point x="359" y="1306"/>
			<point x="341" y="1316"/>
			<point x="318" y="1316" type="curve" smooth="yes"/>
			<point x="296" y="1316"/>
			<point x="278" y="1306"/>
			<point x="276" y="1282" type="curve" smooth="yes"/>
			<point x="264" y="1111" type="line"/>
			<point x="112" y="1150" type="line"/>
			<point x="105" y="1151"/>
			<point x="96" y="1154"/>
			<point x="90" y="1154" type="curve" smooth="yes"/>
			<point x="71" y="1154"/>
			<point x="59" y="1141"/>
			<point x="53" y="1122" type="curve" smooth="yes"/>
			<point x="51" y="1116"/>
			<point x="50" y="1110"/>
			<point x="50" y="1105" type="curve" smooth="yes"/>
			<point x="50" y="1091"/>
			<point x="57" y="1078"/>
			<point x="73" y="1072" type="curve" smooth="yes"/>
			<point x="231" y="1008" type="line"/>
			<point x="141" y="863" type="line" smooth="yes"/>
			<point x="137" y="856"/>
			<point x="135" y="850"/>
			<point x="135" y="844" type="curve" smooth="yes"/>
			<point x="135" y="831"/>
			<point x="143" y="819"/>
			<point x="155" y="810" type="curve"/>
			<point x="164" y="804"/>
			<point x="173" y="800"/>
		</contour>
	</outline>
</glyph>
<glyph name="plus" format="2">
  <advance height="1000" width="520"/>
  <unicode hex="002B"/>
  <outline>
    <contour>
      <point x="27.386729" y="417.7504" type="line"/>
      <point x="507.37187" y="420.05057" type="line"/>
      <point x="491.83924" y="303.99298" type="line"/>
      <point x="8.862259" y="299.17795" type="line"/>
    </contour>
    <contour>
      <point x="199.0578" y="642.0" type="line"/>
      <point x="327.51889" y="642.0" type="line"/>
      <point x="325.94547" y="86.0" type="line"/>
      <point x="199.0276" y="86.0" type="line"/>
    </contour>
  </outline>
</glyph>
<glyph name="comma" format="2">
  <advance height="1000" width="320"/>
  <unicode hex="002C"/>
  <outline>
    <contour>
      <point x="178.88868" y="17.160369999999944" type="line"/>
      <point x="153.17446999999999" y="-2.384990000000016"/>
      <point x="118.14166999999999" y="-9.04821000000004"/>
      <point x="87.047511" y="-0.3077900000000682" type="curve" smooth="yes"/>
      <point x="55.953351" y="8.432629999999904"/>
      <point x="29.523038" y="32.37283999999988"/>
      <point x="17.758408799999998" y="62.45331999999996" type="curve" smooth="yes"/>
      <point x="6.933993099999999" y="90.1298099999999"/>
      <point x="8.555127399999998" y="122.20745"/>
      <point x="21.169658999999996" y="149.11523999999997" type="curve" smooth="yes"/>
      <point x="33.784189999999995" y="176.02303999999992"/>
      <point x="57.018612999999995" y="197.56974000000002"/>
      <point x="84.401581" y="209.11655999999994" type="curve" smooth="yes"/>
      <point x="104.881305" y="217.7524299999999"/>
      <point x="127.55519999999999" y="220.94381999999996"/>
      <point x="149.68342" y="218.8606799999999" type="curve" smooth="yes"/>
      <point x="171.81163" y="216.77752999999984"/>
      <point x="193.36953" y="209.47231999999985"/>
      <point x="212.50269000000003" y="198.16216999999983" type="curve" smooth="yes"/>
      <point x="250.76902000000004" y="175.54188999999985"/>
      <point x="278.54773" y="137.21934999999985"/>
      <point x="292.34688000000006" y="94.96331999999984" type="curve" smooth="yes"/>
      <point x="303.82676000000004" y="59.80941999999982"/>
      <point x="306.10240000000005" y="21.693789999999808"/>
      <point x="298.88680000000005" y="-14.576300000000174" type="curve" smooth="yes"/>
      <point x="291.67120000000006" y="-50.846390000000156"/>
      <point x="274.98069000000004" y="-85.18887000000018"/>
      <point x="250.92031000000006" y="-113.27237000000014" type="curve" smooth="yes"/>
      <point x="226.85994000000005" y="-141.3558700000001"/>
      <point x="195.48415000000006" y="-163.11683000000016"/>
      <point x="160.75016000000005" y="-175.8107000000001" type="curve" smooth="yes"/>
      <point x="126.01617000000005" y="-188.50456000000008"/>
      <point x="88.00257200000006" y="-192.10261000000014"/>
      <point x="51.50376200000005" y="-186.15105000000017" type="curve"/>
      <point x="108.51569100000006" y="-165.83446000000015"/>
      <point x="154.64847000000003" y="-117.22372000000018"/>
      <point x="171.95710000000005" y="-59.22773000000018" type="curve" smooth="yes"/>
      <point x="179.31761000000006" y="-34.56489000000022"/>
      <point x="181.68963000000005" y="-8.424530000000232"/>
      <point x="178.88868000000005" y="17.16036999999983" type="curve"/>
    </contour>
  </outline>
</glyph>
<glyph name="hyphen" format="2">
	<unicode hex="002D"/>
	<advance height="2048" width="853"/>
	<outline>
		<contour>
			<point x="202" y="450" type="curve" smooth="yes"/>
			<point x="651" y="450" type="line" smooth="yes"/>
			<point x="684" y="450"/>
			<point x="753" y="464"/>
			<point x="753" y="505" type="curve" smooth="yes"/>
			<point x="753" y="546"/>
			<point x="684" y="560"/>
			<point x="651" y="560" type="curve" smooth="yes"/>
			<point x="202" y="560" type="line" smooth="yes"/>
			<point x="169" y="560"/>
			<point x="100" y="546"/>
			<point x="100" y="505" type="curve" smooth="yes"/>
			<point x="100" y="464"/>
			<point x="169" y="450"/>
		</contour>
	</outline>
</glyph>
<glyph name="period" format="2">
	<unicode hex="002E"/>
	<advance height="2048" width="440"/>
	<outline>
		<contour>
			<point x="221" y="240" type="curve" smooth="yes"/>
			<point x="157" y="240"/>
			<point x="100" y="192"/>
			<point x="100" y="119" type="curve" smooth="yes"/>
			<point x="100" y="48"/>
			<point x="157" y="0"/>
			<point x="221" y="0" type="curve" smooth="yes"/>
			<point x="283" y="0"/>
			<point x="340" y="48"/>
			<point x="340" y="119" type="curve" smooth="yes"/>
			<point x="340" y="192"/>
			<point x="283" y="240"/>
		</contour>
	</outline>
</glyph>
<glyph name="slash" format="2">
  <advance height="1000" width="320"/>
  <unicode hex="002F"/>
  <outline>
    <contour>
      <point x="176.86529" y="700.0" type="line"/>
      <point x="305.32638" y="700.0" type="line"/>
      <point x="140.91787" y="0.0" type="line"/>
      <point x="14.0" y="0.0" type="line"/>
    </contour>
  </outline>
</glyph>
<glyph name="zero" format="2">
	<unicode hex="0030"/>
	<advance height="2048" width="1168"/>
	<outline>
		<contour>
			<point x="584" y="-24" type="curve" smooth="yes"/>
			<point x="952" y="-24"/>
			<point x="1088" y="376"/>
			<point x="1088" y="679" type="curve" smooth="yes"/>
			<point x="1088" y="981"/>
			<point x="953" y="1381"/>
			<point x="584" y="1381" type="curve" smooth="yes"/>
			<point x="215" y="1381"/>
			<point x="80" y="981"/>
			<point x="80" y="679" type="curve" smooth="yes"/>
			<point x="80" y="376"/>
			<point x="216" y="-24"/>
		</contour>
		<contour>
			<point x="584" y="88" type="curve" smooth="yes"/>
			<point x="345" y="88"/>
			<point x="289" y="507"/>
			<point x="289" y="678" type="curve" smooth="yes"/>
			<point x="289" y="850"/>
			<point x="346" y="1269"/>
			<point x="584" y="1269" type="curve" smooth="yes"/>
			<point x="823" y="1269"/>
			<point x="879" y="850"/>
			<point x="879" y="678" type="curve" smooth="yes"/>
			<point x="879" y="507"/>
			<point x="823" y="88"/>
		</contour>
	</outline>
</glyph>
<glyph name="one" format="2">
	<unicode hex="0031"/>
	<advance height="2048" width="657"/>
	<outline>
		<contour>
			<point x="455" y="-24" type="curve" smooth="yes"/>
			<point x="488" y="-24"/>
			<point x="557" y="-9"/>
			<point x="557" y="33" type="curve" smooth="yes"/>
			<point x="557" y="1324" type="line" smooth="yes"/>
			<point x="557" y="1366"/>
			<point x="488" y="1381"/>
			<point x="455" y="1381" type="curve" smooth="yes"/>
			<point x="420" y="1381"/>
			<point x="359" y="1367"/>
			<point x="353" y="1325" type="curve" smooth="yes"/>
			<point x="343" y="1252"/>
			<point x="315" y="1181"/>
			<point x="264" y="1126" type="curve" smooth="yes"/>
			<point x="228" y="1088"/>
			<point x="179" y="1054"/>
			<point x="126" y="1047" type="curve" smooth="yes"/>
			<point x="98" y="1043"/>
			<point x="50" y="1026"/>
			<point x="50" y="993" type="curve" smooth="yes"/>
			<point x="50" y="951"/>
			<point x="112" y="935"/>
			<point x="154" y="937" type="curve" smooth="yes"/>
			<point x="227" y="941"/>
			<point x="291" y="964"/>
			<point x="354" y="1002" type="curve"/>
			<point x="354" y="33" type="line" smooth="yes"/>
			<point x="354" y="-9"/>
			<point x="423" y="-24"/>
		</contour>
	</outline>
</glyph>
<glyph name="two" format="2">
	<unicode hex="0032"/>
	<advance height="2048" width="1159"/>
	<outline>
		<contour>
			<point x="951" y="-2" type="line" smooth="yes"/>
			<point x="983" y="-2"/>
			<point x="1052" y="13"/>
			<point x="1052" y="55" type="curve" smooth="yes"/>
			<point x="1052" y="96"/>
			<point x="983" y="111"/>
			<point x="951" y="111" type="curve" smooth="yes"/>
			<point x="304" y="111" type="line"/>
			<point x="308" y="184"/>
			<point x="321" y="266"/>
			<point x="360" y="330" type="curve" smooth="yes"/>
			<point x="409" y="411"/>
			<point x="498" y="449"/>
			<point x="580" y="489" type="curve" smooth="yes"/>
			<point x="787" y="591"/>
			<point x="1059" y="723"/>
			<point x="1059" y="978" type="curve" smooth="yes"/>
			<point x="1059" y="1236"/>
			<point x="824" y="1383"/>
			<point x="586" y="1383" type="curve" smooth="yes"/>
			<point x="490" y="1383"/>
			<point x="394" y="1365"/>
			<point x="310" y="1320" type="curve" smooth="yes"/>
			<point x="198" y="1260"/>
			<point x="107" y="1126"/>
			<point x="107" y="996" type="curve" smooth="yes"/>
			<point x="107" y="982"/>
			<point x="108" y="968"/>
			<point x="110" y="954" type="curve" smooth="yes"/>
			<point x="116" y="916"/>
			<point x="176" y="904"/>
			<point x="211" y="904" type="curve" smooth="yes"/>
			<point x="244" y="904"/>
			<point x="312" y="917"/>
			<point x="312" y="959" type="curve" smooth="yes"/>
			<point x="312" y="980" type="line" smooth="yes"/>
			<point x="312" y="1068"/>
			<point x="345" y="1162"/>
			<point x="418" y="1218" type="curve" smooth="yes"/>
			<point x="468" y="1256"/>
			<point x="523" y="1270"/>
			<point x="586" y="1270" type="curve" smooth="yes"/>
			<point x="743" y="1270"/>
			<point x="855" y="1131"/>
			<point x="855" y="981" type="curve" smooth="yes"/>
			<point x="855" y="769"/>
			<point x="616" y="656"/>
			<point x="446" y="573" type="curve" smooth="yes"/>
			<point x="337" y="519"/>
			<point x="233" y="473"/>
			<point x="168" y="365" type="curve" smooth="yes"/>
			<point x="113" y="274"/>
			<point x="100" y="159"/>
			<point x="100" y="55" type="curve" smooth="yes"/>
			<point x="100" y="13"/>
			<point x="169" y="-2"/>
			<point x="202" y="-2" type="curve" smooth="yes"/>
		</contour>
	</outline>
</glyph>
<glyph name="three" format="2">
	<unicode hex="0033"/>
	<advance height="2048" width="1149"/>
	<outline>
		<contour>
			<point x="589" y="-24" type="curve" smooth="yes"/>
			<point x="827" y="-24"/>
			<point x="1049" y="120"/>
			<point x="1049" y="373" type="curve" smooth="yes"/>
			<point x="1049" y="526"/>
			<point x="965" y="651"/>
			<point x="824" y="716" type="curve"/>
			<point x="937" y="776"/>
			<point x="1012" y="880"/>
			<point x="1011" y="1008" type="curve" smooth="yes"/>
			<point x="1010" y="1258"/>
			<point x="780" y="1382"/>
			<point x="552" y="1381" type="curve" smooth="yes"/>
			<point x="306" y="1381"/>
			<point x="101" y="1253"/>
			<point x="101" y="998" type="curve" smooth="yes"/>
			<point x="101" y="989"/>
			<point x="101" y="980"/>
			<point x="101" y="970" type="curve" smooth="yes"/>
			<point x="103" y="929"/>
			<point x="168" y="916"/>
			<point x="202" y="916" type="curve" smooth="yes"/>
			<point x="233" y="916"/>
			<point x="305" y="931"/>
			<point x="304" y="971" type="curve" smooth="yes"/>
			<point x="303" y="994" type="line" smooth="yes"/>
			<point x="298" y="1132"/>
			<point x="388" y="1269"/>
			<point x="541" y="1269" type="curve" smooth="yes"/>
			<point x="694" y="1269"/>
			<point x="808" y="1162"/>
			<point x="809" y="1008" type="curve" smooth="yes"/>
			<point x="809" y="900"/>
			<point x="743" y="812"/>
			<point x="638" y="778" type="curve" smooth="yes"/>
			<point x="596" y="764"/>
			<point x="560" y="763"/>
			<point x="516" y="761" type="curve" smooth="yes"/>
			<point x="486" y="759"/>
			<point x="421" y="745"/>
			<point x="421" y="705" type="curve" smooth="yes"/>
			<point x="421" y="663"/>
			<point x="490" y="649"/>
			<point x="522" y="649" type="curve" smooth="yes"/>
			<point x="563" y="649"/>
			<point x="609" y="653"/>
			<point x="649" y="643" type="curve" smooth="yes"/>
			<point x="777" y="611"/>
			<point x="847" y="500"/>
			<point x="847" y="375" type="curve" smooth="yes"/>
			<point x="847" y="227"/>
			<point x="749" y="88"/>
			<point x="589" y="88" type="curve" smooth="yes"/>
			<point x="414" y="88"/>
			<point x="303" y="205"/>
			<point x="303" y="375" type="curve" smooth="yes"/>
			<point x="303" y="417"/>
			<point x="234" y="431"/>
			<point x="201" y="431" type="curve" smooth="yes"/>
			<point x="169" y="431"/>
			<point x="100" y="417"/>
			<point x="100" y="375" type="curve" smooth="yes"/>
			<point x="100" y="102"/>
			<point x="337" y="-24"/>
		</contour>
	</outline>
</glyph>
<glyph name="four" format="2">
	<unicode hex="0034"/>
	<advance height="1000" width="622"/>
	<outline>
		<contour>
			<point x="540.09988" y="700" type="curve"/>
			<point x="311.64729" y="700" type="line"/>
			<point x="287.54738" y="620.70526"/>
			<point x="251.3997" y="545.08408"/>
			<point x="204.82712" y="476.5315" type="curve" smooth="yes"/>
			<point x="151.38134" y="397.8619"/>
			<point x="84.039202" y="327.95661"/>
			<point x="42.643628" y="242.3309" type="curve" smooth="yes"/>
			<point x="20.684192" y="196.90835"/>
			<point x="6.5018285" y="147.73827"/>
			<point x="0.89770662" y="97.59828" type="curve"/>
			<point x="270.28041" y="119.71798" type="line"/>
			<point x="622.89273" y="98.01106" type="line"/>
			<point x="622.89273" y="227.10881" type="line"/>
			<point x="523.69754" y="227.18531"/>
			<point x="424.50159" y="226.28854"/>
			<point x="325.324" y="224.41851" type="curve" smooth="yes"/>
			<point x="271.65544" y="223.40657"/>
			<point x="217.99226" y="222.10966"/>
			<point x="164.33748" y="220.52784" type="curve"/>
			<point x="190.56112" y="272.53043"/>
			<point x="219.37169" y="323.22839"/>
			<point x="250.62703" y="372.37157" type="curve" smooth="yes"/>
			<point x="294.8527" y="441.90816"/>
			<point x="343.97686" y="508.32865"/>
			<point x="397.51493" y="570.97785" type="curve"/>
			<point x="382.27958" y="505.57445"/>
			<point x="368.5104" y="439.82952"/>
			<point x="356.2212" y="373.80909" type="curve" smooth="yes"/>
			<point x="333.66614" y="252.63807"/>
			<point x="316.09847" y="130.53878"/>
			<point x="303.57758" y="7.92404" type="curve"/>
			<point x="508.8216" y="0" type="line"/>
			<point x="482.05298" y="107.1917"/>
			<point x="469.84273" y="218.00897"/>
			<point x="472.63097" y="328.45736" type="curve" smooth="yes"/>
			<point x="475.82024" y="454.79154"/>
			<point x="498.66784" y="580.61038"/>
		</contour>
	</outline>
</glyph>
<glyph name="five" format="2">
	<unicode hex="0035"/>
	<advance height="2048" width="1173"/>
	<outline>
		<contour>
			<point x="1073" y="422" type="curve" smooth="yes"/>
			<point x="1073" y="704"/>
			<point x="850" y="868"/>
			<point x="583" y="868" type="curve" smooth="yes"/>
			<point x="512" y="868"/>
			<point x="439" y="857"/>
			<point x="373" y="831" type="curve"/>
			<point x="428" y="1245" type="line"/>
			<point x="927" y="1245" type="line" smooth="yes"/>
			<point x="959" y="1245"/>
			<point x="1028" y="1259"/>
			<point x="1028" y="1301" type="curve" smooth="yes"/>
			<point x="1028" y="1343"/>
			<point x="959" y="1357"/>
			<point x="927" y="1357" type="curve" smooth="yes"/>
			<point x="334" y="1357" type="line" smooth="yes"/>
			<point x="300" y="1357"/>
			<point x="238" y="1343"/>
			<point x="233" y="1303" type="curve" smooth="yes"/>
			<point x="146" y="654" type="line" smooth="yes"/>
			<point x="145" y="647"/>
			<point x="144" y="641"/>
			<point x="144" y="634" type="curve" smooth="yes"/>
			<point x="144" y="588"/>
			<point x="211" y="576"/>
			<point x="248" y="576" type="curve" smooth="yes"/>
			<point x="294" y="576"/>
			<point x="320" y="587"/>
			<point x="346" y="626" type="curve" smooth="yes"/>
			<point x="397" y="704"/>
			<point x="484" y="756"/>
			<point x="579" y="756" type="curve" smooth="yes"/>
			<point x="764" y="756"/>
			<point x="870" y="594"/>
			<point x="870" y="422" type="curve" smooth="yes"/>
			<point x="870" y="250"/>
			<point x="764" y="88"/>
			<point x="579" y="88" type="curve" smooth="yes"/>
			<point x="439" y="88"/>
			<point x="333" y="194"/>
			<point x="302" y="324" type="curve" smooth="yes"/>
			<point x="293" y="360"/>
			<point x="234" y="372"/>
			<point x="202" y="372" type="curve" smooth="yes"/>
			<point x="171" y="372"/>
			<point x="99" y="358"/>
			<point x="100" y="318" type="curve" smooth="yes"/>
			<point x="100" y="310"/>
			<point x="102" y="305"/>
			<point x="104" y="298" type="curve" smooth="yes"/>
			<point x="161" y="85"/>
			<point x="366" y="-24"/>
			<point x="580" y="-24" type="curve" smooth="yes"/>
			<point x="847" y="-24"/>
			<point x="1073" y="139"/>
		</contour>
	</outline>
</glyph>
<glyph name="six" format="2">
	<unicode hex="0036"/>
	<advance height="2048" width="1197"/>
	<outline>
		<contour>
			<point x="621" y="-24" type="curve" smooth="yes"/>
			<point x="767" y="-24"/>
			<point x="911" y="28"/>
			<point x="1003" y="144" type="curve" smooth="yes"/>
			<point x="1068" y="225"/>
			<point x="1097" y="324"/>
			<point x="1097" y="427" type="curve" smooth="yes"/>
			<point x="1097" y="555"/>
			<point x="1051" y="676"/>
			<point x="952" y="762" type="curve" smooth="yes"/>
			<point x="861" y="842"/>
			<point x="741" y="877"/>
			<point x="621" y="877" type="curve" smooth="yes"/>
			<point x="502" y="877"/>
			<point x="387" y="840"/>
			<point x="303" y="755" type="curve"/>
			<point x="308" y="817"/>
			<point x="318" y="879"/>
			<point x="334" y="938" type="curve" smooth="yes"/>
			<point x="373" y="1083"/>
			<point x="473" y="1271"/>
			<point x="648" y="1270" type="curve" smooth="yes"/>
			<point x="763" y="1270"/>
			<point x="844" y="1161"/>
			<point x="868" y="1061" type="curve" smooth="yes"/>
			<point x="877" y="1025"/>
			<point x="933" y="1012"/>
			<point x="970" y="1012" type="curve" smooth="yes"/>
			<point x="1001" y="1012"/>
			<point x="1071" y="1027"/>
			<point x="1070" y="1066" type="curve" smooth="yes"/>
			<point x="1070" y="1075"/>
			<point x="1068" y="1081"/>
			<point x="1065" y="1090" type="curve"/>
			<point x="1013" y="1280"/>
			<point x="840" y="1381"/>
			<point x="648" y="1381" type="curve" smooth="yes"/>
			<point x="370" y="1381"/>
			<point x="203" y="1208"/>
			<point x="134" y="955" type="curve" smooth="yes"/>
			<point x="108" y="862"/>
			<point x="100" y="756"/>
			<point x="100" y="659" type="curve" smooth="yes"/>
			<point x="100" y="572"/>
			<point x="105" y="487"/>
			<point x="123" y="401" type="curve" smooth="yes"/>
			<point x="144" y="301"/>
			<point x="183" y="204"/>
			<point x="251" y="125" type="curve" smooth="yes"/>
			<point x="345" y="15"/>
			<point x="478" y="-24"/>
		</contour>
		<contour>
			<point x="621" y="88" type="curve" smooth="yes"/>
			<point x="439" y="88"/>
			<point x="348" y="268"/>
			<point x="348" y="427" type="curve" smooth="yes"/>
			<point x="348" y="585"/>
			<point x="439" y="765"/>
			<point x="621" y="765" type="curve" smooth="yes"/>
			<point x="802" y="765"/>
			<point x="894" y="585"/>
			<point x="894" y="427" type="curve" smooth="yes"/>
			<point x="894" y="268"/>
			<point x="802" y="88"/>
		</contour>
	</outline>
</glyph>
<glyph name="seven" format="2">
	<unicode hex="0037"/>
	<advance height="1000" width="479"/>
	<outline>
		<contour>
			<point x="1.274556" y="682.47152" type="line"/>
			<point x="65.808835" y="689.0765"/>
			<point x="130.55724" y="693.58915"/>
			<point x="195.38383" y="696" type="curve" smooth="yes"/>
			<point x="287.61718" y="699.43008"/>
			<point x="380.00871" y="698.604"/>
			<point x="472.16598" y="693.52527" type="curve"/>
			<point x="461.02805" y="662.3409"/>
			<point x="450.80197" y="630.83085"/>
			<point x="441.5052" y="599.04896" type="curve" smooth="yes"/>
			<point x="415.05405" y="508.62315"/>
			<point x="396.1352" y="415.95199"/>
			<point x="385.97663" y="322.28612" type="curve" smooth="yes"/>
			<point x="374.37132" y="215.2808"/>
			<point x="374.22393" y="107.03653"/>
			<point x="385.53778" y="0" type="curve"/>
			<point x="230.6382" y="0" type="line"/>
			<point x="251.37101" y="108.06148"/>
			<point x="272.62428" y="216.0231"/>
			<point x="294.39703" y="323.87985" type="curve" smooth="yes"/>
			<point x="314.31229" y="422.53509"/>
			<point x="334.66218" y="521.1026"/>
			<point x="355.44589" y="619.57855" type="curve"/>
			<point x="303.38847" y="626.44028"/>
			<point x="250.07115" y="623.62196"/>
			<point x="199.02722" y="611.31037" type="curve" smooth="yes"/>
			<point x="133.51516" y="595.50912"/>
			<point x="71.853177" y="563.98058"/>
			<point x="20.686826" y="520.12269" type="curve"/>
		</contour>
	</outline>
</glyph>
<glyph name="eight" format="2">
	<unicode hex="0038"/>
	<advance height="2048" width="1189"/>
	<outline>
		<contour>
			<point x="595" y="-24" type="curve" smooth="yes"/>
			<point x="836" y="-24"/>
			<point x="1089" y="105"/>
			<point x="1089" y="370" type="curve" smooth="yes"/>
			<point x="1089" y="530"/>
			<point x="997" y="647"/>
			<point x="853" y="712" type="curve"/>
			<point x="976" y="774"/>
			<point x="1051" y="879"/>
			<point x="1051" y="1018" type="curve" smooth="yes"/>
			<point x="1051" y="1263"/>
			<point x="818" y="1381"/>
			<point x="595" y="1381" type="curve" smooth="yes"/>
			<point x="371" y="1381"/>
			<point x="138" y="1263"/>
			<point x="138" y="1018" type="curve" smooth="yes"/>
			<point x="138" y="879"/>
			<point x="213" y="774"/>
			<point x="336" y="712" type="curve"/>
			<point x="192" y="647"/>
			<point x="100" y="530"/>
			<point x="100" y="370" type="curve" smooth="yes"/>
			<point x="100" y="105"/>
			<point x="353" y="-24"/>
		</contour>
		<contour>
			<point x="595" y="766" type="curve" smooth="yes"/>
			<point x="446" y="766"/>
			<point x="341" y="872"/>
			<point x="341" y="1018" type="curve" smooth="yes"/>
			<point x="341" y="1163"/>
			<point x="446" y="1269"/>
			<point x="595" y="1269" type="curve" smooth="yes"/>
			<point x="743" y="1269"/>
			<point x="848" y="1163"/>
			<point x="848" y="1018" type="curve" smooth="yes"/>
			<point x="848" y="872"/>
			<point x="743" y="766"/>
		</contour>
		<contour>
			<point x="595" y="88" type="curve" smooth="yes"/>
			<point x="426" y="88"/>
			<point x="303" y="203"/>
			<point x="303" y="370" type="curve" smooth="yes"/>
			<point x="303" y="537"/>
			<point x="426" y="653"/>
			<point x="595" y="653" type="curve" smooth="yes"/>
			<point x="763" y="653"/>
			<point x="886" y="537"/>
			<point x="886" y="370" type="curve" smooth="yes"/>
			<point x="886" y="203"/>
			<point x="763" y="88"/>
		</contour>
	</outline>
</glyph>
<glyph name="nine" format="2">
  <advance height="1000" width="572"/>
  <unicode hex="0039"/>
  <outline>
    <contour>
      <point x="114.08466" y="175.20456000000001" type="line"/>
      <point x="58.746943" y="34.53779999999995" type="line"/>
      <point x="118.33029" y="6.708989999999972"/>
      <point x="185.30831999999998" y="-5.093000000000075"/>
      <point x="250.81501000000003" y="0.6940599999999222" type="curve" smooth="yes"/>
      <point x="319.41922" y="6.754769999999894"/>
      <point x="387.08520000000004" y="32.68150999999989"/>
      <point x="438.21701" y="78.82051999999987" type="curve" smooth="yes"/>
      <point x="499.60037" y="134.21006999999986"/>
      <point x="533.50612" y="214.72569999999985"/>
      <point x="548.4494500000001" y="296.04368999999986" type="curve" smooth="yes"/>
      <point x="557.3411500000001" y="344.4301599999999"/>
      <point x="560.1555300000001" y="394.22334999999987"/>
      <point x="553.0464000000001" y="442.90366999999986" type="curve" smooth="yes"/>
      <point x="545.93727" y="491.58398999999986"/>
      <point x="528.6503700000001" y="539.1758799999999"/>
      <point x="499.8004400000001" y="579.0255299999999" type="curve" smooth="yes"/>
      <point x="453.5227100000001" y="642.9477499999998"/>
      <point x="378.6240200000001" y="683.8266799999999"/>
      <point x="300.39848000000006" y="694.2402799999999" type="curve" smooth="yes"/>
      <point x="235.11628000000007" y="702.9308229999999"/>
      <point x="166.08411000000007" y="690.7243399999999"/>
      <point x="111.23474000000007" y="654.2711099999999" type="curve" smooth="yes"/>
      <point x="83.81005200000007" y="636.0444999999999"/>
      <point x="60.179723000000074" y="611.9661699999999"/>
      <point x="43.23502900000007" y="583.7314299999998" type="curve" smooth="yes"/>
      <point x="26.29033500000007" y="555.4966999999999"/>
      <point x="16.12328800000007" y="523.1028699999998"/>
      <point x="14.784873000000069" y="490.20101999999986" type="curve" smooth="yes"/>
      <point x="12.639028000000069" y="437.45038999999986"/>
      <point x="33.74323300000007" y="384.64499999999987"/>
      <point x="69.77437800000007" y="346.05755999999985" type="curve" smooth="yes"/>
      <point x="105.80552000000007" y="307.47011999999984"/>
      <point x="156.01513000000006" y="283.04012999999986"/>
      <point x="208.31407000000007" y="275.82525999999984" type="curve" smooth="yes"/>
      <point x="274.0158200000001" y="266.76140999999984"/>
      <point x="341.8268700000001" y="284.3324299999998"/>
      <point x="398.98329000000007" y="317.97788999999983" type="curve" smooth="yes"/>
      <point x="438.3359300000001" y="341.14304999999985"/>
      <point x="473.2424000000001" y="371.83079999999984"/>
      <point x="501.25781000000006" y="407.8917399999998" type="curve"/>
      <point x="431.78774" y="520.66288" type="line"/>
      <point x="400.68223" y="454.74215"/>
      <point x="338.43901" y="404.35776"/>
      <point x="267.48539" y="387.66408" type="curve" smooth="yes"/>
      <point x="234.42302" y="379.88530000000003"/>
      <point x="198.72973" y="379.31978000000004"/>
      <point x="167.35752" y="392.33572000000004" type="curve" smooth="yes"/>
      <point x="151.67141999999998" y="398.84369000000004"/>
      <point x="137.28924999999998" y="408.71589000000006"/>
      <point x="126.20383999999999" y="421.58140000000003" type="curve" smooth="yes"/>
      <point x="115.11842999999999" y="434.4469"/>
      <point x="107.41535999999999" y="450.3457"/>
      <point x="105.00949999999999" y="467.15699" type="curve" smooth="yes"/>
      <point x="102.11755" y="487.36488"/>
      <point x="107.01283999999998" y="508.39556"/>
      <point x="117.52107999999998" y="525.89697" type="curve" smooth="yes"/>
      <point x="128.02931999999998" y="543.39837"/>
      <point x="143.94960999999998" y="557.40374"/>
      <point x="162.12161999999998" y="566.70429" type="curve" smooth="yes"/>
      <point x="198.46564999999998" y="585.30538"/>
      <point x="242.18138999999996" y="584.80952"/>
      <point x="281.6006" y="574.17867" type="curve" smooth="yes"/>
      <point x="321.64876" y="563.3782"/>
      <point x="359.02855" y="542.46738"/>
      <point x="388.63728" y="513.41866" type="curve" smooth="yes"/>
      <point x="418.24602" y="484.36995"/>
      <point x="439.94575" y="447.19162"/>
      <point x="449.91141" y="406.92760999999996" type="curve" smooth="yes"/>
      <point x="458.88689999999997" y="370.66412999999994"/>
      <point x="458.30843" y="332.09702999999996"/>
      <point x="448.37523999999996" y="296.0841" type="curve" smooth="yes"/>
      <point x="438.44205999999997" y="260.07116999999994"/>
      <point x="419.18901999999997" y="226.68768999999998"/>
      <point x="393.08593999999994" y="199.96263999999996" type="curve" smooth="yes"/>
      <point x="351.57480999999996" y="157.46240999999998"/>
      <point x="292.23418999999996" y="132.53995999999995"/>
      <point x="232.84737999999993" y="134.16796" type="curve" smooth="yes"/>
      <point x="190.32140999999993" y="135.33374000000003"/>
      <point x="148.25873999999993" y="149.86784"/>
      <point x="114.08465999999993" y="175.20456000000001" type="curve"/>
    </contour>
  </outline>
</glyph>
<glyph name="colon" format="2">
	<unicode hex="003A"/>
	<advance height="2048" width="440"/>
	<outline>
		<contour>
			<point x="221" y="856" type="curve" smooth="yes"/>
			<point x="157" y="856"/>
			<point x="100" y="808"/>
			<point x="100" y="735" type="curve" smooth="yes"/>
			<point x="100" y="664"/>
			<point x="157" y="616"/>
			<point x="221" y="616" type="curve" smooth="yes"/>
			<point x="283" y="616"/>
			<point x="340" y="664"/>
			<point x="340" y="735" type="curve" smooth="yes"/>
			<point x="340" y="808"/>
			<point x="283" y="856"/>
		</contour>
		<contour>
			<point x="221" y="390" type="curve" smooth="yes"/>
			<point x="157" y="390"/>
			<point x="100" y="342"/>
			<point x="100" y="269" type="curve" smooth="yes"/>
			<point x="100" y="198"/>
			<point x="157" y="150"/>
			<point x="221" y="150" type="curve" smooth="yes"/>
			<point x="283" y="150"/>
			<point x="340" y="198"/>
			<point x="340" y="269" type="curve" smooth="yes"/>
			<point x="340" y="342"/>
			<point x="283" y="390"/>
		</contour>
	</outline>
</glyph>
<glyph name="equal" format="2">
  <advance height="1000" width="520"/>
  <unicode hex="003D"/>
  <outline>
    <contour>
      <point x="27.386729" y="325.7504" type="line"/>
      <point x="507.37187" y="328.05057" type="line"/>
      <point x="491.83924" y="211.99298" type="line"/>
      <point x="8.862259" y="207.17795" type="line"/>
    </contour>
    <contour>
      <point x="25.443919" y="512.48001" type="line"/>
      <point x="508.48963" y="519.09509" type="line"/>
      <point x="491.2671" y="396.38568" type="line"/>
      <point x="9.980019" y="398.22247" type="line"/>
    </contour>
  </outline>
</glyph>
<glyph name="question" format="2">
	<unicode hex="003F"/>
	<advance height="2048" width="1136"/>
	<outline>
		<contour>
			<point x="566" y="279" type="curve" smooth="yes"/>
			<point x="598" y="279"/>
			<point x="666" y="294"/>
			<point x="664" y="335" type="curve" smooth="yes"/>
			<point x="662" y="385" type="line" smooth="yes"/>
			<point x="660" y="434"/>
			<point x="668" y="477"/>
			<point x="695" y="522" type="curve" smooth="yes"/>
			<point x="725" y="571"/>
			<point x="779" y="620"/>
			<point x="834" y="670" type="curve" smooth="yes"/>
			<point x="943" y="770"/>
			<point x="1036" y="867"/>
			<point x="1036" y="1025" type="curve" smooth="yes"/>
			<point x="1036" y="1269"/>
			<point x="801" y="1381"/>
			<point x="577" y="1381" type="curve" smooth="yes"/>
			<point x="433" y="1381"/>
			<point x="284" y="1346"/>
			<point x="188" y="1233" type="curve" smooth="yes"/>
			<point x="128" y="1163"/>
			<point x="100" y="1071"/>
			<point x="100" y="981" type="curve" smooth="yes"/>
			<point x="100" y="940"/>
			<point x="169" y="926"/>
			<point x="201" y="926" type="curve" smooth="yes"/>
			<point x="234" y="926"/>
			<point x="302" y="940"/>
			<point x="302" y="982" type="curve" smooth="yes"/>
			<point x="302" y="1054"/>
			<point x="323" y="1130"/>
			<point x="371" y="1186" type="curve" smooth="yes"/>
			<point x="423" y="1247"/>
			<point x="497" y="1270"/>
			<point x="577" y="1270" type="curve" smooth="yes"/>
			<point x="724" y="1270"/>
			<point x="834" y="1166"/>
			<point x="834" y="1025" type="curve" smooth="yes"/>
			<point x="834" y="898"/>
			<point x="761" y="818"/>
			<point x="671" y="737" type="curve" smooth="yes"/>
			<point x="615" y="686"/>
			<point x="545" y="624"/>
			<point x="505" y="561" type="curve" smooth="yes"/>
			<point x="468" y="503"/>
			<point x="459" y="443"/>
			<point x="459" y="376" type="curve" smooth="yes"/>
			<point x="459" y="356"/>
			<point x="460" y="353"/>
			<point x="461" y="333" type="curve" smooth="yes"/>
			<point x="464" y="291"/>
			<point x="533" y="279"/>
		</contour>
		<contour>
			<point x="561" y="216" type="curve" smooth="yes"/>
			<point x="498" y="216"/>
			<point x="441" y="168"/>
			<point x="441" y="95" type="curve" smooth="yes"/>
			<point x="441" y="24"/>
			<point x="498" y="-24"/>
			<point x="561" y="-24" type="curve" smooth="yes"/>
			<point x="623" y="-24"/>
			<point x="681" y="24"/>
			<point x="681" y="95" type="curve" smooth="yes"/>
			<point x="681" y="168"/>
			<point x="623" y="216"/>
		</contour>
	</outline>
</glyph>
<glyph name="at" format="2">
	<unicode hex="0040"/>
	<advance height="2048" width="1987"/>
	<outline>
		<contour>
			<point x="969" y="-403" type="curve" smooth="yes"/>
			<point x="1072" y="-403"/>
			<point x="1174" y="-387"/>
			<point x="1272" y="-356" type="curve" smooth="yes"/>
			<point x="1297" y="-348"/>
			<point x="1323" y="-330"/>
			<point x="1323" y="-307" type="curve" smooth="yes"/>
			<point x="1323" y="-299"/>
			<point x="1319" y="-290"/>
			<point x="1309" y="-280" type="curve" smooth="yes"/>
			<point x="1289" y="-260"/>
			<point x="1255" y="-252"/>
			<point x="1222" y="-252" type="curve" smooth="yes"/>
			<point x="1204" y="-252"/>
			<point x="1186" y="-254"/>
			<point x="1171" y="-259" type="curve" smooth="yes"/>
			<point x="1105" y="-280"/>
			<point x="1034" y="-292"/>
			<point x="964" y="-291" type="curve" smooth="yes"/>
			<point x="834" y="-291"/>
			<point x="708" y="-251"/>
			<point x="601" y="-177" type="curve" smooth="yes"/>
			<point x="387" y="-31"/>
			<point x="301" y="212"/>
			<point x="302" y="462" type="curve" smooth="yes"/>
			<point x="302" y="682"/>
			<point x="364" y="901"/>
			<point x="524" y="1062" type="curve" smooth="yes"/>
			<point x="654" y="1193"/>
			<point x="834" y="1265"/>
			<point x="1019" y="1265" type="curve" smooth="yes"/>
			<point x="1188" y="1265"/>
			<point x="1347" y="1207"/>
			<point x="1471" y="1090" type="curve" smooth="yes"/>
			<point x="1626" y="943"/>
			<point x="1685" y="739"/>
			<point x="1685" y="532" type="curve" smooth="yes"/>
			<point x="1685" y="409"/>
			<point x="1656" y="287"/>
			<point x="1583" y="186" type="curve" smooth="yes"/>
			<point x="1557" y="150"/>
			<point x="1498" y="88"/>
			<point x="1447" y="88" type="curve" smooth="yes"/>
			<point x="1389" y="88"/>
			<point x="1376" y="154"/>
			<point x="1376" y="215" type="curve" smooth="yes"/>
			<point x="1376" y="249"/>
			<point x="1380" y="281"/>
			<point x="1383" y="300" type="curve" smooth="yes"/>
			<point x="1467" y="860" type="line" smooth="yes"/>
			<point x="1472" y="893"/>
			<point x="1421" y="912"/>
			<point x="1369" y="912" type="curve" smooth="yes"/>
			<point x="1319" y="912"/>
			<point x="1270" y="896"/>
			<point x="1265" y="859" type="curve" smooth="yes"/>
			<point x="1257" y="795" type="line"/>
			<point x="1179" y="880"/>
			<point x="1068" y="913"/>
			<point x="954" y="913" type="curve" smooth="yes"/>
			<point x="671" y="913"/>
			<point x="517" y="689"/>
			<point x="517" y="430" type="curve" smooth="yes"/>
			<point x="517" y="162"/>
			<point x="689" y="-25"/>
			<point x="961" y="-25" type="curve" smooth="yes"/>
			<point x="1063" y="-25"/>
			<point x="1156" y="5"/>
			<point x="1228" y="79" type="curve"/>
			<point x="1269" y="-2"/>
			<point x="1356" y="-24"/>
			<point x="1441" y="-24" type="curve" smooth="yes"/>
			<point x="1577" y="-24"/>
			<point x="1690" y="36"/>
			<point x="1770" y="145" type="curve" smooth="yes"/>
			<point x="1854" y="259"/>
			<point x="1887" y="393"/>
			<point x="1887" y="532" type="curve" smooth="yes"/>
			<point x="1887" y="762"/>
			<point x="1819" y="984"/>
			<point x="1646" y="1147" type="curve" smooth="yes"/>
			<point x="1479" y="1305"/>
			<point x="1246" y="1377"/>
			<point x="1019" y="1377" type="curve" smooth="yes"/>
			<point x="770" y="1377"/>
			<point x="522" y="1293"/>
			<point x="346" y="1116" type="curve" smooth="yes"/>
			<point x="171" y="940"/>
			<point x="100" y="704"/>
			<point x="100" y="461" type="curve" smooth="yes"/>
			<point x="100" y="179"/>
			<point x="204" y="-82"/>
			<point x="444" y="-247" type="curve" smooth="yes"/>
			<point x="597" y="-353"/>
			<point x="783" y="-403"/>
		</contour>
		<contour>
			<point x="958" y="88" type="curve" smooth="yes"/>
			<point x="786" y="88"/>
			<point x="720" y="293"/>
			<point x="720" y="434" type="curve" smooth="yes"/>
			<point x="720" y="568"/>
			<point x="794" y="801"/>
			<point x="957" y="801" type="curve" smooth="yes"/>
			<point x="1133" y="801"/>
			<point x="1196" y="593"/>
			<point x="1196" y="449" type="curve" smooth="yes"/>
			<point x="1196" y="314"/>
			<point x="1118" y="88"/>
		</contour>
	</outline>
</glyph>
<glyph name="A" format="2">
	<unicode hex="0041"/>
	<advance height="2048" width="1413"/>
	<outline>
		<contour>
			<point x="1281" y="-24" type="curve" smooth="yes"/>
			<point x="1313" y="-24"/>
			<point x="1388" y="-11"/>
			<point x="1388" y="30" type="curve" smooth="yes"/>
			<point x="1388" y="34"/>
			<point x="1387" y="38"/>
			<point x="1385" y="43" type="curve" smooth="yes"/>
			<point x="813" y="1339" type="line" smooth="yes"/>
			<point x="798" y="1372"/>
			<point x="743" y="1381"/>
			<point x="709" y="1381" type="curve" smooth="yes"/>
			<point x="677" y="1381"/>
			<point x="609" y="1373"/>
			<point x="595" y="1340" type="curve" smooth="yes"/>
			<point x="27" y="25" type="line"/>
			<point x="26" y="22"/>
			<point x="25" y="19"/>
			<point x="25" y="16" type="curve" smooth="yes"/>
			<point x="25" y="-9"/>
			<point x="66" y="-24"/>
			<point x="106" y="-24" type="curve" smooth="yes"/>
			<point x="139" y="-24"/>
			<point x="172" y="-14"/>
			<point x="181" y="7" type="curve" smooth="yes"/>
			<point x="365" y="434" type="line"/>
			<point x="988" y="434" type="line"/>
			<point x="1171" y="19" type="line" smooth="yes"/>
			<point x="1185" y="-13"/>
			<point x="1241" y="-24"/>
		</contour>
		<contour>
			<point x="938" y="546" type="line"/>
			<point x="414" y="546" type="line"/>
			<point x="673" y="1147" type="line"/>
		</contour>
	</outline>
</glyph>
<glyph name="B" format="2">
	<unicode hex="0042"/>
	<advance height="2048" width="1305"/>
	<outline>
		<contour>
			<point x="819" y="0" type="line" smooth="yes"/>
			<point x="1033" y="0"/>
			<point x="1230" y="146"/>
			<point x="1230" y="367" type="curve" smooth="yes"/>
			<point x="1230" y="512"/>
			<point x="1139" y="636"/>
			<point x="1007" y="695" type="curve"/>
			<point x="1105" y="763"/>
			<point x="1165" y="872"/>
			<point x="1165" y="990" type="curve" smooth="yes"/>
			<point x="1165" y="1208"/>
			<point x="975" y="1357"/>
			<point x="762" y="1357" type="curve" smooth="yes"/>
			<point x="202" y="1357" type="line" smooth="yes"/>
			<point x="169" y="1357"/>
			<point x="100" y="1343"/>
			<point x="100" y="1301" type="curve" smooth="yes"/>
			<point x="100" y="56" type="line" smooth="yes"/>
			<point x="100" y="13"/>
			<point x="172" y="0"/>
			<point x="202" y="0" type="curve" smooth="yes"/>
		</contour>
		<contour>
			<point x="762" y="734" type="curve" smooth="yes"/>
			<point x="303" y="734" type="line"/>
			<point x="303" y="1245" type="line"/>
			<point x="762" y="1245" type="line" smooth="yes"/>
			<point x="883" y="1245"/>
			<point x="962" y="1095"/>
			<point x="962" y="990" type="curve" smooth="yes"/>
			<point x="962" y="885"/>
			<point x="883" y="734"/>
		</contour>
		<contour>
			<point x="819" y="112" type="curve" smooth="yes"/>
			<point x="303" y="112" type="line"/>
			<point x="303" y="623" type="line"/>
			<point x="819" y="623" type="line" smooth="yes"/>
			<point x="943" y="623"/>
			<point x="1027" y="477"/>
			<point x="1027" y="367" type="curve" smooth="yes"/>
			<point x="1027" y="258"/>
			<point x="943" y="112"/>
		</contour>
	</outline>
</glyph>
<glyph name="C" format="2">
	<unicode hex="0043"/>
	<advance height="1000" width="518"/>
	<outline>
		<contour>
			<point x="404.07743" y="599.36043" type="line"/>
			<point x="471.69784" y="700" type="line"/>
			<point x="434.37087" y="759.061764"/>
			<point x="366.58099" y="797.6616038"/>
			<point x="296.74008" y="799.62167287" type="curve" smooth="yes"/>
			<point x="251.3595" y="800.89526856"/>
			<point x="206.06333" y="787.450478"/>
			<point x="167.21339" y="763.962155" type="curve" smooth="yes"/>
			<point x="128.36344" y="740.473832"/>
			<point x="95.839754" y="707.212801"/>
			<point x="70.813115" y="669.33554" type="curve" smooth="yes"/>
			<point x="8.9633213" y="575.72725"/>
			<point x="-5.8014383" y="457.94319"/>
			<point x="2.003376" y="346.01914" type="curve" smooth="yes"/>
			<point x="7.2327329" y="271.02814"/>
			<point x="22.404079" y="195.14017"/>
			<point x="60.401128" y="130.27709" type="curve" smooth="yes"/>
			<point x="79.399652" y="97.84554"/>
			<point x="104.03101" y="68.51421"/>
			<point x="133.90955" y="45.71022" type="curve" smooth="yes"/>
			<point x="163.78808" y="22.90623"/>
			<point x="198.99778" y="6.75771"/>
			<point x="236.1217" y="0.87867" type="curve" smooth="yes"/>
			<point x="274.24889" y="-5.15925"/>
			<point x="313.78881" y="-0.2629"/>
			<point x="350.05093" y="12.97334" type="curve" smooth="yes"/>
			<point x="386.31305" y="26.20958"/>
			<point x="419.34488" y="47.6202"/>
			<point x="447.69649" y="73.81802" type="curve" smooth="yes"/>
			<point x="476.24217" y="100.19517"/>
			<point x="500.21751" y="131.50529"/>
			<point x="518.2388" y="165.94135" type="curve"/>
			<point x="472.08925" y="271.98489" type="line"/>
			<point x="459.3918" y="226.71018"/>
			<point x="433.2893" y="185.28417"/>
			<point x="397.92926" y="154.28914" type="curve" smooth="yes"/>
			<point x="372.05385" y="131.60791"/>
			<point x="341.03954" y="114.38103"/>
			<point x="307.47961" y="106.78457" type="curve" smooth="yes"/>
			<point x="273.91968" y="99.18811"/>
			<point x="237.80268" y="101.55146"/>
			<point x="206.4306" y="115.68539" type="curve" smooth="yes"/>
			<point x="173.65808" y="130.45026"/>
			<point x="147.31558" y="157.34036"/>
			<point x="128.87928" y="188.19716" type="curve" smooth="yes"/>
			<point x="110.44298" y="219.05396"/>
			<point x="99.423864" y="253.81224"/>
			<point x="91.698023" y="288.9171" type="curve" smooth="yes"/>
			<point x="78.380833" y="349.42806"/>
			<point x="74.465433" y="412.37829"/>
			<point x="84.312623" y="473.54983" type="curve" smooth="yes"/>
			<point x="89.307324" y="504.57731"/>
			<point x="97.87862" y="535.19577"/>
			<point x="111.85404" y="563.3443" type="curve" smooth="yes"/>
			<point x="125.82946" y="591.49282"/>
			<point x="145.34927" y="617.15042"/>
			<point x="170.22254" y="636.35907" type="curve" smooth="yes"/>
			<point x="199.66084" y="659.09312"/>
			<point x="236.61732" y="672.32388"/>
			<point x="273.80967" y="671.8993" type="curve" smooth="yes"/>
			<point x="325.61088" y="671.30794"/>
			<point x="376.29468" y="643.08496"/>
			<point x="404.07743" y="599.36043" type="curve"/>
		</contour>
	</outline>
</glyph>
<glyph name="D" format="2">
	<unicode hex="0044"/>
	<advance height="2048" width="1355"/>
	<outline>
		<contour>
			<point x="667" y="0" type="line" smooth="yes"/>
			<point x="1069" y="0"/>
			<point x="1305" y="296"/>
			<point x="1305" y="674" type="curve" smooth="yes"/>
			<point x="1305" y="1051"/>
			<point x="1070" y="1357"/>
			<point x="667" y="1357" type="curve" smooth="yes"/>
			<point x="201" y="1357" type="line" smooth="yes"/>
			<point x="169" y="1357"/>
			<point x="100" y="1343"/>
			<point x="100" y="1301" type="curve" smooth="yes"/>
			<point x="100" y="56" type="line" smooth="yes"/>
			<point x="100" y="14"/>
			<point x="169" y="0"/>
			<point x="201" y="0" type="curve" smooth="yes"/>
		</contour>
		<contour>
			<point x="667" y="112" type="curve" smooth="yes"/>
			<point x="303" y="112" type="line"/>
			<point x="303" y="1245" type="line"/>
			<point x="667" y="1245" type="line" smooth="yes"/>
			<point x="966" y="1245"/>
			<point x="1103" y="926"/>
			<point x="1103" y="675" type="curve" smooth="yes"/>
			<point x="1103" y="421"/>
			<point x="967" y="112"/>
		</contour>
	</outline>
</glyph>
<glyph name="E" format="2">
  <advance height="1000" width="420"/>
  <unicode hex="0045"/>
  <outline>
    <contour>
      <point x="10.0" y="700.0" type="curve"/>
      <point x="519.2359799999999" y="700.0" type="line"/>
      <point x="519.2359799999999" y="511.69896" type="line"/>
      <point x="498.61366" y="550.4398699999999"/>
      <point x="465.96675999999997" y="582.67061"/>
      <point x="426.96448999999996" y="602.79426" type="curve" smooth="yes"/>
      <point x="363.45766999999995" y="635.5613000000001"/>
      <point x="288.45217999999994" y="635.1378"/>
      <point x="217.12422999999995" y="630.7654600000001" type="curve" smooth="yes"/>
      <point x="182.55909999999994" y="628.64665"/>
      <point x="148.03993999999994" y="625.77802"/>
      <point x="113.59920999999996" y="622.16228" type="curve"/>
      <point x="113.29205999999996" y="395.12484" type="line"/>
      <point x="162.30797999999996" y="390.05209"/>
      <point x="211.84089999999998" y="389.98861"/>
      <point x="260.86965999999995" y="394.93572" type="curve" smooth="yes"/>
      <point x="310.18426999999997" y="399.91167"/>
      <point x="358.98594999999995" y="409.95671"/>
      <point x="406.2569" y="424.86135" type="curve"/>
      <point x="404.04272" y="269.58195" type="line"/>
      <point x="359.21162" y="287.64432"/>
      <point x="312.01919" y="299.83597000000003"/>
      <point x="264.04912" y="305.74777" type="curve" smooth="yes"/>
      <point x="214.98644" y="311.79423"/>
      <point x="165.11800999999997" y="311.26886"/>
      <point x="116.19359999999998" y="304.19009" type="curve"/>
      <point x="114.53934999999997" y="93.88755000000003" type="line"/>
      <point x="148.32420999999997" y="85.54639000000009"/>
      <point x="182.59667999999996" y="79.18065999999999"/>
      <point x="217.12341999999995" y="74.83370000000002" type="curve" smooth="yes"/>
      <point x="274.85972999999996" y="67.56462999999997"/>
      <point x="334.78792" y="66.15948000000003"/>
      <point x="389.8914" y="84.86581999999999" type="curve" smooth="yes"/>
      <point x="442.96605999999997" y="102.88342"/>
      <point x="489.46501" y="139.65067999999997"/>
      <point x="519.2359799999999" y="187.14008" type="curve"/>
      <point x="519.2359799999999" y="0.0" type="line"/>
      <point x="10.0" y="0.0" type="line"/>
      <point x="31.820863" y="115.96816000000001"/>
      <point x="42.764668" y="233.98051999999996"/>
      <point x="42.640994" y="351.98369" type="curve" smooth="yes"/>
      <point x="42.518706" y="468.6644"/>
      <point x="31.576317" y="585.3315"/>
    </contour>
  </outline>
</glyph>
<glyph name="F" format="2">
  <advance height="1000" width="420"/>
  <unicode hex="0046"/>
  <outline>
    <contour>
      <point x="346.6115" y="702.54117" type="line"/>
      <point x="346.6115" y="514.24013" type="line"/>
      <point x="316.66303" y="562.2779800000001"/>
      <point x="270.53432999999995" y="600.02803"/>
      <point x="217.52165999999997" y="619.88256" type="curve" smooth="yes"/>
      <point x="200.95309999999998" y="626.08789"/>
      <point x="183.40383999999997" y="630.62854"/>
      <point x="165.73971999999998" y="629.62761" type="curve" smooth="yes"/>
      <point x="156.90765999999996" y="629.12715"/>
      <point x="148.11686999999998" y="627.22196"/>
      <point x="140.04587999999998" y="623.6005" type="curve" smooth="yes"/>
      <point x="131.97489" y="619.9790399999999"/>
      <point x="124.63711999999998" y="614.61225"/>
      <point x="119.08342999999998" y="607.72659" type="curve" smooth="yes"/>
      <point x="112.83490999999998" y="599.97946"/>
      <point x="108.97332199999998" y="590.51436"/>
      <point x="106.77413899999998" y="580.80737" type="curve" smooth="yes"/>
      <point x="104.57495599999997" y="571.1003800000001"/>
      <point x="103.95261399999998" y="561.10063"/>
      <point x="103.86518099999998" y="551.1480200000001" type="curve" smooth="yes"/>
      <point x="103.69031399999997" y="531.2428"/>
      <point x="104.89930299999997" y="511.35101000000003"/>
      <point x="105.14170799999998" y="491.4465" type="curve" smooth="yes"/>
      <point x="106.62447999999998" y="369.69235000000003" type="line"/>
      <point x="330.62447999999995" y="379.69235000000003" type="line"/>
      <point x="330.62447999999995" y="239.69235000000003" type="line"/>
      <point x="302.79378999999994" y="274.33578"/>
      <point x="261.2130199999999" y="297.61285000000004"/>
      <point x="217.13122999999996" y="303.22630000000004" type="curve" smooth="yes"/>
      <point x="182.50994999999995" y="307.63503000000003"/>
      <point x="146.59619999999995" y="301.29715000000004"/>
      <point x="115.57530999999996" y="285.30420000000004" type="curve"/>
      <point x="130.0" y="0.3076499999999669" type="line"/>
      <point x="20.0" y="0.0" type="line"/>
      <point x="25.18013" y="469.98459" type="line" smooth="yes"/>
      <point x="26.028505" y="546.95624"/>
      <point x="23.880489" y="624.28549"/>
      <point x="10.0" y="700.0" type="curve"/>
    </contour>
  </outline>
</glyph>
<glyph name="G" format="2">
	<unicode hex="0047"/>
	<advance height="2048" width="1491"/>
	<outline>
		<contour>
			<point x="763" y="88" type="curve" smooth="yes"/>
			<point x="429" y="88"/>
			<point x="252" y="366"/>
			<point x="252" y="676" type="curve" smooth="yes"/>
			<point x="252" y="992"/>
			<point x="439" y="1269"/>
			<point x="778" y="1269" type="curve" smooth="yes"/>
			<point x="977" y="1269"/>
			<point x="1182" y="1146"/>
			<point x="1211" y="940" type="curve" smooth="yes"/>
			<point x="1217" y="901"/>
			<point x="1281" y="888"/>
			<point x="1313" y="888" type="curve" smooth="yes"/>
			<point x="1345" y="888"/>
			<point x="1414" y="903"/>
			<point x="1414" y="943" type="curve" smooth="yes"/>
			<point x="1414" y="955"/>
			<point x="1411" y="971"/>
			<point x="1408" y="982" type="curve" smooth="yes"/>
			<point x="1346" y="1253"/>
			<point x="1036" y="1381"/>
			<point x="776" y="1381" type="curve" smooth="yes"/>
			<point x="348" y="1381"/>
			<point x="50" y="1111"/>
			<point x="50" y="676" type="curve" smooth="yes"/>
			<point x="50" y="245"/>
			<point x="337" y="-24"/>
			<point x="763" y="-24" type="curve" smooth="yes"/>
			<point x="920" y="-24"/>
			<point x="1082" y="19"/>
			<point x="1212" y="109" type="curve" smooth="yes"/>
			<point x="1297" y="169"/>
			<point x="1416" y="307"/>
			<point x="1416" y="415" type="curve" smooth="yes"/>
			<point x="1416" y="639" type="line" smooth="yes"/>
			<point x="1416" y="681"/>
			<point x="1347" y="695"/>
			<point x="1315" y="695" type="curve" smooth="yes"/>
			<point x="768" y="695" type="line" smooth="yes"/>
			<point x="735" y="695"/>
			<point x="666" y="681"/>
			<point x="666" y="639" type="curve" smooth="yes"/>
			<point x="666" y="597"/>
			<point x="735" y="583"/>
			<point x="768" y="583" type="curve" smooth="yes"/>
			<point x="1214" y="583" type="line"/>
			<point x="1214" y="415" type="line" smooth="yes"/>
			<point x="1214" y="313"/>
			<point x="1132" y="233"/>
			<point x="1053" y="178" type="curve" smooth="yes"/>
			<point x="968" y="118"/>
			<point x="866" y="88"/>
		</contour>
	</outline>
</glyph>
<glyph name="H" format="2">
	<unicode hex="0048"/>
	<advance height="2048" width="1386"/>
	<outline>
		<contour>
			<point x="1184" y="-24" type="curve" smooth="yes"/>
			<point x="1217" y="-24"/>
			<point x="1286" y="-10"/>
			<point x="1286" y="32" type="curve" smooth="yes"/>
			<point x="1286" y="1325" type="line" smooth="yes"/>
			<point x="1286" y="1367"/>
			<point x="1217" y="1381"/>
			<point x="1184" y="1381" type="curve" smooth="yes"/>
			<point x="1152" y="1381"/>
			<point x="1083" y="1367"/>
			<point x="1083" y="1325" type="curve" smooth="yes"/>
			<point x="1083" y="734" type="line"/>
			<point x="303" y="734" type="line"/>
			<point x="303" y="1325" type="line" smooth="yes"/>
			<point x="303" y="1367"/>
			<point x="234" y="1381"/>
			<point x="202" y="1381" type="curve" smooth="yes"/>
			<point x="169" y="1381"/>
			<point x="100" y="1367"/>
			<point x="100" y="1325" type="curve" smooth="yes"/>
			<point x="100" y="32" type="line" smooth="yes"/>
			<point x="100" y="-10"/>
			<point x="169" y="-24"/>
			<point x="202" y="-24" type="curve" smooth="yes"/>
			<point x="234" y="-24"/>
			<point x="303" y="-10"/>
			<point x="303" y="32" type="curve" smooth="yes"/>
			<point x="303" y="623" type="line"/>
			<point x="1083" y="623" type="line"/>
			<point x="1083" y="32" type="line" smooth="yes"/>
			<point x="1083" y="-10"/>
			<point x="1152" y="-24"/>
		</contour>
	</outline>
</glyph>
<glyph name="I" format="2">
  <advance height="1000" width="420"/>
  <unicode hex="0049"/>
  <outline>
    <contour>
      <point x="16.62448" y="699.69235" type="line"/>
      <point x="17.7621836" y="686.23745"/>
      <point x="18.8757086" y="672.7805"/>
      <point x="19.9650478" y="659.3216" type="curve" smooth="yes"/>
      <point x="36.910292" y="449.96129"/>
      <point x="47.955507" y="238.67691000000002"/>
      <point x="20.853004" y="30.387839999999983" type="curve" smooth="yes"/>
      <point x="19.533393099999998" y="20.24631999999997"/>
      <point x="18.123811099999998" y="10.116509999999948"/>
      <point x="16.62448" y="0.0" type="curve"/>
      <point x="126.62448" y="0.0" type="line"/>
      <point x="125.67247" y="10.830169999999953"/>
      <point x="124.72175" y="21.66044999999997"/>
      <point x="123.77233000000001" y="32.49085000000002" type="curve" smooth="yes"/>
      <point x="105.14315200000001" y="245.00002000000006"/>
      <point x="87.07570700000001" y="459.93681000000004"/>
      <point x="119.15087000000001" y="670.83579" type="curve" smooth="yes"/>
      <point x="120.41697" y="679.16062"/>
      <point x="121.76064000000001" y="687.47365"/>
      <point x="123.18164000000002" y="695.7734399999999" type="curve"/>
    </contour>
  </outline>
</glyph>
<glyph name="J" format="2">
	<unicode hex="004A"/>
	<advance height="1000" width="509"/>
	<outline>
		<contour>
			<point x="266.62448" y="699.69235" type="line"/>
			<point x="267.7243" y="686.2343"/>
			<point x="268.83782" y="672.77738"/>
			<point x="269.96505" y="659.3216" type="curve" smooth="yes"/>
			<point x="283.27709" y="500.41518"/>
			<point x="298.49248" y="340.33702"/>
			<point x="280.60408" y="181.88051" type="curve" smooth="yes"/>
			<point x="274.13518" y="124.57861"/>
			<point x="263.33066" y="67.69628"/>
			<point x="246.77735" y="12.45733" type="curve" smooth="yes"/>
			<point x="239.00033" y="-13.49485"/>
			<point x="229.71198" y="-39.54199"/>
			<point x="213.36003" y="-61.14318" type="curve" smooth="yes"/>
			<point x="205.18405" y="-71.94378"/>
			<point x="195.2692" y="-81.52097"/>
			<point x="183.7191" y="-88.59872" type="curve" smooth="yes"/>
			<point x="172.16899" y="-95.67647"/>
			<point x="158.94608" y="-100.19976"/>
			<point x="145.4148" y="-100.83522" type="curve" smooth="yes"/>
			<point x="133.28779" y="-101.40473"/>
			<point x="121.02622" y="-98.82361"/>
			<point x="110.15797" y="-93.41346" type="curve" smooth="yes"/>
			<point x="99.289708" y="-88.00331"/>
			<point x="89.838738" y="-79.77608"/>
			<point x="82.982699" y="-69.75692" type="curve" smooth="yes"/>
			<point x="76.12666" y="-59.73776"/>
			<point x="71.880681" y="-47.94879"/>
			<point x="70.773834" y="-35.85898" type="curve" smooth="yes"/>
			<point x="69.666987" y="-23.76916"/>
			<point x="71.701715" y="-11.40518"/>
			<point x="76.62448" y="-0.30765" type="curve"/>
			<point x="-3.37552" y="-70.30765" type="line"/>
			<point x="9.987744" y="-111.72951"/>
			<point x="40.061693" y="-147.49415"/>
			<point x="78.57629" y="-167.76663" type="curve" smooth="yes"/>
			<point x="101.12616" y="-179.63595"/>
			<point x="126.4785" y="-186.30971"/>
			<point x="151.96122" y="-186.40118" type="curve" smooth="yes"/>
			<point x="177.44394" y="-186.49268"/>
			<point x="203.00757" y="-179.93092"/>
			<point x="224.96093" y="-166.99155" type="curve" smooth="yes"/>
			<point x="245.3441" y="-154.97766"/>
			<point x="262.3329" y="-137.72762"/>
			<point x="275.92034" y="-118.35783" type="curve" smooth="yes"/>
			<point x="289.50778" y="-98.98805"/>
			<point x="299.8194" y="-77.49757"/>
			<point x="308.57817" y="-55.51824" type="curve" smooth="yes"/>
			<point x="342.00172" y="28.35507"/>
			<point x="353.19836" y="119.46969"/>
			<point x="356.62448" y="209.69235" type="curve" smooth="yes"/>
			<point x="362.46493" y="363.49352"/>
			<point x="346.66947" y="518.57451"/>
			<point x="369.15087" y="670.83579" type="curve" smooth="yes"/>
			<point x="370.38085" y="679.16617"/>
			<point x="371.72461" y="687.47976"/>
			<point x="373.18164" y="695.77344" type="curve"/>
		</contour>
	</outline>
</glyph>
<glyph name="L" format="2">
  <advance height="1000" width="435"/>
  <unicode hex="004C"/>
  <outline>
    <contour>
      <point x="26.554688" y="696.04297" type="line"/>
      <point x="19.7508062" y="469.84193"/>
      <point x="40.735292" y="274.54052"/>
      <point x="18.0978594" y="65.59499000000005" type="curve" smooth="yes"/>
      <point x="16.0489128" y="46.68303000000003"/>
      <point x="9.64382218" y="27.68017999999995"/>
      <point x="6.62448" y="9.692350000000033" type="curve"/>
      <point x="340.12891" y="6.533200000000079" type="line"/>
      <point x="340.12891" y="167.33594000000005" type="line"/>
      <point x="301.35799" y="116.21298000000002"/>
      <point x="232.82553" y="65.03945999999996"/>
      <point x="166.62448" y="69.69235000000003" type="curve" smooth="yes"/>
      <point x="138.9229" y="71.63933999999995"/>
      <point x="106.081329" y="83.70645000000002"/>
      <point x="100.451172" y="120.30469000000005" type="curve"/>
      <point x="88.434013" y="238.66313000000002"/>
      <point x="107.010804" y="355.18442"/>
      <point x="111.88568" y="472.56527" type="curve" smooth="yes"/>
      <point x="114.97694999999999" y="546.99905"/>
      <point x="123.18163999999999" y="695.7734399999999"/>
      <point x="123.18163999999999" y="695.7734399999999" type="curve"/>
      <point x="90.97265599999999" y="695.86324"/>
      <point x="58.763671999999985" y="695.95313"/>
      <point x="26.554687999999985" y="696.04297" type="curve"/>
    </contour>
  </outline>
</glyph>
<glyph name="N" format="2">
	<unicode hex="004E"/>
	<advance height="1000" width="1198"/>
	<outline>
		<contour>
			<point x="1078" y="0" type="curve" smooth="yes"/>
			<point x="1116" y="0"/>
			<point x="1198" y="15"/>
			<point x="1198" y="64" type="curve" smooth="yes"/>
			<point x="1198" y="1362" type="line" smooth="yes"/>
			<point x="1198" y="1394"/>
			<point x="1144" y="1405"/>
			<point x="1119" y="1405" type="curve" smooth="yes"/>
			<point x="1094" y="1405"/>
			<point x="1040" y="1394"/>
			<point x="1040" y="1362" type="curve" smooth="yes"/>
			<point x="1040" y="279" type="line"/>
			<point x="230" y="1367" type="line" smooth="yes"/>
			<point x="208" y="1396"/>
			<point x="155" y="1405"/>
			<point x="120" y="1405" type="curve" smooth="yes"/>
			<point x="80" y="1405"/>
			<point x="0" y="1391"/>
			<point x="0" y="1339" type="curve" smooth="yes"/>
			<point x="0" y="42" type="line" smooth="yes"/>
			<point x="0" y="10"/>
			<point x="55" y="0"/>
			<point x="79" y="0" type="curve" smooth="yes"/>
			<point x="103" y="0"/>
			<point x="158" y="10"/>
			<point x="158" y="42" type="curve" smooth="yes"/>
			<point x="158" y="1126" type="line"/>
			<point x="967" y="38" type="line" smooth="yes"/>
			<point x="989" y="9"/>
			<point x="1043" y="0"/>
		</contour>
	</outline>
</glyph>
<glyph name="P" format="2">
	<unicode hex="0050"/>
	<advance height="2048" width="1312"/>
	<outline>
		<contour>
			<point x="202" y="-24" type="curve" smooth="yes"/>
			<point x="234" y="-24"/>
			<point x="303" y="-10"/>
			<point x="303" y="32" type="curve" smooth="yes"/>
			<point x="303" y="614" type="line"/>
			<point x="831" y="614" type="line" smooth="yes"/>
			<point x="1047" y="614"/>
			<point x="1262" y="758"/>
			<point x="1262" y="986" type="curve" smooth="yes"/>
			<point x="1262" y="1214"/>
			<point x="1047" y="1357"/>
			<point x="831" y="1357" type="curve" smooth="yes"/>
			<point x="202" y="1357" type="line" smooth="yes"/>
			<point x="169" y="1357"/>
			<point x="100" y="1343"/>
			<point x="100" y="1301" type="curve" smooth="yes"/>
			<point x="100" y="32" type="line" smooth="yes"/>
			<point x="100" y="-10"/>
			<point x="169" y="-24"/>
		</contour>
		<contour>
			<point x="831" y="726" type="curve" smooth="yes"/>
			<point x="303" y="726" type="line"/>
			<point x="303" y="1245" type="line"/>
			<point x="831" y="1245" type="line" smooth="yes"/>
			<point x="963" y="1245"/>
			<point x="1059" y="1107"/>
			<point x="1059" y="986" type="curve" smooth="yes"/>
			<point x="1059" y="865"/>
			<point x="963" y="726"/>
		</contour>
	</outline>
</glyph>
<glyph name="Q" format="2">
  <advance height="2048" width="1519"/>
  <unicode hex="0051"/>
  <outline>
    <contour>
      <point x="1247.1" y="116.49999999999993" type="curve" smooth="yes"/>
      <point x="1271.9" y="116.49999999999993"/>
      <point x="1296.6999999999998" y="122.89999999999993"/>
      <point x="1313.5" y="136.49999999999994" type="curve" smooth="yes"/>
      <point x="1323.1" y="144.49999999999994"/>
      <point x="1327.1" y="152.49999999999994"/>
      <point x="1327.1" y="160.49999999999994" type="curve" smooth="yes"/>
      <point x="1327.1" y="176.49999999999994"/>
      <point x="1311.1" y="190.89999999999992"/>
      <point x="1291.1" y="198.09999999999994" type="curve" smooth="yes"/>
      <point x="1238.3000000000002" y="218.09999999999994"/>
      <point x="1199.9" y="250.89999999999992"/>
      <point x="1167.1" y="295.69999999999993" type="curve"/>
      <point x="1257.5" y="401.29999999999995"/>
      <point x="1300.6999999999998" y="541.3"/>
      <point x="1300.6999999999998" y="678.9" type="curve" smooth="yes"/>
      <point x="1300.6999999999998" y="1002.9"/>
      <point x="1081.5" y="1240.5"/>
      <point x="746.3" y="1240.5" type="curve" smooth="yes"/>
      <point x="411.09999999999997" y="1240.5"/>
      <point x="191.89999999999998" y="1002.9"/>
      <point x="191.89999999999998" y="678.9" type="curve" smooth="yes"/>
      <point x="191.89999999999998" y="354.0999999999999"/>
      <point x="411.09999999999997" y="116.49999999999993"/>
      <point x="746.3" y="116.49999999999993" type="curve" smooth="yes"/>
      <point x="859.9" y="116.49999999999993"/>
      <point x="971.1" y="142.89999999999992"/>
      <point x="1066.3000000000002" y="206.09999999999994" type="curve"/>
      <point x="1107.1" y="166.89999999999992"/>
      <point x="1187.9" y="116.49999999999993"/>
    </contour>
    <contour>
      <point x="746.3" y="206.09999999999994" type="curve" smooth="yes"/>
      <point x="487.1" y="206.09999999999994"/>
      <point x="354.29999999999995" y="449.29999999999995"/>
      <point x="354.29999999999995" y="678.9" type="curve" smooth="yes"/>
      <point x="354.29999999999995" y="907.6999999999999"/>
      <point x="487.1" y="1150.9"/>
      <point x="746.3" y="1150.9" type="curve" smooth="yes"/>
      <point x="1005.5" y="1150.9"/>
      <point x="1138.3000000000002" y="907.6999999999999"/>
      <point x="1138.3000000000002" y="678.9" type="curve" smooth="yes"/>
      <point x="1138.3000000000002" y="591.6999999999999"/>
      <point x="1119.9" y="504.49999999999994"/>
      <point x="1081.5" y="426.8999999999999" type="curve"/>
      <point x="1007.1" y="537.3"/>
      <point x="884.7" y="609.3"/>
      <point x="750.3" y="609.3" type="curve" smooth="yes"/>
      <point x="723.9" y="609.3"/>
      <point x="665.5" y="600.5"/>
      <point x="665.5" y="565.3" type="curve" smooth="yes"/>
      <point x="665.5" y="535.6999999999999"/>
      <point x="707.9" y="522.9"/>
      <point x="731.1" y="520.5" type="curve" smooth="yes"/>
      <point x="879.9" y="503.69999999999993"/>
      <point x="918.3000000000001" y="410.8999999999999"/>
      <point x="990.3000000000001" y="300.49999999999994" type="curve"/>
      <point x="922.3000000000001" y="237.29999999999995"/>
      <point x="839.1" y="206.09999999999994"/>
    </contour>
  </outline>
</glyph>
<glyph name="R" format="2">
  <advance height="1000" width="466"/>
  <unicode hex="0052"/>
  <outline>
    <contour>
      <point x="0.0" y="0.0" type="line"/>
      <point x="6.1081613" y="99.9144"/>
      <point x="9.600182" y="199.98871999999994"/>
      <point x="10.471278" y="300.08586" type="curve" smooth="yes"/>
      <point x="11.631952" y="433.45825"/>
      <point x="8.1386949" y="566.8711000000001"/>
      <point x="0.0" y="700.0" type="curve"/>
      <point x="60.945771" y="704.021449"/>
      <point x="122.13612" y="704.332912"/>
      <point x="183.11967" y="700.93209" type="curve" smooth="yes"/>
      <point x="237.01052" y="697.9268"/>
      <point x="291.71471" y="691.7757799999999"/>
      <point x="341.23874" y="670.31358" type="curve" smooth="yes"/>
      <point x="366.00076" y="659.58248"/>
      <point x="389.25352" y="645.0274"/>
      <point x="408.63016" y="626.24284" type="curve" smooth="yes"/>
      <point x="428.0068" y="607.45827"/>
      <point x="443.43113" y="584.3552500000001"/>
      <point x="451.84555" y="558.71326" type="curve" smooth="yes"/>
      <point x="464.6388" y="519.7272800000001"/>
      <point x="460.6072" y="476.41156"/>
      <point x="445.5872" y="438.22814" type="curve" smooth="yes"/>
      <point x="430.5672" y="400.04471"/>
      <point x="405.15358" y="366.63629000000003"/>
      <point x="375.94186" y="337.82223999999997" type="curve" smooth="yes"/>
      <point x="357.84162000000003" y="319.96840999999995"/>
      <point x="338.18739000000005" y="303.69055999999995"/>
      <point x="317.27424" y="289.2331" type="curve"/>
      <point x="325.29404" y="247.94431999999995"/>
      <point x="337.31327000000005" y="207.43337999999994"/>
      <point x="353.10900000000004" y="168.45164999999997" type="curve" smooth="yes"/>
      <point x="364.23332000000005" y="140.99833999999998"/>
      <point x="377.23940000000005" y="114.28134999999997"/>
      <point x="392.53689" y="88.91558999999995" type="curve" smooth="yes"/>
      <point x="411.89638" y="56.814379999999915"/>
      <point x="434.91382000000004" y="26.921119999999974"/>
      <point x="461.00081" y="0.0" type="curve"/>
      <point x="322.59271" y="0.0" type="line"/>
      <point x="318.89144" y="42.93074999999999"/>
      <point x="308.45023000000003" y="85.27364999999998"/>
      <point x="291.76846" y="125.00358000000006" type="curve" smooth="yes"/>
      <point x="271.14676000000003" y="174.11698"/>
      <point x="240.96067" y="219.19346000000007"/>
      <point x="203.39979" y="256.9633000000001" type="curve"/>
      <point x="104.46976" y="246.43833000000006" type="line"/>
      <point x="92.068514" y="189.84197000000006"/>
      <point x="94.17768" y="130.12817000000007"/>
      <point x="110.54114999999999" y="74.54781000000003" type="curve" smooth="yes"/>
      <point x="118.19008" y="48.56736999999998"/>
      <point x="128.90091999999999" y="23.48982000000001"/>
      <point x="142.38118999999998" y="0.0" type="curve"/>
    </contour>
    <contour>
      <point x="101.8912" y="628.21748" type="line"/>
      <point x="97.135837" y="350.40868" type="line"/>
      <point x="124.98944999999999" y="348.28946"/>
      <point x="153.07099" y="349.17915"/>
      <point x="180.73459" y="353.05727" type="curve" smooth="yes"/>
      <point x="222.59586" y="358.92574"/>
      <point x="263.75744" y="371.79333"/>
      <point x="300.0423" y="393.47774000000004" type="curve" smooth="yes"/>
      <point x="322.47679" y="406.88495000000006"/>
      <point x="343.19996000000003" y="423.88625"/>
      <point x="357.78662" y="445.57239000000004" type="curve" smooth="yes"/>
      <point x="372.37328" y="467.25854000000004"/>
      <point x="380.4284" y="493.98028000000005"/>
      <point x="376.70601000000005" y="519.84925" type="curve" smooth="yes"/>
      <point x="372.75873000000007" y="547.28108"/>
      <point x="355.81749" y="571.8208500000001"/>
      <point x="333.74766000000005" y="588.5841700000001" type="curve" smooth="yes"/>
      <point x="311.67784000000006" y="605.34749"/>
      <point x="284.82463000000007" y="614.8993800000001"/>
      <point x="257.59045000000003" y="620.0360900000001" type="curve" smooth="yes"/>
      <point x="232.59875000000002" y="624.7498400000001"/>
      <point x="207.08839000000003" y="625.93606"/>
      <point x="181.66949000000005" y="626.76318" type="curve" smooth="yes"/>
      <point x="155.08547000000004" y="627.6282100000001"/>
      <point x="128.48908000000006" y="628.1130400000001"/>
      <point x="101.89120000000005" y="628.21748" type="curve" smooth="yes"/>
    </contour>
  </outline>
</glyph>
<glyph name="S" format="2">
	<unicode hex="0053"/>
	<advance height="2048" width="1279"/>
	<outline>
		<contour>
			<point x="643" y="-23" type="curve" smooth="yes"/>
			<point x="889" y="-19"/>
			<point x="1229" y="98"/>
			<point x="1229" y="395" type="curve" smooth="yes"/>
			<point x="1229" y="516"/>
			<point x="1183" y="613"/>
			<point x="1079" y="679" type="curve" smooth="yes"/>
			<point x="968" y="750"/>
			<point x="816" y="773"/>
			<point x="686" y="786" type="curve" smooth="yes"/>
			<point x="601" y="795"/>
			<point x="506" y="813"/>
			<point x="427" y="846" type="curve" smooth="yes"/>
			<point x="358" y="876"/>
			<point x="287" y="924"/>
			<point x="287" y="1004" type="curve" smooth="yes"/>
			<point x="287" y="1188"/>
			<point x="490" y="1269"/>
			<point x="648" y="1269" type="curve" smooth="yes"/>
			<point x="811" y="1269"/>
			<point x="949" y="1183"/>
			<point x="989" y="1022" type="curve" smooth="yes"/>
			<point x="997" y="990"/>
			<point x="1043" y="974"/>
			<point x="1090" y="974" type="curve" smooth="yes"/>
			<point x="1140" y="974"/>
			<point x="1190" y="993"/>
			<point x="1190" y="1029" type="curve" smooth="yes"/>
			<point x="1190" y="1037"/>
			<point x="1188" y="1042"/>
			<point x="1186" y="1049" type="curve" smooth="yes"/>
			<point x="1121" y="1283"/>
			<point x="878" y="1381"/>
			<point x="648" y="1381" type="curve" smooth="yes"/>
			<point x="423" y="1381"/>
			<point x="84" y="1275"/>
			<point x="84" y="1003" type="curve" smooth="yes"/>
			<point x="84" y="862"/>
			<point x="159" y="763"/>
			<point x="281" y="699" type="curve" smooth="yes"/>
			<point x="395" y="640"/>
			<point x="535" y="618"/>
			<point x="662" y="605" type="curve" smooth="yes"/>
			<point x="741" y="597"/>
			<point x="829" y="580"/>
			<point x="901" y="546" type="curve" smooth="yes"/>
			<point x="966" y="516"/>
			<point x="1027" y="466"/>
			<point x="1027" y="387" type="curve" smooth="yes"/>
			<point x="1027" y="192"/>
			<point x="815" y="88"/>
			<point x="645" y="88" type="curve" smooth="yes"/>
			<point x="452" y="88"/>
			<point x="303" y="190"/>
			<point x="252" y="381" type="curve" smooth="yes"/>
			<point x="244" y="413"/>
			<point x="198" y="429"/>
			<point x="152" y="429" type="curve" smooth="yes"/>
			<point x="101" y="429"/>
			<point x="50" y="409"/>
			<point x="50" y="374" type="curve" smooth="yes"/>
			<point x="50" y="369"/>
			<point x="52" y="364"/>
			<point x="53" y="359" type="curve"/>
			<point x="129" y="90"/>
			<point x="379" y="-28"/>
		</contour>
	</outline>
</glyph>
<glyph name="T" format="2">
	<unicode hex="0054"/>
	<advance height="2048" width="1265"/>
	<outline>
		<contour>
			<point x="633" y="-12" type="curve" smooth="yes"/>
			<point x="665" y="-12"/>
			<point x="734" y="2"/>
			<point x="734" y="44" type="curve" smooth="yes"/>
			<point x="734" y="1257" type="line"/>
			<point x="1139" y="1257" type="line" smooth="yes"/>
			<point x="1171" y="1257"/>
			<point x="1240" y="1271"/>
			<point x="1240" y="1313" type="curve" smooth="yes"/>
			<point x="1240" y="1355"/>
			<point x="1171" y="1369"/>
			<point x="1139" y="1369" type="curve" smooth="yes"/>
			<point x="126" y="1369" type="line" smooth="yes"/>
			<point x="94" y="1369"/>
			<point x="25" y="1355"/>
			<point x="25" y="1313" type="curve" smooth="yes"/>
			<point x="25" y="1271"/>
			<point x="94" y="1257"/>
			<point x="126" y="1257" type="curve" smooth="yes"/>
			<point x="531" y="1257" type="line"/>
			<point x="531" y="44" type="line" smooth="yes"/>
			<point x="531" y="2"/>
			<point x="600" y="-12"/>
		</contour>
	</outline>
</glyph>
<glyph name="V" format="2">
	<unicode hex="0056"/>
	<advance height="2048" width="1376"/>
	<outline>
		<contour>
			<point x="683" y="-24" type="curve" smooth="yes"/>
			<point x="717" y="-24"/>
			<point x="774" y="-15"/>
			<point x="789" y="20" type="curve" smooth="yes"/>
			<point x="1350" y="1333" type="line"/>
			<point x="1351" y="1336"/>
			<point x="1352" y="1339"/>
			<point x="1352" y="1342" type="curve" smooth="yes"/>
			<point x="1352" y="1367"/>
			<point x="1311" y="1381"/>
			<point x="1271" y="1381" type="curve" smooth="yes"/>
			<point x="1237" y="1381"/>
			<point x="1204" y="1371"/>
			<point x="1195" y="1349" type="curve" smooth="yes"/>
			<point x="712" y="218" type="line"/>
			<point x="234" y="1339" type="line" smooth="yes"/>
			<point x="222" y="1368"/>
			<point x="177" y="1381"/>
			<point x="133" y="1381" type="curve" smooth="yes"/>
			<point x="79" y="1381"/>
			<point x="24" y="1362"/>
			<point x="24" y="1329" type="curve" smooth="yes"/>
			<point x="24" y="1325"/>
			<point x="25" y="1322"/>
			<point x="27" y="1317" type="curve" smooth="yes"/>
			<point x="581" y="18" type="line" smooth="yes"/>
			<point x="595" y="-15"/>
			<point x="652" y="-24"/>
		</contour>
	</outline>
</glyph>
<glyph name="Y" format="2">
	<unicode hex="0059"/>
	<advance height="2048" width="1296"/>
	<outline>
		<contour>
			<point x="648" y="-24" type="curve" smooth="yes"/>
			<point x="680" y="-24"/>
			<point x="750" y="-10"/>
			<point x="750" y="31" type="curve" smooth="yes"/>
			<point x="750" y="643" type="line"/>
			<point x="1265" y="1324" type="line" smooth="yes"/>
			<point x="1270" y="1330"/>
			<point x="1271" y="1335"/>
			<point x="1271" y="1340" type="curve" smooth="yes"/>
			<point x="1271" y="1367"/>
			<point x="1230" y="1381"/>
			<point x="1187" y="1381" type="curve" smooth="yes"/>
			<point x="1155" y="1381"/>
			<point x="1123" y="1373"/>
			<point x="1109" y="1355" type="curve" smooth="yes"/>
			<point x="675" y="782" type="line"/>
			<point x="239" y="1347" type="line" smooth="yes"/>
			<point x="221" y="1370"/>
			<point x="182" y="1381"/>
			<point x="141" y="1381" type="curve" smooth="yes"/>
			<point x="84" y="1381"/>
			<point x="25" y="1362"/>
			<point x="25" y="1328" type="curve" smooth="yes"/>
			<point x="25" y="1322"/>
			<point x="26" y="1315"/>
			<point x="33" y="1307" type="curve"/>
			<point x="547" y="643" type="line"/>
			<point x="547" y="31" type="line" smooth="yes"/>
			<point x="547" y="-10"/>
			<point x="617" y="-24"/>
		</contour>
	</outline>
</glyph>
<glyph name="Z" format="2">
	<unicode hex="005A"/>
	<advance height="2048" width="1318"/>
	<outline>
		<contour>
			<point x="1183" y="0" type="line" smooth="yes"/>
			<point x="1215" y="0"/>
			<point x="1293" y="13"/>
			<point x="1293" y="55" type="curve" smooth="yes"/>
			<point x="1293" y="98"/>
			<point x="1215" y="111"/>
			<point x="1183" y="111" type="curve" smooth="yes"/>
			<point x="300" y="111" type="line"/>
			<point x="1282" y="1280" type="line" smooth="yes"/>
			<point x="1288" y="1287"/>
			<point x="1291" y="1295"/>
			<point x="1291" y="1302" type="curve" smooth="yes"/>
			<point x="1291" y="1318"/>
			<point x="1278" y="1332"/>
			<point x="1261" y="1340" type="curve" smooth="yes"/>
			<point x="1235" y="1352"/>
			<point x="1200" y="1357"/>
			<point x="1181" y="1357" type="curve" smooth="yes"/>
			<point x="159" y="1357" type="line" smooth="yes"/>
			<point x="126" y="1357"/>
			<point x="49" y="1344"/>
			<point x="49" y="1302" type="curve" smooth="yes"/>
			<point x="49" y="1260"/>
			<point x="127" y="1247"/>
			<point x="159" y="1247" type="curve" smooth="yes"/>
			<point x="1016" y="1247" type="line"/>
			<point x="34" y="77" type="line" smooth="yes"/>
			<point x="27" y="69"/>
			<point x="25" y="62"/>
			<point x="25" y="55" type="curve" smooth="yes"/>
			<point x="25" y="40"/>
			<point x="38" y="27"/>
			<point x="54" y="19" type="curve" smooth="yes"/>
			<point x="81" y="5"/>
			<point x="119" y="0"/>
			<point x="135" y="0" type="curve" smooth="yes"/>
		</contour>
	</outline>
</glyph>
<glyph name="bracketleft" format="2">
	<unicode hex="005B"/>
	<advance height="2048" width="814"/>
	<outline>
		<contour>
			<point x="613" y="-400" type="line" smooth="yes"/>
			<point x="645" y="-400"/>
			<point x="714" y="-386"/>
			<point x="714" y="-344" type="curve" smooth="yes"/>
			<point x="714" y="-302"/>
			<point x="645" y="-288"/>
			<point x="613" y="-288" type="curve" smooth="yes"/>
			<point x="303" y="-288" type="line"/>
			<point x="303" y="1268" type="line"/>
			<point x="613" y="1268" type="line" smooth="yes"/>
			<point x="645" y="1268"/>
			<point x="714" y="1282"/>
			<point x="714" y="1324" type="curve" smooth="yes"/>
			<point x="714" y="1366"/>
			<point x="645" y="1380"/>
			<point x="613" y="1380" type="curve" smooth="yes"/>
			<point x="201" y="1380" type="line" smooth="yes"/>
			<point x="169" y="1380"/>
			<point x="100" y="1366"/>
			<point x="100" y="1324" type="curve" smooth="yes"/>
			<point x="100" y="-344" type="line" smooth="yes"/>
			<point x="100" y="-386"/>
			<point x="169" y="-400"/>
			<point x="201" y="-400" type="curve" smooth="yes"/>
		</contour>
	</outline>
</glyph>
<glyph name="underscore" format="2">
	<unicode hex="005F"/>
	<advance height="2048" width="1279"/>
	<outline>
		<contour>
			<point x="1081" y="0" type="line" smooth="yes"/>
			<point x="1112" y="0"/>
			<point x="1179" y="14"/>
			<point x="1179" y="55" type="curve" smooth="yes"/>
			<point x="1179" y="96"/>
			<point x="1112" y="110"/>
			<point x="1081" y="110" type="curve" smooth="yes"/>
			<point x="198" y="110" type="line" smooth="yes"/>
			<point x="167" y="110"/>
			<point x="100" y="96"/>
			<point x="100" y="55" type="curve" smooth="yes"/>
			<point x="100" y="14"/>
			<point x="167" y="0"/>
			<point x="198" y="0" type="curve" smooth="yes"/>
		</contour>
	</outline>
</glyph>
<glyph name="a" format="2">
  <advance height="1000" width="509"/>
  <unicode hex="0061"/>
  <outline>
    <contour>
      <point x="126.79564" y="310.0757" type="line"/>
      <point x="129.2563" y="336.03953"/>
      <point x="134.25636" y="362.2314"/>
      <point x="146.48029" y="385.26944" type="curve" smooth="yes"/>
      <point x="152.59225" y="396.78844999999995"/>
      <point x="160.49438" y="407.41988"/>
      <point x="170.22296" y="416.10312" type="curve" smooth="yes"/>
      <point x="179.95154" y="424.78636"/>
      <point x="191.53706" y="431.48859"/>
      <point x="204.10709" y="434.9582" type="curve" smooth="yes"/>
      <point x="221.79663" y="439.8409"/>
      <point x="241.04501" y="438.12577999999996"/>
      <point x="258.0567" y="431.24370999999996" type="curve" smooth="yes"/>
      <point x="275.0684" y="424.36163999999997"/>
      <point x="289.86116999999996" y="412.48089999999996"/>
      <point x="301.1986" y="398.05096" type="curve" smooth="yes"/>
      <point x="323.87347" y="369.19106999999997"/>
      <point x="332.33581" y="331.38856"/>
      <point x="333.25553" y="294.69800999999995" type="curve" smooth="yes"/>
      <point x="334.16024000000004" y="258.60627999999997"/>
      <point x="327.90188" y="221.20074"/>
      <point x="307.88102000000003" y="191.1574999999999" type="curve" smooth="yes"/>
      <point x="297.87059000000005" y="176.13586999999995"/>
      <point x="284.48936000000003" y="163.2250899999999"/>
      <point x="268.58736000000005" y="154.68200999999988" type="curve" smooth="yes"/>
      <point x="252.68535000000006" y="146.13892999999985"/>
      <point x="234.23045000000005" y="142.09394999999984"/>
      <point x="216.30737000000005" y="144.24357999999984" type="curve" smooth="yes"/>
      <point x="198.99707000000004" y="146.31971999999985"/>
      <point x="182.57504000000006" y="154.1113099999999"/>
      <point x="169.28406000000004" y="165.39433999999983" type="curve" smooth="yes"/>
      <point x="155.99307000000005" y="176.6773599999998"/>
      <point x="145.76785000000004" y="191.34897999999987"/>
      <point x="138.74742000000003" y="207.30737999999985" type="curve" smooth="yes"/>
      <point x="124.70656000000004" y="239.22416999999984"/>
      <point x="123.50578000000003" y="275.3625299999999"/>
      <point x="126.79564000000003" y="310.07569999999987" type="curve"/>
    </contour>
    <contour>
      <point x="209.98406" y="556.42298" type="curve" smooth="yes"/>
      <point x="177.38301" y="554.38165"/>
      <point x="145.53506" y="543.40609"/>
      <point x="117.92261" y="525.95478" type="curve" smooth="yes"/>
      <point x="90.31016600000001" y="508.50347"/>
      <point x="66.903594" y="484.68357999999995"/>
      <point x="48.89021500000001" y="457.43447" type="curve" smooth="yes"/>
      <point x="12.863456" y="402.93626"/>
      <point x="-1.0250803" y="335.89696"/>
      <point x="0.79842599" y="270.59262" type="curve" smooth="yes"/>
      <point x="2.587113" y="206.53524000000004"/>
      <point x="19.553038" y="141.63297999999998"/>
      <point x="57.419878" y="89.93530999999996" type="curve" smooth="yes"/>
      <point x="76.353298" y="64.08646999999996"/>
      <point x="100.36344" y="41.81781999999998"/>
      <point x="128.18972" y="25.932770000000005" type="curve" smooth="yes"/>
      <point x="156.016" y="10.047710000000052"/>
      <point x="187.68365" y="0.6512900000000172"/>
      <point x="219.7182" y="0.0" type="curve" smooth="yes"/>
      <point x="266.53848" y="-0.9519000000000233"/>
      <point x="313.46196" y="17.38689999999997"/>
      <point x="347.22902999999997" y="49.83424000000002" type="curve" smooth="yes"/>
      <point x="380.99609999999996" y="82.28158000000008"/>
      <point x="401.19007" y="128.43705"/>
      <point x="402.10454" y="175.25808000000006" type="curve"/>
      <point x="404.8048" y="143.36305000000004"/>
      <point x="402.55172" y="111.05347000000006"/>
      <point x="395.45078" y="79.8419100000001" type="curve" smooth="yes"/>
      <point x="389.11986" y="52.01494000000014"/>
      <point x="378.94302" y="25.065720000000056"/>
      <point x="365.30006000000003" y="1.1368683772161603e-13" type="curve"/>
      <point x="521.57488" y="1.1368683772161603e-13" type="line"/>
      <point x="497.76629" y="90.60553000000016"/>
      <point x="484.05861" y="183.86138000000005"/>
      <point x="480.78723" y="277.4856800000001" type="curve" smooth="yes"/>
      <point x="477.44787" y="373.05558000000013"/>
      <point x="484.98522" y="469.0013300000001"/>
      <point x="503.20716000000004" y="562.87741" type="curve"/>
      <point x="368.58380000000005" y="558.1936900000001" type="line"/>
      <point x="387.18822000000006" y="448.8788400000001" type="line"/>
      <point x="372.2844" y="482.49466"/>
      <point x="346.8913" y="511.36998"/>
      <point x="315.45596" y="530.4478899999999" type="curve" smooth="yes"/>
      <point x="284.02062" y="549.52581"/>
      <point x="246.68374" y="558.72095"/>
    </contour>
  </outline>
</glyph>
<glyph name="b" format="2">
	<unicode hex="0062"/>
	<advance height="1000" width="509"/>
	<outline>
		<contour>
			<point x="374.14258" y="282.87684" type="curve" smooth="yes"/>
			<point x="366.24901" y="301.97885"/>
			<point x="354.53571" y="319.76747"/>
			<point x="338.60183" y="332.93207" type="curve" smooth="yes"/>
			<point x="322.66796" y="346.09667"/>
			<point x="302.31677" y="354.3824"/>
			<point x="281.65252" y="353.95348" type="curve" smooth="yes"/>
			<point x="256.80182" y="353.43766"/>
			<point x="233.13791" y="340.24225"/>
			<point x="217.16857" y="321.19485" type="curve" smooth="yes"/>
			<point x="201.19922" y="302.14744"/>
			<point x="192.4734" y="277.74388"/>
			<point x="189.51046" y="253.06505" type="curve" smooth="yes"/>
			<point x="185.80366" y="222.1905"/>
			<point x="191.08814" y="189.66467"/>
			<point x="207.84611" y="163.47022" type="curve" smooth="yes"/>
			<point x="216.2251" y="150.373"/>
			<point x="227.38614" y="138.99928"/>
			<point x="240.60182" y="130.80842" type="curve" smooth="yes"/>
			<point x="253.81751" y="122.61756"/>
			<point x="269.09495" y="117.66154"/>
			<point x="284.63085" y="117.04472" type="curve" smooth="yes"/>
			<point x="303.30494" y="116.30331"/>
			<point x="322.07068" y="121.8904"/>
			<point x="337.6962" y="132.14294" type="curve" smooth="yes"/>
			<point x="353.32172" y="142.39547"/>
			<point x="365.80956" y="157.1994"/>
			<point x="373.93191" y="174.03088" type="curve" smooth="yes"/>
			<point x="382.05426" y="190.86236"/>
			<point x="385.86414" y="209.66381"/>
			<point x="385.65757" y="228.35147" type="curve" smooth="yes"/>
			<point x="385.451" y="247.03913"/>
			<point x="381.28001" y="265.60465"/>
		</contour>
		<contour>
			<point x="294.36876" y="470.17608" type="curve" smooth="yes"/>
			<point x="340.88856" y="463.46779"/>
			<point x="383.81709" y="438.10903"/>
			<point x="415.08946" y="403.02153" type="curve" smooth="yes"/>
			<point x="446.36182" y="367.93403"/>
			<point x="466.34591" y="323.59448"/>
			<point x="475.79845" y="277.55382" type="curve" smooth="yes"/>
			<point x="488.36102" y="216.36511"/>
			<point x="482.12739" y="150.12682"/>
			<point x="451.21311" y="95.84806" type="curve" smooth="yes"/>
			<point x="435.75597" y="68.70868"/>
			<point x="414.30619" y="44.87062"/>
			<point x="388.35003" y="27.49976" type="curve" smooth="yes"/>
			<point x="362.39387" y="10.1289"/>
			<point x="331.91604" y="-0.66042"/>
			<point x="300.73553" y="-2.46173" type="curve" smooth="yes"/>
			<point x="261.316" y="-4.73901"/>
			<point x="221.21659" y="7.68139"/>
			<point x="189.98588" y="31.84186" type="curve" smooth="yes"/>
			<point x="158.75518" y="56.00233"/>
			<point x="136.6604" y="91.69617"/>
			<point x="128.96283" y="130.42384" type="curve"/>
			<point x="128.71213" y="112.33894"/>
			<point x="130.1072" y="94.23155"/>
			<point x="133.12517" y="76.39848" type="curve" smooth="yes"/>
			<point x="137.58916" y="50.02094"/>
			<point x="145.61474" y="24.24848"/>
			<point x="156.91576" y="0" type="curve"/>
			<point x="0.64093565" y="0" type="line"/>
			<point x="21.669135" y="91.19767"/>
			<point x="35.324033" y="184.09438"/>
			<point x="41.428586" y="277.48568" type="curve" smooth="yes"/>
			<point x="50.755986" y="420.18212"/>
			<point x="42.405095" y="564.02532"/>
			<point x="16.627382" y="704.68372" type="curve"/>
			<point x="151.25075" y="700" type="line"/>
			<point x="127.33045" y="402.84771" type="line"/>
			<point x="146.64371" y="427.66701"/>
			<point x="172.61128" y="447.25791"/>
			<point x="201.77936" y="459.01473" type="curve" smooth="yes"/>
			<point x="230.94743" y="470.77154"/>
			<point x="263.24236" y="474.66459"/>
		</contour>
	</outline>
</glyph>
<glyph name="c" format="2">
	<unicode hex="0063"/>
	<advance height="2048" width="1123"/>
	<outline>
		<contour>
			<point x="584" y="-24" type="curve" smooth="yes"/>
			<point x="781" y="-24"/>
			<point x="1022" y="74"/>
			<point x="1070" y="281" type="curve"/>
			<point x="1071" y="287"/>
			<point x="1074" y="295"/>
			<point x="1074" y="301" type="curve" smooth="yes"/>
			<point x="1074" y="342"/>
			<point x="1003" y="356"/>
			<point x="972" y="356" type="curve" smooth="yes"/>
			<point x="940" y="356"/>
			<point x="877" y="343"/>
			<point x="871" y="306" type="curve" smooth="yes"/>
			<point x="847" y="178"/>
			<point x="717" y="87"/>
			<point x="588" y="87" type="curve" smooth="yes"/>
			<point x="361" y="87"/>
			<point x="252" y="282"/>
			<point x="251" y="482" type="curve" smooth="yes"/>
			<point x="251" y="687"/>
			<point x="366" y="889"/>
			<point x="593" y="889" type="curve" smooth="yes"/>
			<point x="724" y="889"/>
			<point x="850" y="803"/>
			<point x="869" y="671" type="curve" smooth="yes"/>
			<point x="874" y="633"/>
			<point x="938" y="620"/>
			<point x="970" y="620" type="curve" smooth="yes"/>
			<point x="1002" y="620"/>
			<point x="1071" y="635"/>
			<point x="1071" y="675" type="curve" smooth="yes"/>
			<point x="1071" y="681"/>
			<point x="1070" y="685"/>
			<point x="1069" y="691" type="curve" smooth="yes"/>
			<point x="1032" y="900"/>
			<point x="791" y="1000"/>
			<point x="594" y="1000" type="curve" smooth="yes"/>
			<point x="280" y="1000"/>
			<point x="49" y="807"/>
			<point x="49" y="484" type="curve" smooth="yes"/>
			<point x="49" y="162"/>
			<point x="271" y="-24"/>
		</contour>
	</outline>
</glyph>
<glyph name="d" format="2">
	<unicode hex="0064"/>
	<advance height="2048" width="1174"/>
	<outline>
		<contour>
			<point x="972" y="-24" type="curve" smooth="yes"/>
			<point x="1005" y="-24"/>
			<point x="1074" y="-10"/>
			<point x="1074" y="32" type="curve" smooth="yes"/>
			<point x="1074" y="1325" type="line" smooth="yes"/>
			<point x="1074" y="1367"/>
			<point x="1005" y="1381"/>
			<point x="972" y="1381" type="curve" smooth="yes"/>
			<point x="940" y="1381"/>
			<point x="871" y="1367"/>
			<point x="871" y="1325" type="curve" smooth="yes"/>
			<point x="871" y="885" type="line"/>
			<point x="791" y="965"/>
			<point x="675" y="1001"/>
			<point x="562" y="1001" type="curve" smooth="yes"/>
			<point x="253" y="1001"/>
			<point x="50" y="790"/>
			<point x="50" y="489" type="curve" smooth="yes"/>
			<point x="50" y="188"/>
			<point x="253" y="-23"/>
			<point x="562" y="-23" type="curve" smooth="yes"/>
			<point x="675" y="-23"/>
			<point x="791" y="12"/>
			<point x="871" y="93" type="curve"/>
			<point x="871" y="32" type="line" smooth="yes"/>
			<point x="871" y="-10"/>
			<point x="940" y="-24"/>
		</contour>
		<contour>
			<point x="562" y="89" type="curve" smooth="yes"/>
			<point x="352" y="89"/>
			<point x="253" y="310"/>
			<point x="253" y="489" type="curve" smooth="yes"/>
			<point x="253" y="668"/>
			<point x="352" y="889"/>
			<point x="562" y="889" type="curve" smooth="yes"/>
			<point x="772" y="889"/>
			<point x="871" y="668"/>
			<point x="871" y="489" type="curve" smooth="yes"/>
			<point x="871" y="310"/>
			<point x="772" y="89"/>
		</contour>
	</outline>
</glyph>
<glyph name="e" format="2">
	<unicode hex="0065"/>
	<advance height="2048" width="1186"/>
	<outline>
		<contour>
			<point x="589" y="-24" type="curve" smooth="yes"/>
			<point x="717" y="-24"/>
			<point x="852" y="8"/>
			<point x="959" y="78" type="curve" smooth="yes"/>
			<point x="1017" y="116"/>
			<point x="1073" y="170"/>
			<point x="1100" y="234" type="curve" smooth="yes"/>
			<point x="1108" y="253"/>
			<point x="1117" y="281"/>
			<point x="1117" y="302" type="curve" smooth="yes"/>
			<point x="1117" y="343"/>
			<point x="1046" y="357"/>
			<point x="1014" y="357" type="curve" smooth="yes"/>
			<point x="983" y="357"/>
			<point x="919" y="343"/>
			<point x="915" y="305" type="curve" smooth="yes"/>
			<point x="908" y="239"/>
			<point x="857" y="184"/>
			<point x="803" y="149" type="curve" smooth="yes"/>
			<point x="740" y="109"/>
			<point x="665" y="87"/>
			<point x="590" y="87" type="curve" smooth="yes"/>
			<point x="377" y="87"/>
			<point x="254" y="278"/>
			<point x="252" y="475" type="curve"/>
			<point x="1035" y="475" type="line" smooth="yes"/>
			<point x="1078" y="475"/>
			<point x="1136" y="487"/>
			<point x="1136" y="539" type="curve" smooth="yes"/>
			<point x="1136" y="845"/>
			<point x="891" y="1000"/>
			<point x="598" y="1000" type="curve" smooth="yes"/>
			<point x="290" y="1000"/>
			<point x="50" y="800"/>
			<point x="50" y="482" type="curve" smooth="yes"/>
			<point x="50" y="168"/>
			<point x="286" y="-24"/>
		</contour>
		<contour>
			<point x="931" y="586" type="curve"/>
			<point x="264" y="586" type="line"/>
			<point x="300" y="751"/>
			<point x="420" y="889"/>
			<point x="598" y="889" type="curve" smooth="yes"/>
			<point x="787" y="889"/>
			<point x="912" y="767"/>
		</contour>
	</outline>
</glyph>
<glyph name="f" format="2">
	<unicode hex="0066"/>
	<advance height="2048" width="806"/>
	<outline>
		<contour>
			<point x="336" y="-24" type="curve" smooth="yes"/>
			<point x="368" y="-24"/>
			<point x="437" y="-10"/>
			<point x="437" y="32" type="curve" smooth="yes"/>
			<point x="437" y="889" type="line"/>
			<point x="608" y="889" type="line" smooth="yes"/>
			<point x="640" y="889"/>
			<point x="710" y="903"/>
			<point x="710" y="945" type="curve" smooth="yes"/>
			<point x="710" y="987"/>
			<point x="640" y="1001"/>
			<point x="608" y="1001" type="curve" smooth="yes"/>
			<point x="437" y="1001" type="line"/>
			<point x="437" y="1105" type="line" smooth="yes"/>
			<point x="437" y="1194"/>
			<point x="470" y="1269"/>
			<point x="572" y="1269" type="curve" smooth="yes"/>
			<point x="609" y="1269"/>
			<point x="642" y="1258"/>
			<point x="676" y="1258" type="curve" smooth="yes"/>
			<point x="710" y="1258"/>
			<point x="782" y="1272"/>
			<point x="782" y="1316" type="curve" smooth="yes"/>
			<point x="782" y="1348"/>
			<point x="726" y="1365"/>
			<point x="698" y="1370" type="curve" smooth="yes"/>
			<point x="656" y="1377"/>
			<point x="614" y="1381"/>
			<point x="570" y="1381" type="curve" smooth="yes"/>
			<point x="387" y="1380"/>
			<point x="234" y="1303"/>
			<point x="234" y="1105" type="curve" smooth="yes"/>
			<point x="234" y="1001" type="line"/>
			<point x="125" y="1001" type="line" smooth="yes"/>
			<point x="93" y="1001"/>
			<point x="24" y="987"/>
			<point x="24" y="945" type="curve" smooth="yes"/>
			<point x="24" y="903"/>
			<point x="93" y="889"/>
			<point x="125" y="889" type="curve" smooth="yes"/>
			<point x="234" y="889" type="line"/>
			<point x="234" y="32" type="line" smooth="yes"/>
			<point x="234" y="-10"/>
			<point x="303" y="-24"/>
		</contour>
	</outline>
</glyph>
<glyph name="h" format="2">
	<unicode hex="0068"/>
	<advance height="2048" width="1110"/>
	<outline>
		<contour>
			<point x="958" y="-24" type="curve" smooth="yes"/>
			<point x="991" y="-24"/>
			<point x="1060" y="-10"/>
			<point x="1060" y="32" type="curve" smooth="yes"/>
			<point x="1060" y="551" type="line" smooth="yes"/>
			<point x="1060" y="810"/>
			<point x="869" y="1000"/>
			<point x="603" y="1000" type="curve" smooth="yes"/>
			<point x="494" y="1000"/>
			<point x="378" y="963"/>
			<point x="303" y="883" type="curve"/>
			<point x="303" y="1325" type="line" smooth="yes"/>
			<point x="303" y="1367"/>
			<point x="234" y="1381"/>
			<point x="202" y="1381" type="curve" smooth="yes"/>
			<point x="169" y="1381"/>
			<point x="100" y="1367"/>
			<point x="100" y="1325" type="curve" smooth="yes"/>
			<point x="100" y="32" type="line" smooth="yes"/>
			<point x="100" y="-10"/>
			<point x="169" y="-24"/>
			<point x="202" y="-24" type="curve" smooth="yes"/>
			<point x="234" y="-24"/>
			<point x="303" y="-10"/>
			<point x="303" y="32" type="curve" smooth="yes"/>
			<point x="303" y="523" type="line" smooth="yes"/>
			<point x="303" y="690"/>
			<point x="394" y="887"/>
			<point x="591" y="887" type="curve" smooth="yes"/>
			<point x="775" y="887"/>
			<point x="857" y="706"/>
			<point x="857" y="550" type="curve" smooth="yes"/>
			<point x="857" y="32" type="line" smooth="yes"/>
			<point x="857" y="-10"/>
			<point x="926" y="-24"/>
		</contour>
	</outline>
</glyph>
<glyph name="i" format="2">
	<unicode hex="0069"/>
	<advance height="2048" width="355"/>
	<outline>
		<contour>
			<point x="178" y="1088" type="curve" smooth="yes"/>
			<point x="231" y="1088"/>
			<point x="280" y="1129"/>
			<point x="280" y="1190" type="curve" smooth="yes"/>
			<point x="280" y="1252"/>
			<point x="231" y="1293"/>
			<point x="178" y="1293" type="curve" smooth="yes"/>
			<point x="124" y="1293"/>
			<point x="75" y="1252"/>
			<point x="75" y="1190" type="curve" smooth="yes"/>
			<point x="75" y="1129"/>
			<point x="124" y="1088"/>
		</contour>
		<contour>
			<point x="178" y="-24" type="curve" smooth="yes"/>
			<point x="210" y="-24"/>
			<point x="279" y="-10"/>
			<point x="279" y="32" type="curve" smooth="yes"/>
			<point x="279" y="944" type="line" smooth="yes"/>
			<point x="279" y="986"/>
			<point x="210" y="1000"/>
			<point x="178" y="1000" type="curve" smooth="yes"/>
			<point x="145" y="1000"/>
			<point x="76" y="986"/>
			<point x="76" y="944" type="curve" smooth="yes"/>
			<point x="76" y="32" type="line" smooth="yes"/>
			<point x="76" y="-10"/>
			<point x="145" y="-24"/>
		</contour>
	</outline>
</glyph>
<glyph name="k" format="2">
	<unicode hex="006B"/>
	<advance height="2048" width="1108"/>
	<outline>
		<contour>
			<point x="964" y="-24" type="curve" smooth="yes"/>
			<point x="982" y="-24"/>
			<point x="999" y="-22"/>
			<point x="1013" y="-19" type="curve" smooth="yes"/>
			<point x="1040" y="-13"/>
			<point x="1084" y="8"/>
			<point x="1084" y="36" type="curve" smooth="yes"/>
			<point x="1084" y="44"/>
			<point x="1080" y="52"/>
			<point x="1072" y="61" type="curve" smooth="yes"/>
			<point x="586" y="579" type="line"/>
			<point x="1011" y="931" type="line" smooth="yes"/>
			<point x="1020" y="939"/>
			<point x="1024" y="947"/>
			<point x="1024" y="954" type="curve" smooth="yes"/>
			<point x="1024" y="973"/>
			<point x="999" y="988"/>
			<point x="978" y="994" type="curve" smooth="yes"/>
			<point x="965" y="998"/>
			<point x="949" y="1000"/>
			<point x="933" y="1000" type="curve" smooth="yes"/>
			<point x="904" y="1000"/>
			<point x="874" y="994"/>
			<point x="856" y="978" type="curve" smooth="yes"/>
			<point x="303" y="517" type="line"/>
			<point x="303" y="1325" type="line" smooth="yes"/>
			<point x="303" y="1367"/>
			<point x="233" y="1381"/>
			<point x="201" y="1381" type="curve" smooth="yes"/>
			<point x="168" y="1381"/>
			<point x="99" y="1367"/>
			<point x="99" y="1325" type="curve" smooth="yes"/>
			<point x="99" y="32" type="line" smooth="yes"/>
			<point x="99" y="-10"/>
			<point x="168" y="-24"/>
			<point x="201" y="-24" type="curve" smooth="yes"/>
			<point x="233" y="-24"/>
			<point x="303" y="-10"/>
			<point x="303" y="32" type="curve" smooth="yes"/>
			<point x="303" y="340" type="line"/>
			<point x="439" y="454" type="line"/>
			<point x="855" y="10" type="line" smooth="yes"/>
			<point x="877" y="-14"/>
			<point x="923" y="-24"/>
		</contour>
	</outline>
</glyph>
<glyph name="l" format="2">
	<unicode hex="006C"/>
	<advance height="2048" width="353"/>
	<outline>
		<contour>
			<point x="177" y="-24" type="curve" smooth="yes"/>
			<point x="209" y="-24"/>
			<point x="278" y="-10"/>
			<point x="278" y="32" type="curve" smooth="yes"/>
			<point x="278" y="1325" type="line" smooth="yes"/>
			<point x="278" y="1367"/>
			<point x="209" y="1381"/>
			<point x="177" y="1381" type="curve" smooth="yes"/>
			<point x="144" y="1381"/>
			<point x="75" y="1367"/>
			<point x="75" y="1325" type="curve" smooth="yes"/>
			<point x="75" y="32" type="line" smooth="yes"/>
			<point x="75" y="-10"/>
			<point x="144" y="-24"/>
		</contour>
	</outline>
</glyph>
<glyph name="m" format="2">
	<unicode hex="006D"/>
	<advance height="2048" width="1765"/>
	<outline>
		<contour>
			<point x="1563" y="-24" type="curve" smooth="yes"/>
			<point x="1596" y="-24"/>
			<point x="1665" y="-10"/>
			<point x="1665" y="32" type="curve" smooth="yes"/>
			<point x="1665" y="552" type="line" smooth="yes"/>
			<point x="1665" y="812"/>
			<point x="1493" y="1000"/>
			<point x="1223" y="1000" type="curve" smooth="yes"/>
			<point x="1092" y="1000"/>
			<point x="967" y="954"/>
			<point x="883" y="853" type="curve"/>
			<point x="798" y="954"/>
			<point x="695" y="1000"/>
			<point x="564" y="1000" type="curve" smooth="yes"/>
			<point x="478" y="1000"/>
			<point x="380" y="975"/>
			<point x="303" y="883" type="curve"/>
			<point x="303" y="944" type="line" smooth="yes"/>
			<point x="303" y="986"/>
			<point x="234" y="1000"/>
			<point x="202" y="1000" type="curve" smooth="yes"/>
			<point x="169" y="1000"/>
			<point x="100" y="986"/>
			<point x="100" y="944" type="curve" smooth="yes"/>
			<point x="100" y="32" type="line" smooth="yes"/>
			<point x="100" y="-10"/>
			<point x="169" y="-24"/>
			<point x="202" y="-24" type="curve" smooth="yes"/>
			<point x="234" y="-24"/>
			<point x="303" y="-10"/>
			<point x="303" y="32" type="curve" smooth="yes"/>
			<point x="303" y="553" type="line" smooth="yes"/>
			<point x="303" y="630"/>
			<point x="318" y="716"/>
			<point x="359" y="783" type="curve" smooth="yes"/>
			<point x="400" y="850"/>
			<point x="461" y="886"/>
			<point x="541" y="886" type="curve" smooth="yes"/>
			<point x="726" y="886"/>
			<point x="782" y="702"/>
			<point x="782" y="552" type="curve" smooth="yes"/>
			<point x="782" y="32" type="line" smooth="yes"/>
			<point x="782" y="-10"/>
			<point x="851" y="-24"/>
			<point x="883" y="-24" type="curve" smooth="yes"/>
			<point x="915" y="-24"/>
			<point x="985" y="-10"/>
			<point x="985" y="32" type="curve" smooth="yes"/>
			<point x="985" y="553" type="line" smooth="yes"/>
			<point x="985" y="699"/>
			<point x="1039" y="886"/>
			<point x="1222" y="886" type="curve" smooth="yes"/>
			<point x="1406" y="886"/>
			<point x="1462" y="702"/>
			<point x="1462" y="552" type="curve" smooth="yes"/>
			<point x="1462" y="32" type="line" smooth="yes"/>
			<point x="1462" y="-10"/>
			<point x="1531" y="-24"/>
		</contour>
	</outline>
</glyph>
<glyph name="n" format="2">
  <advance height="1000" width="420"/>
  <unicode hex="006E"/>
  <outline>
    <contour>
      <point x="550.15089" y="1.64029000000005" type="curve"/>
      <point x="397.73298" y="3.695790000000102" type="line"/>
      <point x="395.18903" y="58.38138000000015"/>
      <point x="397.03712" y="113.27068000000008"/>
      <point x="403.25363" y="167.6613000000001" type="curve" smooth="yes"/>
      <point x="411.37073" y="238.68100000000004"/>
      <point x="426.84172" y="311.2653100000001"/>
      <point x="409.86647999999997" y="380.7025100000001" type="curve" smooth="yes"/>
      <point x="401.37886" y="415.4211200000001"/>
      <point x="384.36870999999996" y="448.7008300000001"/>
      <point x="357.78562" y="472.5914200000001" type="curve" smooth="yes"/>
      <point x="344.49408" y="484.53672000000006"/>
      <point x="328.9161" y="494.0185800000001"/>
      <point x="311.99315" y="499.7604400000001" type="curve" smooth="yes"/>
      <point x="295.07019" y="505.50230000000005"/>
      <point x="276.80066" y="507.4542800000001"/>
      <point x="259.12617" y="504.81466000000006" type="curve" smooth="yes"/>
      <point x="236.29707" y="501.40522000000004"/>
      <point x="214.90798" y="490.37503000000004"/>
      <point x="197.74324000000001" y="474.94246000000004" type="curve" smooth="yes"/>
      <point x="180.57851000000002" y="459.5099"/>
      <point x="167.52624000000003" y="439.81128"/>
      <point x="158.42794" y="418.59778000000006" type="curve" smooth="yes"/>
      <point x="140.23132" y="376.1707600000001"/>
      <point x="137.78923" y="328.78398000000004"/>
      <point x="138.21757" y="282.62139" type="curve" smooth="yes"/>
      <point x="139.09337" y="188.23585000000003"/>
      <point x="150.91807" y="93.95636000000002"/>
      <point x="173.37874" y="2.2780299999999443" type="curve"/>
      <point x="10.85508128" y="0.009199999999964348" type="line"/>
      <point x="29.43748" y="68.74923999999999"/>
      <point x="42.381154" y="139.0127"/>
      <point x="49.513391" y="209.86203999999998" type="curve" smooth="yes"/>
      <point x="59.813386" y="312.17887"/>
      <point x="57.959084" y="415.76153"/>
      <point x="43.221401" y="517.53394" type="curve" smooth="yes"/>
      <point x="38.235985" y="551.96118"/>
      <point x="31.782938" y="586.17587"/>
      <point x="23.885661" y="620.0539200000001" type="curve"/>
      <point x="137.03211" y="620.0539200000001" type="line"/>
      <point x="123.18621" y="485.36069" type="line"/>
      <point x="136.08354" y="537.05753"/>
      <point x="174.96861" y="581.56518"/>
      <point x="224.46627" y="601.28536" type="curve" smooth="yes"/>
      <point x="253.69821000000002" y="612.93155"/>
      <point x="286.10862000000003" y="616.1833399999999"/>
      <point x="317.20702" y="611.38444" type="curve" smooth="yes"/>
      <point x="348.30542" y="606.58554"/>
      <point x="378.04559" y="593.82869"/>
      <point x="403.45158000000004" y="575.26324" type="curve" smooth="yes"/>
      <point x="454.26354000000003" y="538.13233"/>
      <point x="486.40492000000006" y="478.39234"/>
      <point x="495.59988000000004" y="416.13471" type="curve" smooth="yes"/>
      <point x="504.81409" y="353.74674999999996"/>
      <point x="492.47146000000004" y="290.50496"/>
      <point x="486.3806" y="227.73505" type="curve" smooth="yes"/>
      <point x="483.33517" y="196.3501"/>
      <point x="481.85914" y="164.64944000000003"/>
      <point x="485.43185" y="133.32013000000006" type="curve" smooth="yes"/>
      <point x="489.00455999999997" y="101.9908200000001"/>
      <point x="497.78964" y="70.91883000000007"/>
      <point x="514.14017" y="43.95682000000011" type="curve" smooth="yes"/>
      <point x="523.78529" y="28.052020000000084"/>
      <point x="535.9939" y="13.70557000000008"/>
    </contour>
  </outline>
</glyph>
<glyph name="o" format="2">
	<unicode hex="006F"/>
	<advance height="2048" width="1190"/>
	<outline>
		<contour>
			<point x="595" y="-24" type="curve" smooth="yes"/>
			<point x="907" y="-24"/>
			<point x="1140" y="176"/>
			<point x="1140" y="488" type="curve" smooth="yes"/>
			<point x="1140" y="800"/>
			<point x="907" y="1000"/>
			<point x="595" y="1000" type="curve" smooth="yes"/>
			<point x="283" y="1000"/>
			<point x="50" y="800"/>
			<point x="50" y="488" type="curve" smooth="yes"/>
			<point x="50" y="176"/>
			<point x="283" y="-24"/>
		</contour>
		<contour>
			<point x="595" y="87" type="curve" smooth="yes"/>
			<point x="373" y="87"/>
			<point x="253" y="290"/>
			<point x="253" y="488" type="curve" smooth="yes"/>
			<point x="253" y="686"/>
			<point x="373" y="889"/>
			<point x="595" y="889" type="curve" smooth="yes"/>
			<point x="817" y="889"/>
			<point x="937" y="686"/>
			<point x="937" y="488" type="curve" smooth="yes"/>
			<point x="937" y="290"/>
			<point x="817" y="87"/>
		</contour>
	</outline>
</glyph>
<glyph name="p" format="2">
	<unicode hex="0070"/>
	<advance height="2048" width="1174"/>
	<outline>
		<contour>
			<point x="202" y="-404" type="curve" smooth="yes"/>
			<point x="234" y="-404"/>
			<point x="303" y="-390"/>
			<point x="303" y="-348" type="curve" smooth="yes"/>
			<point x="303" y="92" type="line"/>
			<point x="383" y="12"/>
			<point x="499" y="-24"/>
			<point x="612" y="-24" type="curve" smooth="yes"/>
			<point x="921" y="-24"/>
			<point x="1124" y="187"/>
			<point x="1124" y="488" type="curve" smooth="yes"/>
			<point x="1124" y="789"/>
			<point x="921" y="1000"/>
			<point x="612" y="1000" type="curve" smooth="yes"/>
			<point x="499" y="1000"/>
			<point x="383" y="965"/>
			<point x="303" y="884" type="curve"/>
			<point x="303" y="945" type="line" smooth="yes"/>
			<point x="303" y="987"/>
			<point x="234" y="1001"/>
			<point x="202" y="1001" type="curve" smooth="yes"/>
			<point x="169" y="1001"/>
			<point x="100" y="987"/>
			<point x="100" y="945" type="curve" smooth="yes"/>
			<point x="100" y="-348" type="line" smooth="yes"/>
			<point x="100" y="-390"/>
			<point x="169" y="-404"/>
		</contour>
		<contour>
			<point x="612" y="88" type="curve" smooth="yes"/>
			<point x="402" y="88"/>
			<point x="303" y="309"/>
			<point x="303" y="488" type="curve" smooth="yes"/>
			<point x="303" y="667"/>
			<point x="402" y="888"/>
			<point x="612" y="888" type="curve" smooth="yes"/>
			<point x="822" y="888"/>
			<point x="921" y="667"/>
			<point x="921" y="488" type="curve" smooth="yes"/>
			<point x="921" y="309"/>
			<point x="822" y="88"/>
		</contour>
	</outline>
</glyph>
<glyph name="r" format="2">
	<unicode hex="0072"/>
	<advance height="2048" width="804"/>
	<outline>
		<contour>
			<point x="202" y="-24" type="curve" smooth="yes"/>
			<point x="234" y="-24"/>
			<point x="303" y="-10"/>
			<point x="303" y="32" type="curve" smooth="yes"/>
			<point x="303" y="513" type="line" smooth="yes"/>
			<point x="303" y="598"/>
			<point x="312" y="692"/>
			<point x="350" y="769" type="curve" smooth="yes"/>
			<point x="383" y="837"/>
			<point x="439" y="891"/>
			<point x="525" y="891" type="curve" smooth="yes"/>
			<point x="563" y="891"/>
			<point x="601" y="877"/>
			<point x="630" y="854" type="curve" smooth="yes"/>
			<point x="645" y="843"/>
			<point x="665" y="837"/>
			<point x="685" y="837" type="curve" smooth="yes"/>
			<point x="707" y="837"/>
			<point x="729" y="844"/>
			<point x="747" y="856" type="curve" smooth="yes"/>
			<point x="767" y="869"/>
			<point x="779" y="887"/>
			<point x="779" y="905" type="curve" smooth="yes"/>
			<point x="779" y="918"/>
			<point x="771" y="932"/>
			<point x="754" y="943" type="curve" smooth="yes"/>
			<point x="689" y="985"/>
			<point x="622" y="1000"/>
			<point x="545" y="1000" type="curve" smooth="yes"/>
			<point x="451" y="1000"/>
			<point x="358" y="961"/>
			<point x="303" y="883" type="curve"/>
			<point x="303" y="944" type="line" smooth="yes"/>
			<point x="303" y="986"/>
			<point x="234" y="1000"/>
			<point x="202" y="1000" type="curve" smooth="yes"/>
			<point x="169" y="1000"/>
			<point x="100" y="986"/>
			<point x="100" y="944" type="curve" smooth="yes"/>
			<point x="100" y="32" type="line" smooth="yes"/>
			<point x="100" y="-10"/>
			<point x="169" y="-24"/>
		</contour>
	</outline>
</glyph>
<glyph name="s" format="2">
	<unicode hex="0073"/>
	<advance height="2048" width="996"/>
	<outline>
		<contour>
			<point x="503" y="-24" type="curve" smooth="yes"/>
			<point x="685" y="-24"/>
			<point x="946" y="67"/>
			<point x="946" y="288" type="curve" smooth="yes"/>
			<point x="946" y="384"/>
			<point x="902" y="449"/>
			<point x="823" y="499" type="curve" smooth="yes"/>
			<point x="731" y="557"/>
			<point x="634" y="568"/>
			<point x="528" y="584" type="curve" smooth="yes"/>
			<point x="476" y="592"/>
			<point x="422" y="604"/>
			<point x="373" y="623" type="curve" smooth="yes"/>
			<point x="333" y="639"/>
			<point x="277" y="669"/>
			<point x="277" y="719" type="curve" smooth="yes"/>
			<point x="277" y="835"/>
			<point x="404" y="889"/>
			<point x="504" y="889" type="curve" smooth="yes"/>
			<point x="609" y="889"/>
			<point x="692" y="830"/>
			<point x="717" y="728" type="curve" smooth="yes"/>
			<point x="726" y="692"/>
			<point x="786" y="680"/>
			<point x="818" y="680" type="curve" smooth="yes"/>
			<point x="849" y="681"/>
			<point x="919" y="695"/>
			<point x="919" y="734" type="curve" smooth="yes"/>
			<point x="919" y="740"/>
			<point x="918" y="745"/>
			<point x="916" y="751" type="curve"/>
			<point x="868" y="928"/>
			<point x="678" y="1000"/>
			<point x="505" y="1000" type="curve" smooth="yes"/>
			<point x="336" y="1000"/>
			<point x="75" y="922"/>
			<point x="75" y="717" type="curve" smooth="yes"/>
			<point x="75" y="625"/>
			<point x="125" y="553"/>
			<point x="200" y="503" type="curve" smooth="yes"/>
			<point x="292" y="442"/>
			<point x="395" y="433"/>
			<point x="502" y="418" type="curve" smooth="yes"/>
			<point x="553" y="411"/>
			<point x="609" y="400"/>
			<point x="657" y="379" type="curve" smooth="yes"/>
			<point x="698" y="361"/>
			<point x="744" y="332"/>
			<point x="744" y="282" type="curve" smooth="yes"/>
			<point x="744" y="157"/>
			<point x="612" y="87"/>
			<point x="502" y="87" type="curve" smooth="yes"/>
			<point x="376" y="87"/>
			<point x="285" y="158"/>
			<point x="252" y="281" type="curve" smooth="yes"/>
			<point x="243" y="316"/>
			<point x="183" y="328"/>
			<point x="151" y="328" type="curve" smooth="yes"/>
			<point x="120" y="328"/>
			<point x="50" y="313"/>
			<point x="50" y="273" type="curve" smooth="yes"/>
			<point x="50" y="267"/>
			<point x="52" y="261"/>
			<point x="54" y="255" type="curve" smooth="yes"/>
			<point x="113" y="57"/>
			<point x="306" y="-24"/>
		</contour>
	</outline>
</glyph>
<glyph name="t" format="2">
	<unicode hex="0074"/>
	<advance height="2048" width="809"/>
	<outline>
		<contour>
			<point x="574" y="-24" type="curve" smooth="yes"/>
			<point x="616" y="-24"/>
			<point x="659" y="-20"/>
			<point x="701" y="-13" type="curve" smooth="yes"/>
			<point x="729" y="-8"/>
			<point x="785" y="9"/>
			<point x="785" y="41" type="curve" smooth="yes"/>
			<point x="785" y="85"/>
			<point x="713" y="99"/>
			<point x="680" y="99" type="curve" smooth="yes"/>
			<point x="645" y="99"/>
			<point x="612" y="88"/>
			<point x="575" y="88" type="curve" smooth="yes"/>
			<point x="473" y="88"/>
			<point x="441" y="163"/>
			<point x="441" y="252" type="curve" smooth="yes"/>
			<point x="441" y="888" type="line"/>
			<point x="609" y="888" type="line" smooth="yes"/>
			<point x="641" y="888"/>
			<point x="711" y="902"/>
			<point x="711" y="944" type="curve" smooth="yes"/>
			<point x="711" y="986"/>
			<point x="640" y="1000"/>
			<point x="609" y="1000" type="curve" smooth="yes"/>
			<point x="441" y="1000" type="line"/>
			<point x="441" y="1325" type="line" smooth="yes"/>
			<point x="441" y="1367"/>
			<point x="371" y="1381"/>
			<point x="339" y="1381" type="curve" smooth="yes"/>
			<point x="307" y="1381"/>
			<point x="237" y="1367"/>
			<point x="237" y="1325" type="curve" smooth="yes"/>
			<point x="237" y="1000" type="line"/>
			<point x="125" y="1000" type="line" smooth="yes"/>
			<point x="93" y="1000"/>
			<point x="24" y="986"/>
			<point x="24" y="944" type="curve" smooth="yes"/>
			<point x="24" y="902"/>
			<point x="93" y="888"/>
			<point x="125" y="888" type="curve" smooth="yes"/>
			<point x="237" y="888" type="line"/>
			<point x="237" y="252" type="line" smooth="yes"/>
			<point x="237" y="54"/>
			<point x="390" y="-23"/>
		</contour>
	</outline>
</glyph>
<glyph name="v" format="2">
	<unicode hex="0076"/>
	<advance height="2048" width="1076"/>
	<outline>
		<contour>
			<point x="539" y="-24" type="curve" smooth="yes"/>
			<point x="569" y="-24"/>
			<point x="632" y="-12"/>
			<point x="645" y="18" type="curve" smooth="yes"/>
			<point x="1050" y="952" type="line"/>
			<point x="1051" y="956"/>
			<point x="1052" y="959"/>
			<point x="1052" y="962" type="curve" smooth="yes"/>
			<point x="1052" y="986"/>
			<point x="1012" y="999"/>
			<point x="972" y="999" type="curve" smooth="yes"/>
			<point x="938" y="999"/>
			<point x="904" y="990"/>
			<point x="895" y="969" type="curve" smooth="yes"/>
			<point x="565" y="209" type="line"/>
			<point x="234" y="958" type="line" smooth="yes"/>
			<point x="222" y="986"/>
			<point x="178" y="999"/>
			<point x="133" y="999" type="curve" smooth="yes"/>
			<point x="79" y="999"/>
			<point x="24" y="981"/>
			<point x="24" y="948" type="curve" smooth="yes"/>
			<point x="24" y="944"/>
			<point x="25" y="940"/>
			<point x="27" y="935" type="curve" smooth="yes"/>
			<point x="432" y="18" type="line" smooth="yes"/>
			<point x="447" y="-16"/>
			<point x="507" y="-24"/>
		</contour>
	</outline>
</glyph>
<glyph name="w" format="2">
  <advance height="2048" width="1641"/>
  <unicode hex="0077"/>
  <outline>
    <contour>
      <point x="1017.9399999999999" y="160.31999999999994" type="curve" smooth="yes"/>
      <point x="1039.6999999999998" y="160.31999999999994"/>
      <point x="1078.7399999999998" y="166.71999999999994"/>
      <point x="1087.6999999999998" y="189.11999999999995" type="curve" smooth="yes"/>
      <point x="1327.06" y="782.4000000000001" type="line"/>
      <point x="1328.34" y="784.96"/>
      <point x="1329.6200000000001" y="788.1600000000001"/>
      <point x="1329.6200000000001" y="790.72" type="curve" smooth="yes"/>
      <point x="1329.6200000000001" y="806.72"/>
      <point x="1303.3799999999999" y="815.6799999999998"/>
      <point x="1277.78" y="815.6799999999998" type="curve" smooth="yes"/>
      <point x="1256.0199999999998" y="815.6799999999998"/>
      <point x="1235.54" y="809.28"/>
      <point x="1229.78" y="795.2" type="curve" smooth="yes"/>
      <point x="1044.1799999999998" y="336.31999999999994" type="line"/>
      <point x="907.2199999999999" y="786.24" type="line" smooth="yes"/>
      <point x="900.1799999999998" y="809.28"/>
      <point x="861.1399999999999" y="815.04"/>
      <point x="840.6599999999999" y="815.04" type="curve" smooth="yes"/>
      <point x="820.1799999999998" y="815.04"/>
      <point x="778.5799999999999" y="809.28"/>
      <point x="771.5399999999998" y="786.24" type="curve" smooth="yes"/>
      <point x="629.4599999999998" y="335.03999999999996" type="line"/>
      <point x="445.77999999999986" y="788.1600000000001" type="line" smooth="yes"/>
      <point x="438.09999999999985" y="806.72"/>
      <point x="408.65999999999985" y="815.6799999999998"/>
      <point x="379.21999999999986" y="815.6799999999998" type="curve" smooth="yes"/>
      <point x="345.29999999999984" y="815.6799999999998"/>
      <point x="311.3799999999999" y="803.52"/>
      <point x="311.3799999999999" y="782.4000000000001" type="curve" smooth="yes"/>
      <point x="311.3799999999999" y="777.28"/>
      <point x="312.01999999999987" y="776.0"/>
      <point x="313.9399999999998" y="771.52" type="curve" smooth="yes"/>
      <point x="550.7399999999999" y="187.83999999999995" type="line" smooth="yes"/>
      <point x="559.6999999999998" y="166.07999999999993"/>
      <point x="596.1799999999998" y="160.31999999999994"/>
      <point x="617.3" y="160.31999999999994" type="curve" smooth="yes"/>
      <point x="638.4199999999998" y="160.31999999999994"/>
      <point x="678.0999999999999" y="166.71999999999994"/>
      <point x="685.7799999999999" y="190.39999999999995" type="curve" smooth="yes"/>
      <point x="821.4599999999999" y="618.56" type="line"/>
      <point x="951.3799999999999" y="189.11999999999995" type="line" smooth="yes"/>
      <point x="958.42" y="166.07999999999993"/>
      <point x="997.4599999999998" y="160.31999999999994"/>
    </contour>
  </outline>
</glyph>
<glyph name="x" format="2">
	<unicode hex="0078"/>
	<advance height="2048" width="1045"/>
	<outline>
		<contour>
			<point x="911" y="-24" type="curve" smooth="yes"/>
			<point x="926" y="-24"/>
			<point x="940" y="-22"/>
			<point x="951" y="-20" type="curve" smooth="yes"/>
			<point x="976" y="-15"/>
			<point x="1020" y="4"/>
			<point x="1020" y="30" type="curve" smooth="yes"/>
			<point x="1020" y="37"/>
			<point x="1018" y="44"/>
			<point x="1011" y="52" type="curve" smooth="yes"/>
			<point x="628" y="505" type="line"/>
			<point x="1011" y="941" type="line" smooth="yes"/>
			<point x="1016" y="947"/>
			<point x="1018" y="952"/>
			<point x="1018" y="957" type="curve" smooth="yes"/>
			<point x="1018" y="978"/>
			<point x="984" y="992"/>
			<point x="965" y="996" type="curve" smooth="yes"/>
			<point x="956" y="998"/>
			<point x="945" y="999"/>
			<point x="934" y="999" type="curve" smooth="yes"/>
			<point x="905" y="999"/>
			<point x="873" y="992"/>
			<point x="857" y="974" type="curve" smooth="yes"/>
			<point x="537" y="612" type="line"/>
			<point x="237" y="966" type="line" smooth="yes"/>
			<point x="216" y="990"/>
			<point x="173" y="1000"/>
			<point x="135" y="1000" type="curve" smooth="yes"/>
			<point x="120" y="1000"/>
			<point x="106" y="999"/>
			<point x="94" y="996" type="curve" smooth="yes"/>
			<point x="69" y="991"/>
			<point x="25" y="972"/>
			<point x="25" y="946" type="curve" smooth="yes"/>
			<point x="25" y="939"/>
			<point x="27" y="932"/>
			<point x="34" y="924" type="curve" smooth="yes"/>
			<point x="417" y="471" type="line"/>
			<point x="34" y="35" type="line" smooth="yes"/>
			<point x="29" y="29"/>
			<point x="27" y="23"/>
			<point x="27" y="18" type="curve" smooth="yes"/>
			<point x="27" y="-3"/>
			<point x="61" y="-17"/>
			<point x="80" y="-21" type="curve" smooth="yes"/>
			<point x="89" y="-23"/>
			<point x="100" y="-24"/>
			<point x="111" y="-24" type="curve" smooth="yes"/>
			<point x="140" y="-24"/>
			<point x="172" y="-17"/>
			<point x="188" y="1" type="curve" smooth="yes"/>
			<point x="508" y="364" type="line"/>
			<point x="808" y="10" type="line" smooth="yes"/>
			<point x="829" y="-15"/>
			<point x="873" y="-24"/>
		</contour>
	</outline>
</glyph>
<glyph name="y" format="2">
	<unicode hex="0079"/>
	<advance height="2048" width="1160"/>
	<outline>
		<contour>
			<point x="1060" y="33" type="curve" smooth="yes"/>
			<point x="1060" y="949" type="line" smooth="yes"/>
			<point x="1060" y="991"/>
			<point x="991" y="1005"/>
			<point x="958" y="1005" type="curve" smooth="yes"/>
			<point x="926" y="1005"/>
			<point x="857" y="991"/>
			<point x="857" y="949" type="curve" smooth="yes"/>
			<point x="857" y="428" type="line" smooth="yes"/>
			<point x="857" y="270"/>
			<point x="758" y="92"/>
			<point x="580" y="92" type="curve" smooth="yes"/>
			<point x="395" y="92"/>
			<point x="303" y="269"/>
			<point x="303" y="431" type="curve" smooth="yes"/>
			<point x="303" y="949" type="line" smooth="yes"/>
			<point x="303" y="991"/>
			<point x="234" y="1005"/>
			<point x="202" y="1005" type="curve" smooth="yes"/>
			<point x="169" y="1005"/>
			<point x="100" y="991"/>
			<point x="100" y="949" type="curve" smooth="yes"/>
			<point x="100" y="431" type="line" smooth="yes"/>
			<point x="100" y="155"/>
			<point x="304" y="-19"/>
			<point x="580" y="-19" type="curve" smooth="yes"/>
			<point x="678" y="-19"/>
			<point x="784" y="11"/>
			<point x="857" y="98" type="curve"/>
			<point x="857" y="44" type="line" smooth="yes"/>
			<point x="857" y="-157"/>
			<point x="770" y="-288"/>
			<point x="557" y="-288" type="curve" smooth="yes"/>
			<point x="461" y="-288"/>
			<point x="353" y="-259"/>
			<point x="296" y="-176" type="curve" smooth="yes"/>
			<point x="278" y="-150"/>
			<point x="237" y="-141"/>
			<point x="201" y="-141" type="curve" smooth="yes"/>
			<point x="168" y="-141"/>
			<point x="100" y="-155"/>
			<point x="100" y="-196" type="curve" smooth="yes"/>
			<point x="100" y="-202"/>
			<point x="102" y="-209"/>
			<point x="107" y="-216" type="curve" smooth="yes"/>
			<point x="201" y="-352"/>
			<point x="399" y="-400"/>
			<point x="559" y="-400" type="curve" smooth="yes"/>
			<point x="836" y="-400"/>
			<point x="1060" y="-269"/>
		</contour>
	</outline>
</glyph>
<glyph name="z" format="2">
	<unicode hex="0079"/>
	<advance height="1000" width="509"/>
	<outline>
		<contour>
			<point x="13.268987" y="540.79012" type="line"/>
			<point x="0" y="700" type="line"/>
			<point x="91.336767" y="694.03524"/>
			<point x="182.88318" y="691.28133"/>
			<point x="274.41333" y="691.74506" type="curve" smooth="yes"/>
			<point x="352.7467" y="692.14193"/>
			<point x="431.06811" y="694.89524"/>
			<point x="509.23598" y="700" type="curve"/>
			<point x="493.95758" y="570.85318" type="line"/>
			<point x="457.41149" y="516.47729"/>
			<point x="420.52465" y="462.33041"/>
			<point x="383.29995" y="408.41681" type="curve" smooth="yes"/>
			<point x="311.4563" y="304.36359"/>
			<point x="238.35414" y="201.17932"/>
			<point x="164.01483" y="98.89418" type="curve"/>
			<point x="213.46681" y="98.41918"/>
			<point x="262.95342" y="101.58946"/>
			<point x="311.94054" y="108.37081" type="curve" smooth="yes"/>
			<point x="379.0948" y="117.66706"/>
			<point x="445.30633" y="133.75971"/>
			<point x="509.23598" y="156.32329" type="curve"/>
			<point x="487.73693" y="0" type="line"/>
			<point x="421.68157" y="11.83524"/>
			<point x="354.76362" y="18.85329"/>
			<point x="287.69008" y="20.98001" type="curve" smooth="yes"/>
			<point x="191.41191" y="24.03273"/>
			<point x="94.816652" y="16.98845"/>
			<point x="0" y="0" type="curve"/>
			<point x="13.229792" y="102.82107" type="line"/>
			<point x="89.784071" y="174.13221"/>
			<point x="158.47497" y="253.87894"/>
			<point x="217.65846" y="340.15264" type="curve" smooth="yes"/>
			<point x="268.91666" y="414.87338"/>
			<point x="313.04748" y="494.48108"/>
			<point x="349.25723" y="577.54398" type="curve"/>
			<point x="289.88112" y="596.59571"/>
			<point x="226.17981" y="602.0285"/>
			<point x="164.43501" y="593.30662" type="curve" smooth="yes"/>
			<point x="111.2836" y="585.79862"/>
			<point x="59.626979" y="567.85262"/>
			<point x="13.268987" y="540.79012" type="curve"/>
		</contour>
	</outline>
</glyph>
<glyph name="braceleft" format="2">
	<unicode hex="007B"/>
	<advance height="2048" width="688"/>
	<outline>
		<contour>
			<point x="538" y="-370" type="line" smooth="yes"/>
			<point x="570" y="-370"/>
			<point x="638" y="-356"/>
			<point x="638" y="-315" type="curve" smooth="yes"/>
			<point x="638" y="-273"/>
			<point x="570" y="-259"/>
			<point x="538" y="-259" type="curve" smooth="yes"/>
			<point x="497" y="-260" type="line" smooth="yes"/>
			<point x="479" y="-261"/>
			<point x="461" y="-258"/>
			<point x="448" y="-246" type="curve" smooth="yes"/>
			<point x="429" y="-229"/>
			<point x="420" y="-204"/>
			<point x="420" y="-178" type="curve" smooth="yes"/>
			<point x="420" y="298" type="line" smooth="yes"/>
			<point x="420" y="371"/>
			<point x="418" y="477"/>
			<point x="353" y="520" type="curve"/>
			<point x="418" y="563"/>
			<point x="420" y="669"/>
			<point x="420" y="742" type="curve" smooth="yes"/>
			<point x="420" y="1218" type="line" smooth="yes"/>
			<point x="420" y="1244"/>
			<point x="429" y="1269"/>
			<point x="448" y="1286" type="curve" smooth="yes"/>
			<point x="461" y="1298"/>
			<point x="479" y="1300"/>
			<point x="497" y="1300" type="curve" smooth="yes"/>
			<point x="538" y="1299" type="line" smooth="yes"/>
			<point x="570" y="1298"/>
			<point x="638" y="1313"/>
			<point x="638" y="1355" type="curve" smooth="yes"/>
			<point x="638" y="1396"/>
			<point x="570" y="1410"/>
			<point x="538" y="1410" type="curve" smooth="yes"/>
			<point x="509" y="1410" type="line" smooth="yes"/>
			<point x="423" y="1410"/>
			<point x="346" y="1407"/>
			<point x="277" y="1343" type="curve" smooth="yes"/>
			<point x="242" y="1310"/>
			<point x="221" y="1266"/>
			<point x="221" y="1218" type="curve" smooth="yes"/>
			<point x="221" y="700" type="line" smooth="yes"/>
			<point x="221" y="642"/>
			<point x="213" y="575"/>
			<point x="149" y="575" type="curve" smooth="yes"/>
			<point x="83" y="575"/>
			<point x="50" y="547"/>
			<point x="50" y="520" type="curve" smooth="yes"/>
			<point x="50" y="492"/>
			<point x="83" y="465"/>
			<point x="149" y="465" type="curve" smooth="yes"/>
			<point x="213" y="465"/>
			<point x="220" y="398"/>
			<point x="220" y="340" type="curve" smooth="yes"/>
			<point x="220" y="-98"/>
			<point x="220" y="161"/>
			<point x="220" y="-178" type="curve" smooth="yes"/>
			<point x="220" y="-226"/>
			<point x="242" y="-270"/>
			<point x="277" y="-303" type="curve" smooth="yes"/>
			<point x="346" y="-368"/>
			<point x="423" y="-370"/>
			<point x="509" y="-370" type="curve" smooth="yes"/>
		</contour>
	</outline>
</glyph>
<glyph name="bar" format="2">
	<unicode hex="007C"/>
	<advance height="2048" width="355"/>
	<outline>
		<contour>
			<point x="178" y="-430" type="curve" smooth="yes"/>
			<point x="200" y="-430"/>
			<point x="255" y="-421"/>
			<point x="255" y="-391" type="curve" smooth="yes"/>
			<point x="255" y="1311" type="line" smooth="yes"/>
			<point x="255" y="1341"/>
			<point x="200" y="1350"/>
			<point x="178" y="1350" type="curve" smooth="yes"/>
			<point x="155" y="1350"/>
			<point x="100" y="1341"/>
			<point x="100" y="1311" type="curve" smooth="yes"/>
			<point x="100" y="-391" type="line" smooth="yes"/>
			<point x="100" y="-421"/>
			<point x="155" y="-430"/>
		</contour>
	</outline>
</glyph>
<glyph name="dieresis" format="2">
	<unicode hex="00A8"/>
	<advance height="2048" width="699"/>
	<outline>
		<contour>
			<point x="500" y="1320" type="curve" smooth="yes"/>
			<point x="436" y="1320"/>
			<point x="379" y="1272"/>
			<point x="379" y="1199" type="curve" smooth="yes"/>
			<point x="379" y="1128"/>
			<point x="436" y="1080"/>
			<point x="500" y="1080" type="curve" smooth="yes"/>
			<point x="562" y="1080"/>
			<point x="619" y="1128"/>
			<point x="619" y="1199" type="curve" smooth="yes"/>
			<point x="619" y="1272"/>
			<point x="562" y="1320"/>
		</contour>
		<contour>
			<point x="201" y="1320" type="curve" smooth="yes"/>
			<point x="137" y="1320"/>
			<point x="80" y="1272"/>
			<point x="80" y="1199" type="curve" smooth="yes"/>
			<point x="80" y="1128"/>
			<point x="137" y="1080"/>
			<point x="201" y="1080" type="curve" smooth="yes"/>
			<point x="263" y="1080"/>
			<point x="320" y="1128"/>
			<point x="320" y="1199" type="curve" smooth="yes"/>
			<point x="320" y="1272"/>
			<point x="263" y="1320"/>
		</contour>
	</outline>
</glyph>
<glyph name="copyright" format="2">
	<unicode hex="00A9"/>
	<advance height="2048" width="1323"/>
	<outline>
		<contour>
			<point x="662" y="-24" type="curve" smooth="yes"/>
			<point x="968" y="-24"/>
			<point x="1223" y="167"/>
			<point x="1223" y="488" type="curve" smooth="yes"/>
			<point x="1223" y="809"/>
			<point x="968" y="1000"/>
			<point x="662" y="1000" type="curve" smooth="yes"/>
			<point x="355" y="1000"/>
			<point x="100" y="809"/>
			<point x="100" y="488" type="curve" smooth="yes"/>
			<point x="100" y="167"/>
			<point x="355" y="-24"/>
		</contour>
		<contour>
			<point x="662" y="71" type="curve" smooth="yes"/>
			<point x="423" y="71"/>
			<point x="269" y="257"/>
			<point x="269" y="488" type="curve" smooth="yes"/>
			<point x="269" y="719"/>
			<point x="423" y="905"/>
			<point x="662" y="905" type="curve" smooth="yes"/>
			<point x="900" y="905"/>
			<point x="1054" y="719"/>
			<point x="1054" y="488" type="curve" smooth="yes"/>
			<point x="1054" y="257"/>
			<point x="900" y="71"/>
		</contour>
		<contour>
			<point x="677" y="158" type="curve" smooth="yes"/>
			<point x="745" y="158"/>
			<point x="817" y="179"/>
			<point x="873" y="219" type="curve" smooth="yes"/>
			<point x="918" y="251"/>
			<point x="952" y="294"/>
			<point x="965" y="349" type="curve" smooth="yes"/>
			<point x="966" y="354"/>
			<point x="967" y="360"/>
			<point x="967" y="365" type="curve" smooth="yes"/>
			<point x="967" y="388"/>
			<point x="930" y="396"/>
			<point x="912" y="396" type="curve" smooth="yes"/>
			<point x="892" y="396"/>
			<point x="859" y="389"/>
			<point x="855" y="368" type="curve" smooth="yes"/>
			<point x="848" y="326"/>
			<point x="824" y="289"/>
			<point x="791" y="263" type="curve" smooth="yes"/>
			<point x="759" y="237"/>
			<point x="718" y="220"/>
			<point x="676" y="220" type="curve" smooth="yes"/>
			<point x="612" y="219"/>
			<point x="564" y="247"/>
			<point x="531" y="289" type="curve" smooth="yes"/>
			<point x="486" y="346"/>
			<point x="469" y="419"/>
			<point x="469" y="490" type="curve" smooth="yes"/>
			<point x="469" y="616"/>
			<point x="537" y="756"/>
			<point x="680" y="756" type="curve" smooth="yes"/>
			<point x="765" y="756"/>
			<point x="842" y="694"/>
			<point x="853" y="609" type="curve" smooth="yes"/>
			<point x="856" y="587"/>
			<point x="890" y="580"/>
			<point x="910" y="580" type="curve" smooth="yes"/>
			<point x="928" y="580"/>
			<point x="966" y="587"/>
			<point x="966" y="610" type="curve" smooth="yes"/>
			<point x="966" y="614"/>
			<point x="966" y="616"/>
			<point x="965" y="620" type="curve"/>
			<point x="943" y="751"/>
			<point x="804" y="818"/>
			<point x="681" y="818" type="curve" smooth="yes"/>
			<point x="481" y="818"/>
			<point x="356" y="686"/>
			<point x="356" y="488" type="curve" smooth="yes"/>
			<point x="356" y="400"/>
			<point x="377" y="315"/>
			<point x="439" y="250" type="curve" smooth="yes"/>
			<point x="494" y="192"/>
			<point x="574" y="158"/>
		</contour>
	</outline>
</glyph>
<glyph name="registered" format="2">
	<unicode hex="00AE"/>
	<advance height="2048" width="1323"/>
	<outline>
		<contour>
			<point x="662" y="-24" type="curve" smooth="yes"/>
			<point x="968" y="-24"/>
			<point x="1223" y="167"/>
			<point x="1223" y="488" type="curve" smooth="yes"/>
			<point x="1223" y="809"/>
			<point x="968" y="1000"/>
			<point x="662" y="1000" type="curve" smooth="yes"/>
			<point x="355" y="1000"/>
			<point x="100" y="809"/>
			<point x="100" y="488" type="curve" smooth="yes"/>
			<point x="100" y="167"/>
			<point x="355" y="-24"/>
		</contour>
		<contour>
			<point x="662" y="71" type="curve" smooth="yes"/>
			<point x="423" y="71"/>
			<point x="269" y="257"/>
			<point x="269" y="488" type="curve" smooth="yes"/>
			<point x="269" y="719"/>
			<point x="423" y="905"/>
			<point x="662" y="905" type="curve" smooth="yes"/>
			<point x="900" y="905"/>
			<point x="1054" y="719"/>
			<point x="1054" y="488" type="curve" smooth="yes"/>
			<point x="1054" y="257"/>
			<point x="900" y="71"/>
		</contour>
		<contour>
			<point x="453" y="202" type="curve" smooth="yes"/>
			<point x="469" y="202"/>
			<point x="504" y="210"/>
			<point x="504" y="231" type="curve" smooth="yes"/>
			<point x="504" y="461" type="line"/>
			<point x="631" y="461" type="line" smooth="yes"/>
			<point x="674" y="461"/>
			<point x="700" y="404"/>
			<point x="717" y="364" type="curve" smooth="yes"/>
			<point x="744" y="301"/>
			<point x="771" y="242"/>
			<point x="836" y="210" type="curve" smooth="yes"/>
			<point x="846" y="205"/>
			<point x="859" y="203"/>
			<point x="871" y="203" type="curve" smooth="yes"/>
			<point x="885" y="203"/>
			<point x="898" y="206"/>
			<point x="908" y="212" type="curve" smooth="yes"/>
			<point x="917" y="217"/>
			<point x="921" y="224"/>
			<point x="921" y="231" type="curve" smooth="yes"/>
			<point x="921" y="239"/>
			<point x="915" y="247"/>
			<point x="905" y="252" type="curve" smooth="yes"/>
			<point x="862" y="273"/>
			<point x="839" y="328"/>
			<point x="820" y="370" type="curve" smooth="yes"/>
			<point x="804" y="404"/>
			<point x="788" y="441"/>
			<point x="760" y="468" type="curve"/>
			<point x="831" y="486"/>
			<point x="892" y="541"/>
			<point x="892" y="617" type="curve" smooth="yes"/>
			<point x="892" y="717"/>
			<point x="794" y="774"/>
			<point x="704" y="774" type="curve" smooth="yes"/>
			<point x="453" y="774" type="line" smooth="yes"/>
			<point x="436" y="774"/>
			<point x="401" y="767"/>
			<point x="401" y="745" type="curve" smooth="yes"/>
			<point x="401" y="231" type="line" smooth="yes"/>
			<point x="401" y="210"/>
			<point x="436" y="202"/>
		</contour>
		<contour>
			<point x="704" y="518" type="curve" smooth="yes"/>
			<point x="504" y="518" type="line"/>
			<point x="504" y="717" type="line"/>
			<point x="704" y="717" type="line" smooth="yes"/>
			<point x="753" y="717"/>
			<point x="790" y="663"/>
			<point x="790" y="617" type="curve" smooth="yes"/>
			<point x="790" y="572"/>
			<point x="753" y="518"/>
		</contour>
	</outline>
</glyph>
<glyph name="two_super" format="2">
	<unicode hex="00B2"/>
	<advance height="2048" width="478"/>
	<outline>
		<contour>
			<point x="410" y="1000" type="line" smooth="yes"/>
			<point x="431" y="1000"/>
			<point x="475" y="1009"/>
			<point x="475" y="1036" type="curve" smooth="yes"/>
			<point x="475" y="1062"/>
			<point x="431" y="1071"/>
			<point x="410" y="1071" type="curve" smooth="yes"/>
			<point x="131" y="1071" type="line"/>
			<point x="134" y="1101"/>
			<point x="140" y="1133"/>
			<point x="155" y="1158" type="curve" smooth="yes"/>
			<point x="176" y="1193"/>
			<point x="216" y="1210"/>
			<point x="251" y="1227" type="curve" smooth="yes"/>
			<point x="350" y="1275"/>
			<point x="478" y="1338"/>
			<point x="478" y="1458" type="curve" smooth="yes"/>
			<point x="478" y="1586"/>
			<point x="357" y="1653"/>
			<point x="242" y="1653" type="curve" smooth="yes"/>
			<point x="194" y="1653"/>
			<point x="145" y="1644"/>
			<point x="102" y="1621" type="curve" smooth="yes"/>
			<point x="48" y="1592"/>
			<point x="3" y="1529"/>
			<point x="3" y="1466" type="curve" smooth="yes"/>
			<point x="3" y="1459"/>
			<point x="3" y="1452"/>
			<point x="4" y="1446" type="curve" smooth="yes"/>
			<point x="9" y="1419"/>
			<point x="55" y="1414"/>
			<point x="70" y="1414" type="curve" smooth="yes"/>
			<point x="91" y="1414"/>
			<point x="134" y="1423"/>
			<point x="134" y="1449" type="curve" smooth="yes"/>
			<point x="134" y="1494"/>
			<point x="147" y="1537"/>
			<point x="178" y="1561" type="curve" smooth="yes"/>
			<point x="194" y="1574"/>
			<point x="215" y="1582"/>
			<point x="242" y="1582" type="curve" smooth="yes"/>
			<point x="305" y="1582"/>
			<point x="347" y="1519"/>
			<point x="347" y="1460" type="curve" smooth="yes"/>
			<point x="347" y="1366"/>
			<point x="240" y="1317"/>
			<point x="165" y="1280" type="curve" smooth="yes"/>
			<point x="113" y="1254"/>
			<point x="64" y="1233"/>
			<point x="32" y="1181" type="curve" smooth="yes"/>
			<point x="6" y="1138"/>
			<point x="0" y="1085"/>
			<point x="0" y="1036" type="curve" smooth="yes"/>
			<point x="0" y="1009"/>
			<point x="44" y="1000"/>
			<point x="65" y="1000" type="curve" smooth="yes"/>
		</contour>
	</outline>
</glyph>
<glyph name="three_super" format="2">
	<unicode hex="00B3"/>
	<advance height="2048" width="482"/>
	<outline>
		<contour>
			<point x="248" y="1000" type="curve" smooth="yes"/>
			<point x="366" y="1000"/>
			<point x="482" y="1069"/>
			<point x="482" y="1195" type="curve" smooth="yes"/>
			<point x="482" y="1265"/>
			<point x="446" y="1323"/>
			<point x="384" y="1356" type="curve"/>
			<point x="433" y="1387"/>
			<point x="464" y="1435"/>
			<point x="464" y="1493" type="curve" smooth="yes"/>
			<point x="464" y="1618"/>
			<point x="344" y="1677"/>
			<point x="230" y="1677" type="curve" smooth="yes"/>
			<point x="169" y="1677"/>
			<point x="105" y="1661"/>
			<point x="59" y="1620" type="curve" smooth="yes"/>
			<point x="20" y="1585"/>
			<point x="-4" y="1540"/>
			<point x="0" y="1489" type="curve" smooth="yes"/>
			<point x="1" y="1475" type="line" smooth="yes"/>
			<point x="3" y="1447"/>
			<point x="47" y="1440"/>
			<point x="68" y="1440" type="curve" smooth="yes"/>
			<point x="90" y="1440"/>
			<point x="132" y="1449"/>
			<point x="132" y="1476" type="curve" smooth="yes"/>
			<point x="132" y="1487" type="line" smooth="yes"/>
			<point x="132" y="1517"/>
			<point x="140" y="1549"/>
			<point x="160" y="1572" type="curve" smooth="yes"/>
			<point x="177" y="1592"/>
			<point x="200" y="1605"/>
			<point x="227" y="1605" type="curve" smooth="yes"/>
			<point x="291" y="1605"/>
			<point x="333" y="1553"/>
			<point x="333" y="1493" type="curve" smooth="yes"/>
			<point x="333" y="1440"/>
			<point x="297" y="1398"/>
			<point x="245" y="1390" type="curve" smooth="yes"/>
			<point x="234" y="1388"/>
			<point x="223" y="1388"/>
			<point x="212" y="1387" type="curve" smooth="yes"/>
			<point x="192" y="1386"/>
			<point x="151" y="1376"/>
			<point x="151" y="1351" type="curve" smooth="yes"/>
			<point x="151" y="1324"/>
			<point x="195" y="1314"/>
			<point x="217" y="1315" type="curve" smooth="yes"/>
			<point x="243" y="1316" type="line" smooth="yes"/>
			<point x="310" y="1318"/>
			<point x="351" y="1260"/>
			<point x="351" y="1196" type="curve" smooth="yes"/>
			<point x="351" y="1138"/>
			<point x="314" y="1072"/>
			<point x="248" y="1072" type="curve" smooth="yes"/>
			<point x="173" y="1072"/>
			<point x="131" y="1127"/>
			<point x="131" y="1197" type="curve" smooth="yes"/>
			<point x="131" y="1224"/>
			<point x="87" y="1233"/>
			<point x="66" y="1233" type="curve" smooth="yes"/>
			<point x="45" y="1233"/>
			<point x="0" y="1224"/>
			<point x="0" y="1197" type="curve" smooth="yes"/>
			<point x="0" y="1060"/>
			<point x="123" y="1000"/>
		</contour>
	</outline>
</glyph>
<glyph name="acute" format="2">
	<unicode hex="00B4"/>
	<advance height="2048" width="575"/>
	<outline>
		<contour>
			<point x="156" y="1080" type="curve" smooth="yes"/>
			<point x="168" y="1080"/>
			<point x="180" y="1084"/>
			<point x="192" y="1093" type="curve" smooth="yes"/>
			<point x="548" y="1355" type="line" smooth="yes"/>
			<point x="567" y="1369"/>
			<point x="575" y="1388"/>
			<point x="575" y="1409" type="curve" smooth="yes"/>
			<point x="575" y="1432"/>
			<point x="565" y="1456"/>
			<point x="549" y="1477" type="curve" smooth="yes"/>
			<point x="529" y="1504"/>
			<point x="498" y="1524"/>
			<point x="468" y="1524" type="curve" smooth="yes"/>
			<point x="453" y="1524"/>
			<point x="437" y="1518"/>
			<point x="423" y="1505" type="curve" smooth="yes"/>
			<point x="100" y="1204" type="line" smooth="yes"/>
			<point x="86" y="1191"/>
			<point x="80" y="1176"/>
			<point x="80" y="1161" type="curve" smooth="yes"/>
			<point x="80" y="1144"/>
			<point x="88" y="1126"/>
			<point x="102" y="1110" type="curve" smooth="yes"/>
			<point x="117" y="1092"/>
			<point x="136" y="1080"/>
		</contour>
	</outline>
</glyph>
<glyph name="paragraph" format="2">
	<unicode hex="00B6"/>
	<advance height="2048" width="1091"/>
	<outline>
		<contour>
			<point x="801" y="-24" type="curve" smooth="yes"/>
			<point x="824" y="-24"/>
			<point x="879" y="-15"/>
			<point x="879" y="15" type="curve" smooth="yes"/>
			<point x="879" y="1269" type="line"/>
			<point x="890" y="1269" type="line" smooth="yes"/>
			<point x="922" y="1269"/>
			<point x="991" y="1283"/>
			<point x="991" y="1325" type="curve" smooth="yes"/>
			<point x="991" y="1367"/>
			<point x="922" y="1381"/>
			<point x="890" y="1381" type="curve" smooth="yes"/>
			<point x="405" y="1381" type="line" smooth="yes"/>
			<point x="237" y="1381"/>
			<point x="100" y="1249"/>
			<point x="100" y="1083" type="curve" smooth="yes"/>
			<point x="100" y="947"/>
			<point x="194" y="831"/>
			<point x="327" y="796" type="curve"/>
			<point x="327" y="15" type="line" smooth="yes"/>
			<point x="327" y="-15"/>
			<point x="382" y="-24"/>
			<point x="404" y="-24" type="curve" smooth="yes"/>
			<point x="427" y="-24"/>
			<point x="482" y="-15"/>
			<point x="482" y="15" type="curve" smooth="yes"/>
			<point x="482" y="1269" type="line"/>
			<point x="724" y="1269" type="line"/>
			<point x="724" y="15" type="line" smooth="yes"/>
			<point x="724" y="-15"/>
			<point x="778" y="-24"/>
		</contour>
	</outline>
</glyph>
<glyph name="one_super" format="2">
	<unicode hex="00B9"/>
	<advance height="2048" width="274"/>
	<outline>
		<contour>
			<point x="208" y="1000" type="curve" smooth="yes"/>
			<point x="230" y="1000"/>
			<point x="274" y="1009"/>
			<point x="274" y="1036" type="curve" smooth="yes"/>
			<point x="274" y="1641" type="line" smooth="yes"/>
			<point x="274" y="1668"/>
			<point x="230" y="1677"/>
			<point x="208" y="1677" type="curve" smooth="yes"/>
			<point x="186" y="1677"/>
			<point x="146" y="1668"/>
			<point x="142" y="1642" type="curve" smooth="yes"/>
			<point x="137" y="1609"/>
			<point x="125" y="1577"/>
			<point x="102" y="1552" type="curve" smooth="yes"/>
			<point x="89" y="1538"/>
			<point x="69" y="1523"/>
			<point x="49" y="1520" type="curve" smooth="yes"/>
			<point x="31" y="1518"/>
			<point x="0" y="1507"/>
			<point x="0" y="1485" type="curve" smooth="yes"/>
			<point x="0" y="1457"/>
			<point x="47" y="1449"/>
			<point x="67" y="1450" type="curve" smooth="yes"/>
			<point x="96" y="1451"/>
			<point x="116" y="1456"/>
			<point x="143" y="1467" type="curve"/>
			<point x="143" y="1036" type="line" smooth="yes"/>
			<point x="143" y="1009"/>
			<point x="187" y="1000"/>
		</contour>
	</outline>
</glyph>
<glyph name="AE" format="2">
	<unicode hex="00C6"/>
	<advance height="2048" width="2053"/>
	<outline>
		<contour>
			<point x="181" y="7" type="curve" smooth="yes"/>
			<point x="365" y="433" type="line"/>
			<point x="870" y="433" type="line"/>
			<point x="870" y="56" type="line" smooth="yes"/>
			<point x="870" y="13"/>
			<point x="941" y="0"/>
			<point x="971" y="0" type="curve" smooth="yes"/>
			<point x="1877" y="0" type="line" smooth="yes"/>
			<point x="1907" y="0"/>
			<point x="1978" y="13"/>
			<point x="1978" y="56" type="curve" smooth="yes"/>
			<point x="1978" y="98"/>
			<point x="1907" y="112"/>
			<point x="1877" y="112" type="curve" smooth="yes"/>
			<point x="1073" y="112" type="line"/>
			<point x="1073" y="623" type="line"/>
			<point x="1758" y="623" type="line" smooth="yes"/>
			<point x="1788" y="623"/>
			<point x="1860" y="636"/>
			<point x="1860" y="679" type="curve" smooth="yes"/>
			<point x="1860" y="721"/>
			<point x="1788" y="734"/>
			<point x="1758" y="734" type="curve" smooth="yes"/>
			<point x="1073" y="734" type="line"/>
			<point x="1073" y="1245" type="line"/>
			<point x="1876" y="1245" type="line" smooth="yes"/>
			<point x="1906" y="1245"/>
			<point x="1978" y="1258"/>
			<point x="1978" y="1301" type="curve" smooth="yes"/>
			<point x="1978" y="1344"/>
			<point x="1906" y="1357"/>
			<point x="1876" y="1357" type="curve" smooth="yes"/>
			<point x="703" y="1357" type="line" smooth="yes"/>
			<point x="667" y="1357"/>
			<point x="611" y="1354"/>
			<point x="595" y="1316" type="curve" smooth="yes"/>
			<point x="27" y="25" type="line" smooth="yes"/>
			<point x="25" y="21"/>
			<point x="25" y="18"/>
			<point x="25" y="15" type="curve" smooth="yes"/>
			<point x="25" y="-9"/>
			<point x="66" y="-24"/>
			<point x="106" y="-24" type="curve" smooth="yes"/>
			<point x="139" y="-24"/>
			<point x="172" y="-14"/>
		</contour>
		<contour>
			<point x="870" y="545" type="line"/>
			<point x="414" y="545" type="line"/>
			<point x="722" y="1245" type="line"/>
			<point x="870" y="1245" type="line"/>
		</contour>
	</outline>
</glyph>
<glyph name="Eth" format="2">
	<unicode hex="00D0"/>
	<advance height="2048" width="1590"/>
	<outline>
		<contour>
			<point x="872" y="-24" type="line" smooth="yes"/>
			<point x="1274" y="-24"/>
			<point x="1510" y="272"/>
			<point x="1510" y="650" type="curve" smooth="yes"/>
			<point x="1510" y="1027"/>
			<point x="1275" y="1333"/>
			<point x="872" y="1333" type="curve" smooth="yes"/>
			<point x="406" y="1333" type="line" smooth="yes"/>
			<point x="374" y="1333"/>
			<point x="305" y="1319"/>
			<point x="305" y="1277" type="curve" smooth="yes"/>
			<point x="305" y="709" type="line"/>
			<point x="181" y="709" type="line" smooth="yes"/>
			<point x="149" y="709"/>
			<point x="80" y="696"/>
			<point x="80" y="655" type="curve" smooth="yes"/>
			<point x="80" y="613"/>
			<point x="149" y="600"/>
			<point x="181" y="600" type="curve" smooth="yes"/>
			<point x="305" y="600" type="line"/>
			<point x="305" y="32" type="line" smooth="yes"/>
			<point x="305" y="-10"/>
			<point x="374" y="-24"/>
			<point x="406" y="-24" type="curve" smooth="yes"/>
		</contour>
		<contour>
			<point x="872" y="88" type="curve" smooth="yes"/>
			<point x="508" y="88" type="line"/>
			<point x="508" y="600" type="line"/>
			<point x="631" y="600" type="line" smooth="yes"/>
			<point x="664" y="600"/>
			<point x="733" y="613"/>
			<point x="733" y="655" type="curve" smooth="yes"/>
			<point x="733" y="696"/>
			<point x="664" y="709"/>
			<point x="631" y="709" type="curve" smooth="yes"/>
			<point x="508" y="709" type="line"/>
			<point x="508" y="1221" type="line"/>
			<point x="872" y="1221" type="line" smooth="yes"/>
			<point x="1171" y="1221"/>
			<point x="1308" y="902"/>
			<point x="1308" y="651" type="curve" smooth="yes"/>
			<point x="1308" y="397"/>
			<point x="1172" y="88"/>
		</contour>
	</outline>
</glyph>
<glyph name="multiply" format="2">
	<unicode hex="00D7"/>
	<advance height="2048" width="960"/>
	<outline>
		<contour>
			<point x="779" y="120" type="curve" smooth="yes"/>
			<point x="793" y="120"/>
			<point x="807" y="122"/>
			<point x="819" y="126" type="curve" smooth="yes"/>
			<point x="839" y="132"/>
			<point x="860" y="146"/>
			<point x="860" y="163" type="curve" smooth="yes"/>
			<point x="860" y="170"/>
			<point x="857" y="177"/>
			<point x="850" y="184" type="curve" smooth="yes"/>
			<point x="572" y="454" type="line"/>
			<point x="850" y="723" type="line" smooth="yes"/>
			<point x="857" y="730"/>
			<point x="860" y="737"/>
			<point x="860" y="744" type="curve" smooth="yes"/>
			<point x="860" y="761"/>
			<point x="839" y="775"/>
			<point x="819" y="781" type="curve" smooth="yes"/>
			<point x="807" y="785"/>
			<point x="793" y="787"/>
			<point x="779" y="787" type="curve" smooth="yes"/>
			<point x="753" y="787"/>
			<point x="726" y="780"/>
			<point x="710" y="765" type="curve" smooth="yes"/>
			<point x="480" y="542" type="line"/>
			<point x="250" y="765" type="line" smooth="yes"/>
			<point x="234" y="780"/>
			<point x="207" y="787"/>
			<point x="181" y="787" type="curve" smooth="yes"/>
			<point x="167" y="787"/>
			<point x="153" y="785"/>
			<point x="141" y="781" type="curve" smooth="yes"/>
			<point x="121" y="775"/>
			<point x="100" y="761"/>
			<point x="100" y="744" type="curve" smooth="yes"/>
			<point x="100" y="737"/>
			<point x="103" y="730"/>
			<point x="110" y="723" type="curve" smooth="yes"/>
			<point x="388" y="454" type="line"/>
			<point x="110" y="184" type="line" smooth="yes"/>
			<point x="103" y="177"/>
			<point x="100" y="170"/>
			<point x="100" y="163" type="curve" smooth="yes"/>
			<point x="100" y="146"/>
			<point x="121" y="132"/>
			<point x="141" y="126" type="curve" smooth="yes"/>
			<point x="153" y="122"/>
			<point x="167" y="120"/>
			<point x="181" y="120" type="curve" smooth="yes"/>
			<point x="207" y="120"/>
			<point x="234" y="127"/>
			<point x="250" y="142" type="curve" smooth="yes"/>
			<point x="480" y="365" type="line"/>
			<point x="710" y="142" type="line" smooth="yes"/>
			<point x="726" y="127"/>
			<point x="753" y="120"/>
		</contour>
	</outline>
</glyph>
<glyph name="Thorn" format="2">
	<unicode hex="00DE"/>
	<advance height="2048" width="1312"/>
	<outline>
		<contour>
			<point x="303" y="32" type="curve" smooth="yes"/>
			<point x="303" y="299" type="line"/>
			<point x="831" y="299" type="line" smooth="yes"/>
			<point x="1047" y="299"/>
			<point x="1262" y="442"/>
			<point x="1262" y="670" type="curve" smooth="yes"/>
			<point x="1262" y="898"/>
			<point x="1047" y="1041"/>
			<point x="831" y="1041" type="curve" smooth="yes"/>
			<point x="303" y="1041" type="line"/>
			<point x="303" y="1308" type="line" smooth="yes"/>
			<point x="303" y="1350"/>
			<point x="234" y="1364"/>
			<point x="202" y="1364" type="curve" smooth="yes"/>
			<point x="169" y="1364"/>
			<point x="100" y="1350"/>
			<point x="100" y="1308" type="curve" smooth="yes"/>
			<point x="100" y="32" type="line" smooth="yes"/>
			<point x="100" y="-10"/>
			<point x="169" y="-24"/>
			<point x="202" y="-24" type="curve" smooth="yes"/>
			<point x="234" y="-24"/>
			<point x="303" y="-10"/>
		</contour>
		<contour>
			<point x="303" y="929" type="line"/>
			<point x="831" y="929" type="line" smooth="yes"/>
			<point x="963" y="929"/>
			<point x="1059" y="791"/>
			<point x="1059" y="670" type="curve" smooth="yes"/>
			<point x="1059" y="549"/>
			<point x="963" y="411"/>
			<point x="831" y="411" type="curve" smooth="yes"/>
			<point x="303" y="411" type="line"/>
		</contour>
	</outline>
</glyph>
<glyph name="divide" format="2">
	<unicode hex="00F7"/>
	<advance height="2048" width="1003"/>
	<outline>
		<contour>
			<point x="855" y="498" type="line" smooth="yes"/>
			<point x="886" y="498"/>
			<point x="953" y="512"/>
			<point x="953" y="553" type="curve" smooth="yes"/>
			<point x="953" y="594"/>
			<point x="886" y="608"/>
			<point x="855" y="608" type="curve" smooth="yes"/>
			<point x="148" y="608" type="line" smooth="yes"/>
			<point x="117" y="608"/>
			<point x="50" y="594"/>
			<point x="50" y="553" type="curve" smooth="yes"/>
			<point x="50" y="512"/>
			<point x="117" y="498"/>
			<point x="148" y="498" type="curve" smooth="yes"/>
		</contour>
		<contour>
			<point x="502" y="856" type="curve" smooth="yes"/>
			<point x="448" y="856"/>
			<point x="399" y="815"/>
			<point x="399" y="753" type="curve" smooth="yes"/>
			<point x="399" y="692"/>
			<point x="448" y="651"/>
			<point x="502" y="651" type="curve" smooth="yes"/>
			<point x="555" y="651"/>
			<point x="604" y="692"/>
			<point x="604" y="753" type="curve" smooth="yes"/>
			<point x="604" y="815"/>
			<point x="555" y="856"/>
		</contour>
		<contour>
			<point x="502" y="455" type="curve" smooth="yes"/>
			<point x="448" y="455"/>
			<point x="399" y="414"/>
			<point x="399" y="352" type="curve" smooth="yes"/>
			<point x="399" y="291"/>
			<point x="448" y="250"/>
			<point x="502" y="250" type="curve" smooth="yes"/>
			<point x="555" y="250"/>
			<point x="604" y="291"/>
			<point x="604" y="352" type="curve" smooth="yes"/>
			<point x="604" y="414"/>
			<point x="555" y="455"/>
		</contour>
	</outline>
</glyph>
<glyph name="oslash" format="2">
	<unicode hex="00F8"/>
	<advance height="2048" width="1323"/>
	<outline>
		<contour>
			<point x="662" y="-24" type="curve" smooth="yes"/>
			<point x="968" y="-24"/>
			<point x="1223" y="167"/>
			<point x="1223" y="488" type="curve" smooth="yes"/>
			<point x="1223" y="672"/>
			<point x="1138" y="829"/>
			<point x="976" y="921" type="curve"/>
			<point x="992" y="949" type="line"/>
			<point x="994" y="953"/>
			<point x="995" y="957"/>
			<point x="995" y="960" type="curve" smooth="yes"/>
			<point x="995" y="989"/>
			<point x="941" y="999"/>
			<point x="917" y="999" type="curve" smooth="yes"/>
			<point x="891" y="999"/>
			<point x="860" y="993"/>
			<point x="846" y="975" type="curve"/>
			<point x="786" y="992"/>
			<point x="724" y="1000"/>
			<point x="662" y="1000" type="curve" smooth="yes"/>
			<point x="355" y="1000"/>
			<point x="100" y="809"/>
			<point x="100" y="488" type="curve" smooth="yes"/>
			<point x="100" y="304"/>
			<point x="185" y="147"/>
			<point x="347" y="55" type="curve"/>
			<point x="331" y="27" type="line"/>
			<point x="329" y="23"/>
			<point x="328" y="19"/>
			<point x="328" y="16" type="curve" smooth="yes"/>
			<point x="328" y="-13"/>
			<point x="382" y="-23"/>
			<point x="406" y="-23" type="curve" smooth="yes"/>
			<point x="432" y="-23"/>
			<point x="463" y="-17"/>
			<point x="477" y="1" type="curve"/>
			<point x="537" y="-16"/>
			<point x="599" y="-24"/>
		</contour>
		<contour>
			<point x="406" y="164" type="line"/>
			<point x="312" y="246"/>
			<point x="269" y="366"/>
			<point x="269" y="488" type="curve" smooth="yes"/>
			<point x="269" y="719"/>
			<point x="423" y="905"/>
			<point x="662" y="905" type="curve" smooth="yes"/>
			<point x="707" y="905"/>
			<point x="752" y="898"/>
			<point x="796" y="883" type="curve"/>
		</contour>
		<contour>
			<point x="662" y="71" type="curve" smooth="yes"/>
			<point x="616" y="71"/>
			<point x="571" y="78"/>
			<point x="527" y="93" type="curve"/>
			<point x="917" y="812" type="line"/>
			<point x="1011" y="730"/>
			<point x="1054" y="610"/>
			<point x="1054" y="488" type="curve" smooth="yes"/>
			<point x="1054" y="257"/>
			<point x="900" y="71"/>
		</contour>
	</outline>
</glyph>
<glyph name="thorn" format="2">
	<unicode hex="00FE"/>
	<advance height="2048" width="1174"/>
	<outline>
		<contour>
			<point x="612" y="-22" type="curve" smooth="yes"/>
			<point x="921" y="-22"/>
			<point x="1124" y="189"/>
			<point x="1124" y="490" type="curve" smooth="yes"/>
			<point x="1124" y="791"/>
			<point x="921" y="1002"/>
			<point x="612" y="1002" type="curve" smooth="yes"/>
			<point x="499" y="1002"/>
			<point x="383" y="967"/>
			<point x="303" y="886" type="curve"/>
			<point x="303" y="1326" type="line" smooth="yes"/>
			<point x="303" y="1368"/>
			<point x="234" y="1382"/>
			<point x="202" y="1382" type="curve" smooth="yes"/>
			<point x="169" y="1382"/>
			<point x="100" y="1368"/>
			<point x="100" y="1326" type="curve" smooth="yes"/>
			<point x="100" y="-346" type="line" smooth="yes"/>
			<point x="100" y="-388"/>
			<point x="169" y="-402"/>
			<point x="202" y="-402" type="curve" smooth="yes"/>
			<point x="234" y="-402"/>
			<point x="303" y="-388"/>
			<point x="303" y="-346" type="curve" smooth="yes"/>
			<point x="303" y="94" type="line"/>
			<point x="383" y="13"/>
			<point x="499" y="-22"/>
		</contour>
		<contour>
			<point x="612" y="90" type="curve" smooth="yes"/>
			<point x="402" y="90"/>
			<point x="303" y="311"/>
			<point x="303" y="490" type="curve" smooth="yes"/>
			<point x="303" y="669"/>
			<point x="402" y="890"/>
			<point x="612" y="890" type="curve" smooth="yes"/>
			<point x="822" y="890"/>
			<point x="921" y="669"/>
			<point x="921" y="490" type="curve" smooth="yes"/>
			<point x="921" y="311"/>
			<point x="822" y="90"/>
		</contour>
	</outline>
</glyph>
<glyph name="oe" format="2">
	<unicode hex="0153"/>
	<advance height="2048" width="2068"/>
	<outline>
		<contour>
			<point x="1471" y="-24" type="curve" smooth="yes"/>
			<point x="1599" y="-24"/>
			<point x="1734" y="8"/>
			<point x="1841" y="78" type="curve" smooth="yes"/>
			<point x="1899" y="116"/>
			<point x="1954" y="170"/>
			<point x="1982" y="234" type="curve" smooth="yes"/>
			<point x="1990" y="253"/>
			<point x="1999" y="281"/>
			<point x="1999" y="302" type="curve" smooth="yes"/>
			<point x="1999" y="343"/>
			<point x="1928" y="357"/>
			<point x="1896" y="357" type="curve" smooth="yes"/>
			<point x="1865" y="357"/>
			<point x="1801" y="343"/>
			<point x="1797" y="305" type="curve" smooth="yes"/>
			<point x="1790" y="239"/>
			<point x="1739" y="184"/>
			<point x="1685" y="149" type="curve" smooth="yes"/>
			<point x="1622" y="109"/>
			<point x="1547" y="87"/>
			<point x="1472" y="87" type="curve" smooth="yes"/>
			<point x="1259" y="87"/>
			<point x="1136" y="278"/>
			<point x="1134" y="475" type="curve"/>
			<point x="1917" y="475" type="line" smooth="yes"/>
			<point x="1959" y="475"/>
			<point x="2018" y="487"/>
			<point x="2018" y="539" type="curve" smooth="yes"/>
			<point x="2018" y="845"/>
			<point x="1773" y="1000"/>
			<point x="1480" y="1000" type="curve" smooth="yes"/>
			<point x="1296" y="1000"/>
			<point x="1137" y="929"/>
			<point x="1038" y="804" type="curve"/>
			<point x="941" y="928"/>
			<point x="782" y="1000"/>
			<point x="595" y="1000" type="curve" smooth="yes"/>
			<point x="283" y="1000"/>
			<point x="50" y="800"/>
			<point x="50" y="488" type="curve" smooth="yes"/>
			<point x="50" y="176"/>
			<point x="283" y="-24"/>
			<point x="595" y="-24" type="curve" smooth="yes"/>
			<point x="780" y="-24"/>
			<point x="937" y="46"/>
			<point x="1034" y="168" type="curve"/>
			<point x="1132" y="45"/>
			<point x="1289" y="-24"/>
		</contour>
		<contour>
			<point x="595" y="87" type="curve" smooth="yes"/>
			<point x="373" y="87"/>
			<point x="253" y="290"/>
			<point x="253" y="488" type="curve" smooth="yes"/>
			<point x="253" y="686"/>
			<point x="373" y="889"/>
			<point x="595" y="889" type="curve" smooth="yes"/>
			<point x="817" y="889"/>
			<point x="937" y="686"/>
			<point x="937" y="488" type="curve" smooth="yes"/>
			<point x="937" y="290"/>
			<point x="817" y="87"/>
		</contour>
		<contour>
			<point x="1813" y="586" type="curve"/>
			<point x="1146" y="586" type="line"/>
			<point x="1182" y="750"/>
			<point x="1302" y="889"/>
			<point x="1480" y="889" type="curve" smooth="yes"/>
			<point x="1669" y="889"/>
			<point x="1794" y="767"/>
		</contour>
	</outline>
</glyph>
<glyph name="anuswara" format="2">
  <advance height="1000" width="339"/>
  <unicode hex="0D02"/>
  <outline>
    <contour>
      <point x="313.29505" y="279.42076999999995" type="curve" smooth="yes"/>
      <point x="333.35074" y="235.77226999999993"/>
      <point x="338.24865" y="185.29932999999994"/>
      <point x="326.77985" y="138.6529099999999" type="curve" smooth="yes"/>
      <point x="318.9235" y="106.69922999999994"/>
      <point x="303.39794" y="76.41836999999987"/>
      <point x="280.63495" y="52.6569199999999" type="curve" smooth="yes"/>
      <point x="259.29975" y="30.385889999999904"/>
      <point x="231.69027" y="14.084859999999935"/>
      <point x="201.74452000000002" y="6.706419999999866" type="curve" smooth="yes"/>
      <point x="177.25041000000002" y="0.6712299999999232"/>
      <point x="151.27756000000002" y="0.6087799999999106"/>
      <point x="126.81362000000003" y="6.765119999999911" type="curve" smooth="yes"/>
      <point x="102.34967000000003" y="12.921419999999898"/>
      <point x="79.44945100000004" y="25.308019999999942"/>
      <point x="61.07499200000002" y="42.59280999999987" type="curve" smooth="yes"/>
      <point x="39.460138" y="62.925790000000006"/>
      <point x="24.382764" y="89.72026000000005"/>
      <point x="16.19745" y="118.24454000000003" type="curve" smooth="yes"/>
      <point x="8.0121366" y="146.76881000000003"/>
      <point x="6.5394817" y="176.98096999999996"/>
      <point x="9.8070221" y="206.476" type="curve" smooth="yes"/>
      <point x="14.621955" y="249.93884000000003"/>
      <point x="30.180955" y="292.95907"/>
      <point x="58.780415" y="326.03887" type="curve" smooth="yes"/>
      <point x="73.080145" y="342.57876"/>
      <point x="90.527637" y="356.48118"/>
      <point x="110.17305999999999" y="366.07845" type="curve" smooth="yes"/>
      <point x="129.81849" y="375.67573"/>
      <point x="151.6705" y="380.90986999999996"/>
      <point x="173.53163" y="380.53386" type="curve" smooth="yes"/>
      <point x="203.85213000000002" y="380.01235"/>
      <point x="233.57373" y="368.62416"/>
      <point x="257.74049" y="350.30553" type="curve" smooth="yes"/>
      <point x="281.90724" y="331.98688999999996"/>
      <point x="300.63386" y="306.97614"/>
    </contour>
    <contour>
      <point x="79.577812" y="219.56425000000002" type="line"/>
      <point x="65.230837" y="192.66677000000004"/>
      <point x="62.97027299999999" y="159.21407"/>
      <point x="75.21705399999999" y="131.29764999999998" type="curve" smooth="yes"/>
      <point x="81.34044399999999" y="117.33943999999997"/>
      <point x="90.92629899999999" y="104.88409999999999"/>
      <point x="102.99976" y="95.58038999999997" type="curve" smooth="yes"/>
      <point x="115.07321999999999" y="86.27667999999994"/>
      <point x="129.6227" y="80.16618999999992"/>
      <point x="144.7499" y="78.29660999999999" type="curve" smooth="yes"/>
      <point x="161.00369" y="76.28778999999997"/>
      <point x="177.79402" y="79.20548999999994"/>
      <point x="192.54582" y="86.31922999999995" type="curve" smooth="yes"/>
      <point x="207.29762" y="93.43295999999998"/>
      <point x="219.98264" y="104.68904999999995"/>
      <point x="229.04549" y="118.3303699999999" type="curve" smooth="yes"/>
      <point x="238.10834" y="131.97168999999985"/>
      <point x="243.5551" y="147.95038999999986"/>
      <point x="245.00409" y="164.26361999999995" type="curve" smooth="yes"/>
      <point x="246.45307" y="180.57684999999992"/>
      <point x="243.92909" y="197.19571999999994"/>
      <point x="237.97637" y="212.45304999999996" type="curve" smooth="yes"/>
      <point x="233.06011" y="225.05383999999992"/>
      <point x="225.78341" y="236.78958"/>
      <point x="216.26534" y="246.39977999999996" type="curve" smooth="yes"/>
      <point x="206.74727000000001" y="256.00996999999995"/>
      <point x="194.96120000000002" y="263.45438"/>
      <point x="182.01748" y="267.37987999999996" type="curve" smooth="yes"/>
      <point x="162.48015" y="273.30504999999994"/>
      <point x="140.77588" y="270.90539"/>
      <point x="122.44947" y="261.9077299999999" type="curve" smooth="yes"/>
      <point x="104.12307000000001" y="252.91007999999988"/>
      <point x="89.186226" y="237.57794999999987"/>
      <point x="79.57781200000001" y="219.5642499999999" type="curve"/>
    </contour>
  </outline>
</glyph>
<glyph name="visarga" format="2">
  <advance height="1000" width="481.0"/>
  <unicode hex="0D03"/>
  <outline>
    <contour>
      <point x="398.4958298175739" y="523.0813263315227" type="curve" smooth="yes"/>
      <point x="398.4958298175739" y="617.0914284766279"/>
      <point x="322.19777590270604" y="660.6903164279811"/>
      <point x="235.0" y="660.6903164279811" type="curve" smooth="yes"/>
      <point x="147.80222409729367" y="660.6903164279811"/>
      <point x="70.82293755818588" y="617.7726611008679"/>
      <point x="70.82293755818588" y="523.0813263315227" type="curve" smooth="yes"/>
      <point x="70.82293755818588" y="428.3899915621779"/>
      <point x="149.16468934577347" y="380.70370786538547"/>
      <point x="235.0" y="380.70370786538547" type="curve" smooth="yes"/>
      <point x="320.83531065422636" y="380.70370786538547"/>
      <point x="398.4958298175739" y="429.0712241864178"/>
    </contour>
    <contour>
      <point x="235.0" y="451.55190078633416" type="curve" smooth="yes"/>
      <point x="212.5193234000834" y="451.55190078633416"/>
      <point x="190.03864680016696" y="478.1199731316899"/>
      <point x="190.03864680016696" y="523.0813263315227" type="curve" smooth="yes"/>
      <point x="190.03864680016696" y="568.0426795313557"/>
      <point x="212.5193234000834" y="589.8421235070318"/>
      <point x="235.0" y="589.8421235070318" type="curve" smooth="yes"/>
      <point x="257.48067659991636" y="589.8421235070318"/>
      <point x="279.28012057559283" y="568.0426795313557"/>
      <point x="279.28012057559283" y="523.0813263315227" type="curve" smooth="yes"/>
      <point x="279.28012057559283" y="478.8012057559298"/>
      <point x="257.48067659991636" y="451.55190078633416"/>
    </contour>
    <contour>
      <point x="398.4958298175739" y="178.37761846613745" type="curve" smooth="yes"/>
      <point x="398.4958298175739" y="272.38772061124257"/>
      <point x="322.19777590270604" y="315.9866085625956"/>
      <point x="235.0" y="315.9866085625956" type="curve" smooth="yes"/>
      <point x="147.80222409729367" y="315.9866085625956"/>
      <point x="70.82293755818588" y="273.06895323548247"/>
      <point x="70.82293755818588" y="178.37761846613745" type="curve" smooth="yes"/>
      <point x="70.82293755818588" y="83.68628369679246"/>
      <point x="149.16468934577347" y="36.0"/>
      <point x="235.0" y="36.0" type="curve" smooth="yes"/>
      <point x="320.83531065422636" y="36.0"/>
      <point x="398.4958298175739" y="84.36751632103233"/>
    </contour>
    <contour>
      <point x="235.0" y="106.84819292094876" type="curve" smooth="yes"/>
      <point x="212.5193234000834" y="106.84819292094876"/>
      <point x="190.03864680016696" y="133.41626526630458"/>
      <point x="190.03864680016696" y="178.37761846613745" type="curve" smooth="yes"/>
      <point x="190.03864680016696" y="223.33897166597032"/>
      <point x="212.5193234000834" y="245.13841564164693"/>
      <point x="235.0" y="245.13841564164693" type="curve" smooth="yes"/>
      <point x="257.48067659991636" y="245.13841564164693"/>
      <point x="279.28012057559283" y="222.65773904173045"/>
      <point x="279.28012057559283" y="178.37761846613745" type="curve" smooth="yes"/>
      <point x="279.28012057559283" y="133.41626526630458"/>
      <point x="257.48067659991636" y="106.84819292094876"/>
    </contour>
  </outline>
</glyph>
<glyph name="ml_a" format="2">
  <advance height="1000" width="2496.0"/>
  <unicode hex="0D05"/>
  <outline>
    <contour>
      <point x="2025.0" y="-24.0" type="curve" smooth="yes"/>
      <point x="2156.0" y="-24.0"/>
      <point x="2274.0" y="31.0"/>
      <point x="2342.0" y="143.0" type="curve" smooth="yes"/>
      <point x="2395.0" y="229.0"/>
      <point x="2416.0" y="330.0"/>
      <point x="2416.0" y="430.0" type="curve" smooth="yes"/>
      <point x="2416.0" y="560.0"/>
      <point x="2381.0" y="684.0"/>
      <point x="2298.0" y="787.0" type="curve" smooth="yes"/>
      <point x="2176.0" y="940.0"/>
      <point x="1994.0" y="1000.0"/>
      <point x="1800.0" y="1000.0" type="curve" smooth="yes"/>
      <point x="1676.0" y="1000.0"/>
      <point x="1542.0" y="968.0"/>
      <point x="1445.0" y="888.0" type="curve"/>
      <point x="1351.0" y="971.0"/>
      <point x="1214.0" y="1000.0"/>
      <point x="1090.0" y="1000.0" type="curve" smooth="yes"/>
      <point x="1014.0" y="1000.0"/>
      <point x="942.0" y="995.0"/>
      <point x="868.0" y="976.0" type="curve"/>
      <point x="802.0" y="989.0"/>
      <point x="732.0" y="1000.0"/>
      <point x="665.0" y="1000.0" type="curve" smooth="yes"/>
      <point x="503.0" y="1000.0"/>
      <point x="338.0" y="947.0"/>
      <point x="224.0" y="828.0" type="curve" smooth="yes"/>
      <point x="125.0" y="725.0"/>
      <point x="80.0" y="589.0"/>
      <point x="80.0" y="448.0" type="curve" smooth="yes"/>
      <point x="80.0" y="278.0"/>
      <point x="150.0" y="93.0"/>
      <point x="300.0" y="-4.0" type="curve" smooth="yes"/>
      <point x="321.0" y="-18.0"/>
      <point x="349.0" y="-24.0"/>
      <point x="377.0" y="-24.0" type="curve" smooth="yes"/>
      <point x="401.0" y="-24.0"/>
      <point x="424.0" y="-20.0"/>
      <point x="443.0" y="-11.0" type="curve"/>
      <point x="465.0" y="-2.0"/>
      <point x="479.0" y="16.0"/>
      <point x="479.0" y="32.0" type="curve" smooth="yes"/>
      <point x="479.0" y="45.0"/>
      <point x="471.0" y="57.0"/>
      <point x="455.0" y="68.0" type="curve" smooth="yes"/>
      <point x="333.0" y="146.0"/>
      <point x="282.0" y="320.0"/>
      <point x="282.0" y="455.0" type="curve" smooth="yes"/>
      <point x="282.0" y="602.0"/>
      <point x="343.0" y="743.0"/>
      <point x="467.0" y="827.0" type="curve" smooth="yes"/>
      <point x="527.0" y="868.0"/>
      <point x="587.0" y="885.0"/>
      <point x="659.0" y="887.0" type="curve"/>
      <point x="513.0" y="784.0"/>
      <point x="458.0" y="632.0"/>
      <point x="458.0" y="459.0" type="curve" smooth="yes"/>
      <point x="458.0" y="359.0"/>
      <point x="482.0" y="254.0"/>
      <point x="533.0" y="166.0" type="curve" smooth="yes"/>
      <point x="608.0" y="38.0"/>
      <point x="730.0" y="-24.0"/>
      <point x="880.0" y="-24.0" type="curve" smooth="yes"/>
      <point x="968.0" y="-24.0"/>
      <point x="1061.0" y="0.0"/>
      <point x="1129.0" y="59.0" type="curve" smooth="yes"/>
      <point x="1190.0" y="113.0"/>
      <point x="1218.0" y="187.0"/>
      <point x="1218.0" y="267.0" type="curve" smooth="yes"/>
      <point x="1218.0" y="367.0"/>
      <point x="1170.0" y="438.0"/>
      <point x="1079.0" y="482.0" type="curve"/>
      <point x="1151.0" y="530.0"/>
      <point x="1192.0" y="603.0"/>
      <point x="1192.0" y="689.0" type="curve" smooth="yes"/>
      <point x="1192.0" y="772.0"/>
      <point x="1155.0" y="841.0"/>
      <point x="1088.0" y="891.0" type="curve"/>
      <point x="1265.0" y="887.0"/>
      <point x="1336.0" y="766.0"/>
      <point x="1336.0" y="606.0" type="curve" smooth="yes"/>
      <point x="1336.0" y="32.0" type="line" smooth="yes"/>
      <point x="1336.0" y="-10.0"/>
      <point x="1405.0" y="-24.0"/>
      <point x="1437.0" y="-24.0" type="curve" smooth="yes"/>
      <point x="1469.0" y="-24.0"/>
      <point x="1538.0" y="-10.0"/>
      <point x="1538.0" y="32.0" type="curve" smooth="yes"/>
      <point x="1538.0" y="606.0" type="line" smooth="yes"/>
      <point x="1538.0" y="777.0"/>
      <point x="1633.0" y="890.0"/>
      <point x="1809.0" y="890.0" type="curve" smooth="yes"/>
      <point x="1893.0" y="890.0"/>
      <point x="1979.0" y="860.0"/>
      <point x="2045.0" y="810.0" type="curve"/>
      <point x="1922.0" y="789.0"/>
      <point x="1810.0" y="732.0"/>
      <point x="1734.0" y="634.0" type="curve" smooth="yes"/>
      <point x="1674.0" y="555.0"/>
      <point x="1642.0" y="455.0"/>
      <point x="1642.0" y="358.0" type="curve" smooth="yes"/>
      <point x="1642.0" y="278.0"/>
      <point x="1663.0" y="196.0"/>
      <point x="1709.0" y="129.0" type="curve" smooth="yes"/>
      <point x="1781.0" y="23.0"/>
      <point x="1900.0" y="-24.0"/>
    </contour>
    <contour>
      <point x="882.0" y="87.0" type="curve" smooth="yes"/>
      <point x="798.0" y="87.0"/>
      <point x="737.0" y="170.0"/>
      <point x="706.0" y="238.0" type="curve" smooth="yes"/>
      <point x="674.0" y="308.0"/>
      <point x="660.0" y="390.0"/>
      <point x="660.0" y="467.0" type="curve" smooth="yes"/>
      <point x="660.0" y="629.0"/>
      <point x="721.0" y="780.0"/>
      <point x="877.0" y="853.0" type="curve"/>
      <point x="950.0" y="822.0"/>
      <point x="989.0" y="767.0"/>
      <point x="989.0" y="689.0" type="curve" smooth="yes"/>
      <point x="989.0" y="608.0"/>
      <point x="958.0" y="542.0"/>
      <point x="877.0" y="529.0" type="curve" smooth="yes"/>
      <point x="859.0" y="526.0"/>
      <point x="842.0" y="527.0"/>
      <point x="824.0" y="525.0" type="curve" smooth="yes"/>
      <point x="794.0" y="522.0"/>
      <point x="737.0" y="508.0"/>
      <point x="737.0" y="470.0" type="curve" smooth="yes"/>
      <point x="737.0" y="429.0"/>
      <point x="804.0" y="415.0"/>
      <point x="835.0" y="415.0" type="curve" smooth="yes"/>
      <point x="884.0" y="415.0" type="line" smooth="yes"/>
      <point x="974.0" y="415.0"/>
      <point x="1016.0" y="359.0"/>
      <point x="1016.0" y="267.0" type="curve" smooth="yes"/>
      <point x="1016.0" y="220.0"/>
      <point x="1003.0" y="170.0"/>
      <point x="973.0" y="133.0" type="curve" smooth="yes"/>
      <point x="950.0" y="105.0"/>
      <point x="918.0" y="87.0"/>
    </contour>
    <contour>
      <point x="2023.0" y="87.0" type="curve" smooth="yes"/>
      <point x="1970.0" y="87.0"/>
      <point x="1926.0" y="126.0"/>
      <point x="1898.0" y="168.0" type="curve" smooth="yes"/>
      <point x="1860.0" y="223.0"/>
      <point x="1845.0" y="292.0"/>
      <point x="1845.0" y="358.0" type="curve" smooth="yes"/>
      <point x="1845.0" y="440.0"/>
      <point x="1869.0" y="524.0"/>
      <point x="1920.0" y="591.0" type="curve" smooth="yes"/>
      <point x="1973.0" y="659.0"/>
      <point x="2050.0" y="703.0"/>
      <point x="2138.0" y="707.0" type="curve"/>
      <point x="2192.0" y="623.0"/>
      <point x="2214.0" y="524.0"/>
      <point x="2214.0" y="426.0" type="curve" smooth="yes"/>
      <point x="2214.0" y="341.0"/>
      <point x="2195.0" y="252.0"/>
      <point x="2150.0" y="179.0" type="curve" smooth="yes"/>
      <point x="2123.0" y="135.0"/>
      <point x="2080.0" y="87.0"/>
    </contour>
  </outline>
</glyph>
